<?xml version="1.0" standalone="no"?>
<!DOCTYPE svg PUBLIC "-//W3C//DTD SVG 20010904//EN"
 "http://www.w3.org/TR/2001/REC-SVG-20010904/DTD/svg10.dtd">
<svg version="1.0" xmlns="http://www.w3.org/2000/svg"
 width="700.000000pt" height="700.000000pt" viewBox="0 0 700.000000 700.000000"
 preserveAspectRatio="xMidYMid meet">
<metadata>
Created by potrace 1.11, written by Peter Selinger 2001-2013
</metadata>
<g transform="translate(0.000000,700.000000) scale(0.100000,-0.100000)"
fill="#000000" stroke="none">
<path d="M3297 6704 c-1 -1 -33 -5 -72 -8 -69 -7 -105 -11 -187 -22 -35 -4
-277 -52 -351 -69 -174 -40 -484 -162 -687 -271 -151 -81 -243 -138 -380 -235
-209 -148 -504 -434 -650 -629 -14 -18 -34 -45 -46 -59 -109 -138 -268 -410
-359 -616 -97 -219 -197 -548 -220 -719 -3 -27 -8 -52 -9 -55 -2 -3 -7 -33
-11 -66 -4 -33 -9 -71 -11 -85 -24 -174 -24 -615 0 -750 3 -14 7 -45 11 -70 3
-25 7 -52 9 -60 1 -8 6 -37 10 -65 31 -198 129 -518 223 -725 46 -102 57 -125
112 -225 278 -513 684 -934 1194 -1239 70 -42 129 -76 131 -76 2 0 64 -29 137
-63 275 -131 589 -228 846 -263 26 -3 57 -8 68 -10 11 -2 45 -6 75 -9 30 -3
71 -8 90 -11 19 -3 125 -7 235 -8 179 -3 274 2 415 19 25 3 68 8 95 11 28 3
57 8 65 10 8 3 33 8 55 11 136 18 435 105 620 180 265 108 492 238 740 424
125 94 171 135 321 284 111 111 163 168 261 289 81 100 313 456 297 456 -3 0
3 12 13 27 18 26 67 122 68 133 1 3 12 30 27 60 64 138 153 395 184 533 16 70
33 156 40 202 3 22 7 42 9 45 2 3 7 33 10 65 4 33 9 68 11 79 18 95 25 480 11
631 -9 102 -15 153 -21 190 -24 149 -38 231 -41 236 -2 3 -7 21 -10 40 -3 19
-15 68 -26 109 -268 993 -981 1785 -1950 2165 -74 29 -292 100 -339 110 -8 2
-46 11 -85 20 -96 22 -255 49 -353 60 -26 3 -69 8 -97 12 -46 5 -473 12 -478
7z"/>
</g>
</svg>
