<?xml version="1.0" encoding="UTF-8" standalone="no"?>
<svg
   xmlns:dc="http://purl.org/dc/elements/1.1/"
   xmlns:cc="http://creativecommons.org/ns#"
   xmlns:rdf="http://www.w3.org/1999/02/22-rdf-syntax-ns#"
   xmlns:svg="http://www.w3.org/2000/svg"
   xmlns="http://www.w3.org/2000/svg"
   xmlns:sodipodi="http://sodipodi.sourceforge.net/DTD/sodipodi-0.dtd"
   xmlns:inkscape="http://www.inkscape.org/namespaces/inkscape"
   height="20"
   id="Layer_1"
   version="1.1"
   viewBox="0 0 20 20"
   width="20"
   xml:space="preserve"
   sodipodi:docname="function_list.svg"
   inkscape:version="0.92.2 5c3e80d, 2017-08-06"
   inkscape:export-filename="/Users/realor/Desktop/function_list.png"
   inkscape:export-xdpi="120"
   inkscape:export-ydpi="120"><metadata
     id="metadata11"><rdf:RDF><cc:Work
         rdf:about=""><dc:format>image/svg+xml</dc:format><dc:type
           rdf:resource="http://purl.org/dc/dcmitype/StillImage" /><dc:title></dc:title></cc:Work></rdf:RDF></metadata><defs
     id="defs9" /><sodipodi:namedview
     pagecolor="#ffffff"
     bordercolor="#666666"
     borderopacity="1"
     objecttolerance="10"
     gridtolerance="10"
     guidetolerance="10"
     inkscape:pageopacity="0"
     inkscape:pageshadow="2"
     inkscape:window-width="1155"
     inkscape:window-height="582"
     id="namedview7"
     showgrid="true"
     inkscape:zoom="14.75"
     inkscape:cx="9.8236364"
     inkscape:cy="9.7597352"
     inkscape:window-x="0"
     inkscape:window-y="0"
     inkscape:window-maximized="0"
     inkscape:current-layer="g4"
     inkscape:snap-global="false"><inkscape:grid
       type="xygrid"
       id="grid816" /></sodipodi:namedview><g
     id="g4"
     transform="translate(0,-492)"><rect
       style="opacity:1;fill:none;fill-opacity:1;fill-rule:nonzero;stroke:#666666;stroke-width:1.01348209;stroke-linecap:round;stroke-linejoin:round;stroke-miterlimit:4;stroke-dasharray:none;stroke-opacity:1"
       id="rect916"
       width="12.983913"
       height="13.017811"
       x="3.5349231"
       y="495.48117"
       ry="3.4512811" /><g
       aria-label="f"
       style="font-style:normal;font-variant:normal;font-weight:normal;font-stretch:normal;font-size:10.66666698px;line-height:125%;font-family:Arial;-inkscape-font-specification:Arial;letter-spacing:0px;word-spacing:0px;fill:#666666;fill-opacity:1;stroke:none;stroke-width:1px;stroke-linecap:butt;stroke-linejoin:miter;stroke-opacity:1"
       id="text962"
       transform="translate(0.10169492,0.13559322)"><g
         aria-label="f"
         style="font-style:normal;font-variant:normal;font-weight:normal;font-stretch:normal;font-size:8px;line-height:125%;font-family:Arial;-inkscape-font-specification:Arial;letter-spacing:0px;word-spacing:0px;fill:#000000;fill-opacity:1;stroke:none;stroke-width:1px;stroke-linecap:butt;stroke-linejoin:miter;stroke-opacity:1"
         id="text973"><path
           style="font-style:normal;font-variant:normal;font-weight:normal;font-stretch:normal;font-family:Monaco;-inkscape-font-specification:Monaco;fill:#666666;fill-opacity:1"
           d="m 10.806945,498.52372 c -0.492588,0 -0.9213037,0.0973 -1.2656252,0.32032 a 0.33901383,0.33901383 0 0 0 -0.00195,0.002 c -0.317526,0.20762 -0.5656919,0.4856 -0.7226562,0.81836 -0.1527479,0.32382 -0.1963994,0.76561 -0.2070313,1.28515 H 7.9592885 a 0.33901383,0.33901383 0 0 0 -0.3398437,0.33985 v 0.60547 a 0.33901383,0.33901383 0 0 0 0.3398437,0.33984 h 0.6289063 v 3.05469 a 0.33901383,0.33901383 0 0 0 0.3398437,0.33984 H 9.654601 a 0.33901383,0.33901383 0 0 0 0.3398438,-0.33984 v -3.05469 H 11.38507 a 0.33901383,0.33901383 0 0 0 0.339844,-0.33984 v -0.60547 a 0.33901383,0.33901383 0 0 0 -0.339844,-0.3399 h -1.382813 c 0.0078,-0.38829 0.05653,-0.68109 0.101563,-0.76953 v -0.002 c 0.07354,-0.14084 0.156804,-0.21868 0.265625,-0.27148 0.124823,-0.0606 0.27497,-0.0937 0.464844,-0.0937 0.243241,0 0.543599,0.0531 0.896484,0.16992 a 0.33901383,0.33901383 0 0 0 0.447265,-0.32227 v -0.6914 A 0.33901383,0.33901383 0 0 0 11.904601,498.637 c -0.369762,-0.0745 -0.735644,-0.11328 -1.097656,-0.11328 z"
           id="path975"
           inkscape:connector-curvature="0" /></g></g></g></svg>