<?xml version="1.0" encoding="UTF-8" standalone="no"?>
<!-- Generator: Adobe Illustrator 16.0.0, SVG Export Plug-In . SVG Version: 6.00 Build 0)  -->

<svg
  xmlns:dc="http://purl.org/dc/elements/1.1/"
  xmlns:cc="http://creativecommons.org/ns#"
  xmlns:rdf="http://www.w3.org/1999/02/22-rdf-syntax-ns#"
  xmlns:svg="http://www.w3.org/2000/svg"
  xmlns="http://www.w3.org/2000/svg"
  xmlns:sodipodi="http://sodipodi.sourceforge.net/DTD/sodipodi-0.dtd"
  xmlns:inkscape="http://www.inkscape.org/namespaces/inkscape"
  version="1.1"
  id="Capa_1"
  x="0px"
  y="0px"
  width="479.52701"
  height="479.522"
  viewBox="0 0 479.52701 479.522"
  enable-background="new 0 0 497.974 503.975"
  xml:space="preserve"
  sodipodi:docname="logo_basic-01.svg"
  inkscape:version="0.92.2 5c3e80d, 2017-08-06"
  inkscape:export-filename="/Users/realor/Desktop/logos_brain4it/png/basico/128.png"
  inkscape:export-xdpi="25.625519"
  inkscape:export-ydpi="25.625519"><metadata
  id="metadata17"><rdf:RDF><cc:Work
  rdf:about=""><dc:format>image/svg+xml</dc:format><dc:type
  rdf:resource="http://purl.org/dc/dcmitype/StillImage" /><dc:title></dc:title></cc:Work></rdf:RDF></metadata><defs
  id="defs15"><filter
  style="color-interpolation-filters:sRGB"
  inkscape:label="Drop Shadow"
  id="filter842"><feFlood
  flood-opacity="0.498039"
  flood-color="rgb(0,0,0)"
  result="flood"
  id="feFlood832" /><feComposite
  in="flood"
  in2="SourceGraphic"
  operator="out"
  result="composite1"
  id="feComposite834" /><feGaussianBlur
  in="composite1"
  stdDeviation="2"
  result="blur"
  id="feGaussianBlur836" /><feOffset
  dx="0"
  dy="2"
  result="offset"
  id="feOffset838" /><feComposite
  in="offset"
  in2="SourceGraphic"
  operator="atop"
  result="composite2"
  id="feComposite840" /></filter><filter
  style="color-interpolation-filters:sRGB"
  inkscape:label="Drop Shadow"
  id="filter866"><feFlood
  flood-opacity="0.498039"
  flood-color="rgb(0,0,0)"
  result="flood"
  id="feFlood856" /><feComposite
  in="flood"
  in2="SourceGraphic"
  operator="out"
  result="composite1"
  id="feComposite858" /><feGaussianBlur
  in="composite1"
  stdDeviation="2"
  result="blur"
  id="feGaussianBlur860" /><feOffset
  dx="0"
  dy="2"
  result="offset"
  id="feOffset862" /><feComposite
  in="offset"
  in2="SourceGraphic"
  operator="atop"
  result="composite2"
  id="feComposite864" /></filter><filter
  style="color-interpolation-filters:sRGB"
  inkscape:label="Drop Shadow"
  id="filter878"><feFlood
  flood-opacity="0.498039"
  flood-color="rgb(0,0,0)"
  result="flood"
  id="feFlood868" /><feComposite
  in="flood"
  in2="SourceGraphic"
  operator="out"
  result="composite1"
  id="feComposite870" /><feGaussianBlur
  in="composite1"
  stdDeviation="2"
  result="blur"
  id="feGaussianBlur872" /><feOffset
  dx="0"
  dy="2"
  result="offset"
  id="feOffset874" /><feComposite
  in="offset"
  in2="SourceGraphic"
  operator="atop"
  result="composite2"
  id="feComposite876" /></filter><filter
  style="color-interpolation-filters:sRGB"
  inkscape:label="Drop Shadow"
  id="filter4560"><feFlood
  flood-opacity="0.392157"
  flood-color="rgb(0,0,0)"
  result="flood"
  id="feFlood4550" /><feComposite
  in="flood"
  in2="SourceGraphic"
  operator="out"
  result="composite1"
  id="feComposite4552" /><feGaussianBlur
  in="composite1"
  stdDeviation="1.5"
  result="blur"
  id="feGaussianBlur4554" /><feOffset
  dx="0"
  dy="2"
  result="offset"
  id="feOffset4556" /><feComposite
  in="offset"
  in2="SourceGraphic"
  operator="atop"
  result="composite2"
  id="feComposite4558" /></filter><filter
  style="color-interpolation-filters:sRGB"
  inkscape:label="Drop Shadow"
  id="filter4572"><feFlood
  flood-opacity="0.392157"
  flood-color="rgb(0,0,0)"
  result="flood"
  id="feFlood4562" /><feComposite
  in="flood"
  in2="SourceGraphic"
  operator="out"
  result="composite1"
  id="feComposite4564" /><feGaussianBlur
  in="composite1"
  stdDeviation="1.5"
  result="blur"
  id="feGaussianBlur4566" /><feOffset
  dx="0"
  dy="2"
  result="offset"
  id="feOffset4568" /><feComposite
  in="offset"
  in2="SourceGraphic"
  operator="atop"
  result="composite2"
  id="feComposite4570" /></filter><filter
  style="color-interpolation-filters:sRGB"
  inkscape:label="Drop Shadow"
  id="filter4584"><feFlood
  flood-opacity="0.392157"
  flood-color="rgb(0,0,0)"
  result="flood"
  id="feFlood4574" /><feComposite
  in="flood"
  in2="SourceGraphic"
  operator="out"
  result="composite1"
  id="feComposite4576" /><feGaussianBlur
  in="composite1"
  stdDeviation="1.5"
  result="blur"
  id="feGaussianBlur4578" /><feOffset
  dx="0"
  dy="2"
  result="offset"
  id="feOffset4580" /><feComposite
  in="offset"
  in2="SourceGraphic"
  operator="atop"
  result="composite2"
  id="feComposite4582" /></filter></defs><sodipodi:namedview
  pagecolor="#ffffff"
  bordercolor="#666666"
  borderopacity="1"
  objecttolerance="10"
  gridtolerance="10"
  guidetolerance="10"
  inkscape:pageopacity="0"
  inkscape:pageshadow="2"
  inkscape:window-width="640"
  inkscape:window-height="480"
  id="namedview13"
  showgrid="false"
  inkscape:zoom="1.1125723"
  inkscape:cx="239.7635"
  inkscape:cy="239.76101"
  inkscape:current-layer="g10"
  fit-margin-top="20"
  fit-margin-left="20"
  fit-margin-right="20"
  fit-margin-bottom="20"
  scale-x="0.4"
  inkscape:pagecheckerboard="true" /><path
  d="m 459.527,239.76099 c 0,121.369 -98.393,219.761 -219.761,219.761 C 118.393,459.52199 20,361.12999 20,239.76099 20,118.38799 118.393,20 239.766,20 c 121.368,0.001 219.761,98.38799 219.761,219.76099 z"
  id="path2"
  inkscape:connector-curvature="0"
  style="fill:#ffffff" /><g
  id="g10"
  transform="translate(-9.223,-12.226)"><path
  d="m 345.009,250.729 c 5.024,-7.546 7.717,-16.418 7.717,-25.754 0,-19.514 -11.893,-36.468 -29.327,-43.274 -0.68,-23.24 -19.657,-41.928 -42.884,-41.928 -11.947,0 -22.948,5.142 -31.242,13.47 -1.881,-2.085 -3.964,-3.991 -6.248,-5.632 -7.137,-5.133 -15.942,-7.838 -24.695,-7.838 -22.944,0 -41.74,18.233 -42.85,41.075 -18.41,6.229 -31.365,23.731 -31.365,44.019 0,10.477 3.46,20.46 9.722,28.542 -5.025,7.55 -7.718,16.418 -7.718,25.753 0,19.515 11.893,36.469 29.328,43.273 0.68,23.241 19.656,41.929 42.883,41.929 11.947,0 22.949,-5.141 31.242,-13.469 1.88,2.085 3.966,3.99 6.25,5.63 7.135,5.134 15.942,7.838 24.693,7.838 22.944,0 41.742,-18.232 42.851,-41.075 18.409,-6.229 31.365,-23.726 31.365,-44.018 0,-10.478 -3.461,-20.461 -9.722,-28.541 z m -105.684,78.914 c -3.425,8.611 -11.682,14.302 -20.994,14.302 -12.481,0 -22.633,-10.226 -22.633,-22.802 0,-1.433 0.138,-2.898 0.415,-4.341 0,0 0.002,-0.03 0.007,-0.049 0.861,-4.445 3.005,-8.503 6.208,-11.73 3.957,-3.986 3.957,-10.45 0,-14.436 -3.958,-3.991 -10.374,-3.991 -14.333,0 -3.349,3.37 -6.085,7.231 -8.145,11.435 -8.118,-4.438 -13.46,-13.075 -13.46,-22.86 0,-7.191 2.855,-13.883 8.038,-18.855 0.034,-0.033 0.062,-0.066 0.09,-0.098 4.814,-4.563 11.097,-7.081 17.711,-7.081 h 16.694 c 5.597,0 10.135,-4.57 10.135,-10.206 0,-5.641 -4.539,-10.212 -10.135,-10.212 h -16.692 c -8.396,0 -16.486,2.279 -23.551,6.518 -2.773,-4.21 -4.295,-9.179 -4.295,-14.36 0,-13.232 9.827,-24.347 22.862,-25.852 2.781,-0.319 5.31,-1.79 6.979,-4.05 1.673,-2.265 2.336,-5.124 1.841,-7.901 -0.245,-1.372 -0.366,-2.738 -0.366,-4.078 -0.002,-12.565 10.15,-22.795 22.631,-22.795 9.312,0 17.569,5.695 20.994,14.302 v 155.149 z m 72.277,-24.521 c -2.782,0.323 -5.311,1.789 -6.98,4.05 -1.669,2.264 -2.337,5.128 -1.84,7.9 0.245,1.372 0.368,2.742 0.368,4.077 0.002,12.571 -10.153,22.796 -22.633,22.796 -9.313,0 -17.569,-5.691 -20.994,-14.302 V 174.497 c 3.425,-8.611 11.681,-14.306 20.994,-14.306 12.48,0 22.636,10.23 22.636,22.801 0,1.434 -0.142,2.899 -0.417,4.345 -0.002,0.009 -0.002,0.026 -0.008,0.045 -0.858,4.449 -3.004,8.504 -6.206,11.731 -3.957,3.985 -3.957,10.454 0,14.435 3.958,3.992 10.376,3.992 14.332,0 3.349,-3.369 6.086,-7.231 8.145,-11.434 8.119,4.436 13.461,13.07 13.461,22.859 0,7.192 -2.854,13.888 -8.038,18.856 -0.032,0.03 -0.059,0.066 -0.091,0.098 -4.811,4.566 -11.095,7.08 -17.711,7.08 h -16.694 c -5.596,0 -10.133,4.571 -10.133,10.207 0,5.64 4.537,10.212 10.133,10.212 h 16.694 c 8.394,0 16.483,-2.279 23.549,-6.518 2.772,4.211 4.294,9.179 4.294,14.361 -0.001,13.236 -9.827,24.351 -22.861,25.853 z"
  id="path4"
  style="fill:#ee7f23;filter:url(#filter4560)"
  inkscape:connector-curvature="0" /><path
  d="m 211.859,88.971 c -57.29,13.277 -104.379,56.716 -122.152,112.795 -18.158,57.291 -3.087,121.486 38.048,165.109 22.536,23.902 52.134,40.72 84.104,48.128 11.944,2.769 17.043,-15.619 5.071,-18.392 -51.095,-11.843 -93.45,-49.979 -109.09,-100.309 -15.823,-50.915 -2.839,-107.697 33.992,-146.341 20.351,-21.35 46.399,-35.948 75.098,-42.6 11.951,-2.766 6.893,-21.158 -5.071,-18.39 z"
  id="path6"
  style="fill:#5a5b5b;filter:url(#filter4584)"
  inkscape:connector-curvature="0" /><path
  d="m 286.115,415.003 c 57.292,-13.277 104.381,-56.716 122.151,-112.791 18.16,-57.296 3.088,-121.491 -38.045,-165.115 -22.536,-23.902 -52.134,-40.715 -84.106,-48.127 -11.945,-2.769 -17.042,15.618 -5.07,18.392 51.093,11.843 93.45,49.979 109.09,100.308 15.823,50.915 2.839,107.697 -33.992,146.342 -20.351,21.349 -46.401,35.947 -75.098,42.6 -11.953,2.768 -6.895,21.164 5.07,18.391 z"
  id="path8"
  style="fill:#5a5b5b;filter:url(#filter4572)"
  inkscape:connector-curvature="0" /></g></svg>