<?xml version="1.0" encoding="UTF-8" standalone="no"?>
<!-- Generator: Adobe Illustrator 16.0.0, SVG Export Plug-In . SVG Version: 6.00 Build 0)  -->

<svg
   xmlns:dc="http://purl.org/dc/elements/1.1/"
   xmlns:cc="http://creativecommons.org/ns#"
   xmlns:rdf="http://www.w3.org/1999/02/22-rdf-syntax-ns#"
   xmlns:svg="http://www.w3.org/2000/svg"
   xmlns="http://www.w3.org/2000/svg"
   xmlns:sodipodi="http://sodipodi.sourceforge.net/DTD/sodipodi-0.dtd"
   xmlns:inkscape="http://www.inkscape.org/namespaces/inkscape"
   version="1.1"
   id="Capa_1"
   x="0px"
   y="0px"
   width="1421.929px"
   height="503.975px"
   viewBox="0 0 1421.929 503.975"
   enable-background="new 0 0 1421.929 503.975"
   xml:space="preserve"
   sodipodi:docname="logo_completo-01.svg"
   inkscape:version="0.92.2 5c3e80d, 2017-08-06"><metadata
     id="metadata33"><rdf:RDF><cc:Work
         rdf:about=""><dc:format>image/svg+xml</dc:format><dc:type
           rdf:resource="http://purl.org/dc/dcmitype/StillImage" /><dc:title></dc:title></cc:Work></rdf:RDF></metadata><defs
     id="defs31"><filter
       style="color-interpolation-filters:sRGB;"
       inkscape:label="Drop Shadow"
       id="filter4542"><feFlood
         flood-opacity="0.498039"
         flood-color="rgb(0,0,0)"
         result="flood"
         id="feFlood4532" /><feComposite
         in="flood"
         in2="SourceGraphic"
         operator="out"
         result="composite1"
         id="feComposite4534" /><feGaussianBlur
         in="composite1"
         stdDeviation="1.5"
         result="blur"
         id="feGaussianBlur4536" /><feOffset
         dx="0"
         dy="2"
         result="offset"
         id="feOffset4538" /><feComposite
         in="offset"
         in2="SourceGraphic"
         operator="atop"
         result="composite2"
         id="feComposite4540" /></filter><filter
       style="color-interpolation-filters:sRGB;"
       inkscape:label="Drop Shadow"
       id="filter4554"><feFlood
         flood-opacity="0.498039"
         flood-color="rgb(0,0,0)"
         result="flood"
         id="feFlood4544" /><feComposite
         in="flood"
         in2="SourceGraphic"
         operator="out"
         result="composite1"
         id="feComposite4546" /><feGaussianBlur
         in="composite1"
         stdDeviation="1.5"
         result="blur"
         id="feGaussianBlur4548" /><feOffset
         dx="0"
         dy="2"
         result="offset"
         id="feOffset4550" /><feComposite
         in="offset"
         in2="SourceGraphic"
         operator="atop"
         result="composite2"
         id="feComposite4552" /></filter><filter
       style="color-interpolation-filters:sRGB;"
       inkscape:label="Drop Shadow"
       id="filter4566"><feFlood
         flood-opacity="0.498039"
         flood-color="rgb(0,0,0)"
         result="flood"
         id="feFlood4556" /><feComposite
         in="flood"
         in2="SourceGraphic"
         operator="out"
         result="composite1"
         id="feComposite4558" /><feGaussianBlur
         in="composite1"
         stdDeviation="1.5"
         result="blur"
         id="feGaussianBlur4560" /><feOffset
         dx="0"
         dy="2"
         result="offset"
         id="feOffset4562" /><feComposite
         in="offset"
         in2="SourceGraphic"
         operator="atop"
         result="composite2"
         id="feComposite4564" /></filter><filter
       style="color-interpolation-filters:sRGB;"
       inkscape:label="Drop Shadow"
       id="filter852"><feFlood
         flood-opacity="0.498039"
         flood-color="rgb(0,0,0)"
         result="flood"
         id="feFlood842" /><feComposite
         in="flood"
         in2="SourceGraphic"
         operator="out"
         result="composite1"
         id="feComposite844" /><feGaussianBlur
         in="composite1"
         stdDeviation="1.5"
         result="blur"
         id="feGaussianBlur846" /><feOffset
         dx="0"
         dy="2"
         result="offset"
         id="feOffset848" /><feComposite
         in="offset"
         in2="SourceGraphic"
         operator="atop"
         result="composite2"
         id="feComposite850" /></filter><filter
       style="color-interpolation-filters:sRGB;"
       inkscape:label="Drop Shadow"
       id="filter864"><feFlood
         flood-opacity="0.498039"
         flood-color="rgb(0,0,0)"
         result="flood"
         id="feFlood854" /><feComposite
         in="flood"
         in2="SourceGraphic"
         operator="out"
         result="composite1"
         id="feComposite856" /><feGaussianBlur
         in="composite1"
         stdDeviation="1.5"
         result="blur"
         id="feGaussianBlur858" /><feOffset
         dx="0"
         dy="2"
         result="offset"
         id="feOffset860" /><feComposite
         in="offset"
         in2="SourceGraphic"
         operator="atop"
         result="composite2"
         id="feComposite862" /></filter><filter
       style="color-interpolation-filters:sRGB;"
       inkscape:label="Drop Shadow"
       id="filter876"><feFlood
         flood-opacity="0.498039"
         flood-color="rgb(0,0,0)"
         result="flood"
         id="feFlood866" /><feComposite
         in="flood"
         in2="SourceGraphic"
         operator="out"
         result="composite1"
         id="feComposite868" /><feGaussianBlur
         in="composite1"
         stdDeviation="1.5"
         result="blur"
         id="feGaussianBlur870" /><feOffset
         dx="0"
         dy="2"
         result="offset"
         id="feOffset872" /><feComposite
         in="offset"
         in2="SourceGraphic"
         operator="atop"
         result="composite2"
         id="feComposite874" /></filter><filter
       style="color-interpolation-filters:sRGB;"
       inkscape:label="Drop Shadow"
       id="filter888"><feFlood
         flood-opacity="0.498039"
         flood-color="rgb(0,0,0)"
         result="flood"
         id="feFlood878" /><feComposite
         in="flood"
         in2="SourceGraphic"
         operator="out"
         result="composite1"
         id="feComposite880" /><feGaussianBlur
         in="composite1"
         stdDeviation="1.5"
         result="blur"
         id="feGaussianBlur882" /><feOffset
         dx="0"
         dy="2"
         result="offset"
         id="feOffset884" /><feComposite
         in="offset"
         in2="SourceGraphic"
         operator="atop"
         result="composite2"
         id="feComposite886" /></filter><filter
       style="color-interpolation-filters:sRGB;"
       inkscape:label="Drop Shadow"
       id="filter900"><feFlood
         flood-opacity="0.498039"
         flood-color="rgb(0,0,0)"
         result="flood"
         id="feFlood890" /><feComposite
         in="flood"
         in2="SourceGraphic"
         operator="out"
         result="composite1"
         id="feComposite892" /><feGaussianBlur
         in="composite1"
         stdDeviation="1.5"
         result="blur"
         id="feGaussianBlur894" /><feOffset
         dx="0"
         dy="2"
         result="offset"
         id="feOffset896" /><feComposite
         in="offset"
         in2="SourceGraphic"
         operator="atop"
         result="composite2"
         id="feComposite898" /></filter><filter
       style="color-interpolation-filters:sRGB;"
       inkscape:label="Drop Shadow"
       id="filter912"><feFlood
         flood-opacity="0.498039"
         flood-color="rgb(0,0,0)"
         result="flood"
         id="feFlood902" /><feComposite
         in="flood"
         in2="SourceGraphic"
         operator="out"
         result="composite1"
         id="feComposite904" /><feGaussianBlur
         in="composite1"
         stdDeviation="1.5"
         result="blur"
         id="feGaussianBlur906" /><feOffset
         dx="0"
         dy="2"
         result="offset"
         id="feOffset908" /><feComposite
         in="offset"
         in2="SourceGraphic"
         operator="atop"
         result="composite2"
         id="feComposite910" /></filter><filter
       style="color-interpolation-filters:sRGB;"
       inkscape:label="Drop Shadow"
       id="filter924"><feFlood
         flood-opacity="0.498039"
         flood-color="rgb(0,0,0)"
         result="flood"
         id="feFlood914" /><feComposite
         in="flood"
         in2="SourceGraphic"
         operator="out"
         result="composite1"
         id="feComposite916" /><feGaussianBlur
         in="composite1"
         stdDeviation="1.5"
         result="blur"
         id="feGaussianBlur918" /><feOffset
         dx="0"
         dy="2"
         result="offset"
         id="feOffset920" /><feComposite
         in="offset"
         in2="SourceGraphic"
         operator="atop"
         result="composite2"
         id="feComposite922" /></filter><filter
       style="color-interpolation-filters:sRGB;"
       inkscape:label="Drop Shadow"
       id="filter936"><feFlood
         flood-opacity="0.498039"
         flood-color="rgb(0,0,0)"
         result="flood"
         id="feFlood926" /><feComposite
         in="flood"
         in2="SourceGraphic"
         operator="out"
         result="composite1"
         id="feComposite928" /><feGaussianBlur
         in="composite1"
         stdDeviation="1.5"
         result="blur"
         id="feGaussianBlur930" /><feOffset
         dx="0"
         dy="2"
         result="offset"
         id="feOffset932" /><feComposite
         in="offset"
         in2="SourceGraphic"
         operator="atop"
         result="composite2"
         id="feComposite934" /></filter></defs><sodipodi:namedview
     pagecolor="#ffffff"
     bordercolor="#666666"
     borderopacity="1"
     objecttolerance="10"
     gridtolerance="10"
     guidetolerance="10"
     inkscape:pageopacity="0"
     inkscape:pageshadow="2"
     inkscape:window-width="640"
     inkscape:window-height="480"
     id="namedview29"
     showgrid="false"
     inkscape:zoom="0.31260353"
     inkscape:cx="717.95205"
     inkscape:cy="243.28389"
     inkscape:current-layer="g26" /><g
     id="g8"><path
       fill="#EE7F23"
       d="M380.468,253.609c6.505-9.773,9.997-21.257,9.997-33.342c0-25.264-15.399-47.218-37.97-56.028   c-0.882-30.085-25.449-54.282-55.521-54.282c-15.47,0-29.71,6.655-40.452,17.438c-2.433-2.7-5.13-5.166-8.083-7.291   c-9.243-6.644-20.644-10.148-31.972-10.148c-29.706,0-54.044,23.611-55.481,53.18c-23.835,8.066-40.606,30.72-40.606,56.994   c0,13.562,4.483,26.486,12.583,36.945c-6.505,9.773-9.987,21.257-9.987,33.342c0,25.264,15.396,47.218,37.966,56.028   c0.881,30.084,25.448,54.282,55.525,54.282c15.461,0,29.706-6.656,40.443-17.436c2.442,2.697,5.139,5.162,8.093,7.29   c9.237,6.642,20.64,10.146,31.971,10.146c29.707,0,54.04-23.611,55.477-53.181c23.831-8.065,40.605-30.72,40.605-56.993   C393.055,276.993,388.578,264.068,380.468,253.609z M243.643,355.777c-4.434,11.146-15.122,18.52-27.177,18.52   c-16.158,0-29.31-13.245-29.31-29.521c0-1.859,0.185-3.755,0.538-5.623c0.009-0.019,0.009-0.041,0.009-0.062   c1.119-5.755,3.896-11.01,8.039-15.188c5.122-5.161,5.122-13.531,0-18.692s-13.43-5.161-18.556,0   c-4.336,4.368-7.88,9.366-10.542,14.809c-10.516-5.747-17.428-16.929-17.428-29.601c0-9.308,3.694-17.973,10.402-24.408   c0.044-0.043,0.079-0.085,0.124-0.127c6.223-5.911,14.359-9.166,22.928-9.166h21.614c7.246,0,13.117-5.918,13.117-13.216   c0-7.3-5.871-13.22-13.117-13.22H182.67c-10.869,0-21.341,2.949-30.491,8.436c-3.588-5.45-5.563-11.88-5.563-18.59   c0-17.134,12.729-31.522,29.602-33.468c3.601-0.416,6.875-2.314,9.035-5.245c2.164-2.931,3.028-6.635,2.384-10.229   c-0.317-1.771-0.476-3.547-0.476-5.275c-0.005-16.275,13.147-29.518,29.305-29.518c12.055,0,22.743,7.375,27.177,18.521V355.777z    M337.222,324.03c-3.605,0.415-6.876,2.314-9.04,5.245c-2.165,2.931-3.028,6.633-2.384,10.229c0.316,1.771,0.476,3.548,0.476,5.275   c0,16.272-13.144,29.517-29.301,29.517c-12.059,0-22.752-7.374-27.186-18.52V154.912c4.434-11.146,15.127-18.521,27.186-18.521   c16.157,0,29.301,13.243,29.301,29.522c0,1.857-0.176,3.754-0.538,5.624c0,0.016,0,0.04-0.008,0.06   c-1.111,5.758-3.888,11.012-8.035,15.19c-5.126,5.162-5.126,13.529,0,18.69c5.126,5.164,13.429,5.164,18.555,0   c4.337-4.368,7.88-9.363,10.547-14.807c10.512,5.747,17.426,16.927,17.426,29.599c0,9.308-3.697,17.975-10.41,24.41   c-0.039,0.042-0.075,0.086-0.115,0.128c-6.232,5.91-14.363,9.163-22.927,9.163h-21.614c-7.246,0-13.125,5.918-13.125,13.218   c0,7.299,5.879,13.218,13.125,13.218h21.614c10.865,0,21.341-2.949,30.487-8.436c3.592,5.452,5.558,11.883,5.558,18.59   C366.814,307.696,354.094,322.082,337.222,324.03z"
       id="path2"
       style="filter:url(#filter4542)" /><path
       fill="#5A5B5B"
       d="M208.083,44.187C133.915,61.378,72.952,117.615,49.939,190.215c-23.514,74.177-3.997,157.289,49.258,213.77   c29.173,30.94,67.496,52.713,108.886,62.304c15.465,3.583,22.063-20.217,6.567-23.809   c-66.152-15.333-120.985-64.706-141.237-129.866c-20.486-65.916-3.67-139.436,44.009-189.461   C143.77,95.51,177.496,76.611,214.65,68C230.125,64.413,223.576,40.6,208.083,44.187L208.083,44.187z"
       id="path4"
       style="filter:url(#filter4566)" /><path
       fill="#5A5B5B"
       d="M304.224,466.29C378.396,449.1,439.36,392.86,462.367,320.262c23.51-74.177,4.002-157.287-49.258-213.769   c-29.177-30.942-67.496-52.713-108.886-62.306c-15.466-3.583-22.068,20.221-6.562,23.813   c66.146,15.329,120.984,64.706,141.232,129.864c20.486,65.916,3.676,139.436-44.008,189.462   c-26.348,27.643-60.069,46.542-97.224,55.154C282.182,446.063,288.731,469.881,304.224,466.29L304.224,466.29z"
       id="path6"
       style="filter:url(#filter4554)" /></g><g
     id="g26"><path
       fill="#5A5B5B"
       d="M653.254,251.906c8.189,4.269,14.598,10.172,19.216,17.709c4.615,7.532,6.925,16.4,6.925,26.594   c0,11.239-3.116,21.456-9.344,30.646c-6.227,9.189-15.095,15.399-26.594,18.621c-5.835,1.658-14.946,2.482-27.312,2.482h-49.919   V162.911h45.996c11.68,0,20.125,0.696,25.352,2.092c10.543,2.787,19.103,8.492,25.683,17.118   c6.581,8.627,9.868,18.864,9.868,30.711c0,8.451-1.719,16.008-5.161,22.675C664.516,242.17,659.618,247.637,653.254,251.906z    M586.609,244.458h25.612c4.267,0,7.449-0.023,9.542-0.067c2.094-0.042,4.421-0.282,6.991-0.718   c2.569-0.434,4.817-1.044,6.73-1.829c5.923-2.613,10.278-6.62,13.072-12.021c2.786-5.404,4.178-11.068,4.178-16.991   c0-2.352-0.264-4.769-0.784-7.252c-0.52-2.484-1.393-5.184-2.609-8.101c-1.225-2.92-3.12-5.644-5.686-8.169   c-2.574-2.527-5.642-4.486-9.216-5.881c-3.834-1.481-11.235-2.22-22.218-2.22h-25.612V244.458z M586.609,262.753v66.91h29.535   c4.442,0,7.756-0.04,9.934-0.127c2.173-0.089,4.681-0.353,7.51-0.785c2.831-0.436,5.343-1.132,7.52-2.089   c6.355-2.877,10.931-7.166,13.715-12.874c2.791-5.707,4.188-11.564,4.188-17.577c0-2.874-0.326-5.73-0.982-8.559   c-0.652-2.834-1.653-5.708-3.001-8.625c-1.357-2.917-3.332-5.598-5.95-8.039c-2.613-2.438-5.708-4.354-9.282-5.75   c-2.001-0.782-4.329-1.373-6.991-1.765c-2.658-0.391-5.006-0.608-7.052-0.653c-2.054-0.044-5.253-0.066-9.607-0.066H586.609z"
       id="path10"
       style="filter:url(#filter852)" /><path
       fill="#5A5B5B"
       d="M730.358,221.457c4.707-5.664,9.714-9.909,15.029-12.742c5.315-2.832,11.415-4.247,18.299-4.247   c3.571,0,7.583,0.479,12.025,1.437l-2.875,17.253c-4.972-0.787-8.885-1.18-11.766-1.18c-6.622,0-12.369,1.569-17.252,4.705   c-4.874,3.139-8.405,7.363-10.582,12.679c-1.917,4.617-2.878,12.806-2.878,24.567v84.029h-19.599V206.56h19.599V221.457z"
       id="path12"
       style="filter:url(#filter900)" /><path
       fill="#5A5B5B"
       d="M884.179,262.885v85.073h-19.604v-15.025c-9.936,11.411-21.914,17.118-35.939,17.118   c-13.25,0-24.064-4.205-32.475-12.609c-8.408-8.41-12.613-18.886-12.613-31.43c0-9.41,2.68-17.753,8.039-25.03   c5.359-7.272,12.914-12.392,22.672-15.354c2.873-0.873,6.055-1.525,9.547-1.959c3.482-0.436,6.531-0.677,9.141-0.718   c2.619-0.046,6.576-0.066,11.893-0.066h19.736c0-6.884-0.107-11.849-0.328-14.9c-0.219-3.047-0.801-5.834-1.762-8.362   c-2.178-5.838-5.836-10.237-10.982-13.199c-5.141-2.963-11.021-4.444-17.639-4.444c-9.672,0-21.131,3.18-34.371,9.54l-7.447-16.204   c15.855-7.23,29.795-10.847,41.818-10.847c11.582,0,21.736,2.788,30.445,8.363s14.643,13.546,17.779,23.915   C883.483,241.366,884.179,250.077,884.179,262.885z M803.151,306.012c0,7.488,2.461,13.786,7.389,18.881   c4.918,5.1,11.82,7.647,20.713,7.647c7.141,0,13.496-1.745,19.076-5.227c5.572-3.487,9.494-8.758,11.76-15.814   c0.785-2.529,1.373-5.448,1.771-8.758c0.387-3.31,0.607-6.422,0.652-9.344c0.035-2.918,0.062-7.686,0.062-14.307h-18.953   c-12.543,0-20.82,0.608-24.822,1.829c-5.668,1.741-10.023,4.857-13.072,9.344C804.677,294.751,803.151,300,803.151,306.012z"
       id="path14"
       style="filter:url(#filter888)" /><path
       fill="#5A5B5B"
       d="M921.095,163.891c2.311-2.309,5.246-3.463,8.824-3.463c3.57,0,6.516,1.154,8.816,3.463   c2.309,2.308,3.463,5.25,3.463,8.82c0,3.573-1.154,6.515-3.463,8.821c-2.301,2.31-5.246,3.464-8.816,3.464   c-3.578,0-6.514-1.155-8.824-3.464c-2.309-2.307-3.463-5.249-3.463-8.821C917.632,169.141,918.786,166.199,921.095,163.891z    M939.722,347.958h-19.605V206.56h19.605V347.958z"
       id="path16"
       style="filter:url(#filter876)" /><path
       fill="#5A5B5B"
       d="M1032.499,204.469c9.678,0,18.449,2.548,26.338,7.645c7.881,5.097,13.654,12.219,17.312,21.367   c1.314,3.136,2.268,6.708,2.883,10.714c0.609,4.009,0.953,7.387,1.039,10.131c0.088,2.742,0.133,6.729,0.133,11.958v81.675h-19.604   V267.59c0-8.278-0.178-14.27-0.521-17.972c-0.352-3.7-1.303-7.253-2.873-10.651c-2.441-5.401-6.215-9.582-11.309-12.544   c-5.096-2.963-10.869-4.444-17.312-4.444c-6.451,0-12.219,1.481-17.312,4.444c-5.104,2.962-8.869,7.143-11.311,12.544   c-1.568,3.398-2.529,6.951-2.873,10.651c-0.344,3.702-0.52,9.694-0.52,17.972v80.368h-19.604V206.56h19.604v14.897   C1006.847,210.13,1018.827,204.469,1032.499,204.469z"
       id="path18"
       style="filter:url(#filter912)" /><path
       fill="#EE7F23"
       d="M1226.831,283.926v18.296h-15.68v45.736h-20.391v-45.736h-79.191v-13.201l54.104-126.11h20.514   l-52.008,121.015h56.582v-45.742h20.391v45.742H1226.831z"
       id="path20"
       style="filter:url(#filter864)" /><path
       fill="#5A5B5B"
       d="M1261.13,163.891c2.311-2.309,5.256-3.463,8.824-3.463c3.57,0,6.516,1.154,8.824,3.463   c2.309,2.308,3.463,5.25,3.463,8.82c0,3.573-1.154,6.515-3.463,8.821c-2.309,2.31-5.254,3.464-8.824,3.464   c-3.568,0-6.514-1.155-8.824-3.464c-2.301-2.307-3.453-5.249-3.453-8.821C1257.677,169.141,1258.829,166.199,1261.13,163.891z    M1279.757,347.958h-19.605V206.56h19.605V347.958z"
       id="path22"
       style="filter:url(#filter924)" /><path
       fill="#5A5B5B"
       d="M1320.923,308.362v-85.598h-19.605V206.56h19.605v-30.582h19.604v30.582h26.137v16.204h-26.137v85.598   c0,9.409,0.389,15.073,1.172,16.99c2.012,4.792,5.758,7.188,11.24,7.188c4.363,0,9.326-1.397,14.906-4.182l7.572,16.201   c-8.189,3.662-16.123,5.492-23.783,5.492c-7.406,0-13.654-1.784-18.75-5.359c-5.096-3.57-8.611-8.669-10.523-15.289   C1321.397,326.093,1320.923,319.081,1320.923,308.362z"
       id="path24"
       style="filter:url(#filter936)" /></g></svg>