<?xml version="1.0" encoding="UTF-8" standalone="no"?>
<svg
   xmlns:dc="http://purl.org/dc/elements/1.1/"
   xmlns:cc="http://creativecommons.org/ns#"
   xmlns:rdf="http://www.w3.org/1999/02/22-rdf-syntax-ns#"
   xmlns:svg="http://www.w3.org/2000/svg"
   xmlns="http://www.w3.org/2000/svg"
   xmlns:sodipodi="http://sodipodi.sourceforge.net/DTD/sodipodi-0.dtd"
   xmlns:inkscape="http://www.inkscape.org/namespaces/inkscape"
   height="20"
   id="Layer_1"
   version="1.1"
   viewBox="0 0 20 20"
   width="20"
   xml:space="preserve"
   sodipodi:docname="cancel.svg"
   inkscape:version="0.92.2 (5c3e80d, 2017-08-06)"
   inkscape:export-filename="/Users/realor/Desktop/up.png"
   inkscape:export-xdpi="97"
   inkscape:export-ydpi="97"><metadata
     id="metadata11"><rdf:RDF><cc:Work
         rdf:about=""><dc:format>image/svg+xml</dc:format><dc:type
           rdf:resource="http://purl.org/dc/dcmitype/StillImage" /><dc:title></dc:title></cc:Work></rdf:RDF></metadata><defs
     id="defs9" /><sodipodi:namedview
     pagecolor="#ffffff"
     bordercolor="#666666"
     borderopacity="1"
     objecttolerance="10"
     gridtolerance="10"
     guidetolerance="10"
     inkscape:pageopacity="0"
     inkscape:pageshadow="2"
     inkscape:window-width="1352"
     inkscape:window-height="656"
     id="namedview7"
     showgrid="true"
     inkscape:zoom="20.85965"
     inkscape:cx="11.011809"
     inkscape:cy="9.8498648"
     inkscape:window-x="0"
     inkscape:window-y="0"
     inkscape:window-maximized="0"
     inkscape:current-layer="Layer_1"
     inkscape:snap-global="true"><inkscape:grid
       type="xygrid"
       id="grid816" /></sodipodi:namedview><path
     style="opacity:1;fill:#666666;fill-opacity:1;fill-rule:nonzero;stroke:none;stroke-width:9.58214188;stroke-linecap:round;stroke-linejoin:round;stroke-miterlimit:4;stroke-dasharray:none;stroke-opacity:1"
     d="M 9.9863281,2.0039062 C 5.5760867,2.0032375 2.00041,5.5780397 2,9.9882812 1.9993313,14.399285 5.575324,17.975278 9.9863281,17.974609 14.396569,17.974199 17.971372,14.398522 17.970703,9.9882812 17.970293,5.5788025 14.395807,2.0043162 9.9863281,2.0039062 Z m 0.03711,1.0019532 c 3.839636,0 6.955078,3.1135586 6.955078,6.953125 0,3.8395666 -3.115442,6.9531246 -6.955078,6.9531246 -3.8396375,0 -6.9531255,-3.113558 -6.9531255,-6.9531246 0,-3.8395664 3.113488,-6.953125 6.9531255,-6.953125 z"
     id="path816"
     inkscape:connector-curvature="0"
     sodipodi:nodetypes="cccccsssss" /><g
     id="g4"
     transform="matrix(0.87091062,0,0,0.87089485,1.3148635,-427.21532)" /><path
     style="color:#000000;font-style:normal;font-variant:normal;font-weight:normal;font-stretch:normal;font-size:medium;line-height:normal;font-family:sans-serif;font-variant-ligatures:normal;font-variant-position:normal;font-variant-caps:normal;font-variant-numeric:normal;font-variant-alternates:normal;font-feature-settings:normal;text-indent:0;text-align:start;text-decoration:none;text-decoration-line:none;text-decoration-style:solid;text-decoration-color:#000000;letter-spacing:normal;word-spacing:normal;text-transform:none;writing-mode:lr-tb;direction:ltr;text-orientation:mixed;dominant-baseline:auto;baseline-shift:baseline;text-anchor:start;white-space:normal;shape-padding:0;clip-rule:nonzero;display:inline;overflow:visible;visibility:visible;opacity:1;isolation:auto;mix-blend-mode:normal;color-interpolation:sRGB;color-interpolation-filters:linearRGB;solid-color:#000000;solid-opacity:1;vector-effect:none;fill:#666666;fill-opacity:1;fill-rule:nonzero;stroke:none;stroke-width:1px;stroke-linecap:round;stroke-linejoin:miter;stroke-miterlimit:4;stroke-dasharray:none;stroke-dashoffset:0;stroke-opacity:1;color-rendering:auto;image-rendering:auto;shape-rendering:auto;text-rendering:auto;enable-background:accumulate"
     d="M 6.9941406 6.4941406 A 0.50005 0.50005 0 0 0 6.6464844 7.3535156 L 9.2929688 10 L 6.6464844 12.646484 A 0.50005 0.50005 0 1 0 7.3535156 13.353516 L 10 10.707031 L 12.646484 13.353516 A 0.50005 0.50005 0 1 0 13.353516 12.646484 L 10.707031 10 L 13.353516 7.3535156 A 0.50005 0.50005 0 0 0 12.990234 6.4960938 A 0.50005 0.50005 0 0 0 12.646484 6.6464844 L 10 9.2929688 L 7.3535156 6.6464844 A 0.50005 0.50005 0 0 0 6.9941406 6.4941406 z "
     id="path819" /></svg>