<?xml version="1.0" encoding="UTF-8" standalone="no"?>
<svg
   xmlns:dc="http://purl.org/dc/elements/1.1/"
   xmlns:cc="http://creativecommons.org/ns#"
   xmlns:rdf="http://www.w3.org/1999/02/22-rdf-syntax-ns#"
   xmlns:svg="http://www.w3.org/2000/svg"
   xmlns="http://www.w3.org/2000/svg"
   xmlns:sodipodi="http://sodipodi.sourceforge.net/DTD/sodipodi-0.dtd"
   xmlns:inkscape="http://www.inkscape.org/namespaces/inkscape"
   enable-background="new 0 0 512 512"
   height="20"
   version="1.1"
   viewBox="0 0 20 20"
   width="20"
   xml:space="preserve"
   id="svg5"
   sodipodi:docname="clear.svg"
   inkscape:version="0.92.2 (5c3e80d, 2017-08-06)"><metadata
     id="metadata11"><rdf:RDF><cc:Work
         rdf:about=""><dc:format>image/svg+xml</dc:format><dc:type
           rdf:resource="http://purl.org/dc/dcmitype/StillImage" /><dc:title /></cc:Work></rdf:RDF></metadata><defs
     id="defs9" /><sodipodi:namedview
     pagecolor="#ffffff"
     bordercolor="#666666"
     borderopacity="1"
     objecttolerance="10"
     gridtolerance="10"
     guidetolerance="10"
     inkscape:pageopacity="0"
     inkscape:pageshadow="2"
     inkscape:window-width="1177"
     inkscape:window-height="613"
     id="namedview7"
     showgrid="true"
     showguides="false"
     inkscape:zoom="14.75"
     inkscape:cx="10.301515"
     inkscape:cy="9.6818774"
     inkscape:window-x="0"
     inkscape:window-y="0"
     inkscape:window-maximized="0"
     inkscape:current-layer="Layer_22"
     inkscape:snap-global="false"><inkscape:grid
       type="xygrid"
       id="grid818" /></sodipodi:namedview><g
     id="Layer_22"
     transform="translate(0,-492)"><path
       style="fill:#666666;stroke-width:0.06525595"
       d="m 4.0785754,492.77563 c -0.8013059,0.0443 -1.2629843,0.9302 -0.8402449,1.61236 l 2.4868364,4.19916 c -0.7172845,0.40547 -1.3872769,0.8041 -2.1750993,1.24902 -0.4010274,0.22584 -0.5483499,0.74344 -0.3282529,1.15611 l 0.7349561,1.37907 0.1176757,-0.0661 0.2126417,0.40258 c 0.1304364,0.24659 0.4021247,0.37072 0.6977956,0.35508 0.1455532,2.38014 0.4947594,5.32311 0.6399899,7.70259 0.8706112,0.0772 1.9939244,-0.10282 3.0072572,-0.27801 -0.6382947,-2.67538 -1.2177204,-5.4929 -1.8974997,-8.17364 l 0.2688392,-0.1499 c 0.7612055,2.70338 1.5469535,5.48624 2.2684112,8.18889 1.0038774,-0.2096 2.2707894,-0.84422 3.2497134,-1.31781 -1.506123,-2.67728 -2.7362334,-5.12777 -4.2036134,-7.61132 l 0.3167787,-0.17181 c 1.6563727,2.54837 2.9373567,4.91805 4.5141997,7.56429 1.109425,-0.58534 1.758569,-1.0947 2.638889,-1.93833 -1.77821,-2.20092 -3.977191,-4.14496 -5.733397,-6.37641 l 0.246933,-0.17387 c 1.787079,2.1524 4.10893,3.90958 5.916788,6.02821 0.915055,-0.93505 1.667322,-2.00059 2.165343,-2.979 C 16.532116,501.9881 13.858984,500.4022 12,499 c 0.09805,-0.21545 0.10594,-0.45042 0,-0.6503 l -0.214707,-0.40258 0.109417,-0.0598 -0.73702,-1.37908 c -0.219711,-0.41137 -0.721864,-0.56316 -1.123079,-0.33858 -0.8725531,0.49357 -1.6475401,0.93101 -2.4360909,1.37701 L 5.0509473,493.3021 c -0.1804571,-0.31175 -0.5072387,-0.51016 -0.8670832,-0.52645 -0.035074,-0.002 -0.070214,-0.002 -0.1052883,0 z m 7.4858176,5.29746 0.214706,0.40258 c 0.141755,0.26661 3.22e-4,0.62945 -0.315866,0.80721 l -6.123258,3.45802 c -0.3158025,0.17836 -0.6875216,0.10714 -0.8299225,-0.15898 l -0.2147063,-0.4005 z"
       id="path2"
       inkscape:connector-curvature="0"
       sodipodi:nodetypes="ccccccccccccccccccccccccccccccccccccccccc" /></g></svg>