<?xml version="1.0" encoding="UTF-8" standalone="no"?>
<svg
   xmlns:dc="http://purl.org/dc/elements/1.1/"
   xmlns:cc="http://creativecommons.org/ns#"
   xmlns:rdf="http://www.w3.org/1999/02/22-rdf-syntax-ns#"
   xmlns:svg="http://www.w3.org/2000/svg"
   xmlns="http://www.w3.org/2000/svg"
   xmlns:sodipodi="http://sodipodi.sourceforge.net/DTD/sodipodi-0.dtd"
   xmlns:inkscape="http://www.inkscape.org/namespaces/inkscape"
   height="20"
   id="Layer_1"
   version="1.1"
   viewBox="0 0 20 20"
   width="20"
   xml:space="preserve"
   sodipodi:docname="close.svg"
   inkscape:version="0.92.2 (5c3e80d, 2017-08-06)"><metadata
     id="metadata11"><rdf:RDF><cc:Work
         rdf:about=""><dc:format>image/svg+xml</dc:format><dc:type
           rdf:resource="http://purl.org/dc/dcmitype/StillImage" /><dc:title></dc:title></cc:Work></rdf:RDF></metadata><defs
     id="defs9" /><sodipodi:namedview
     pagecolor="#ffffff"
     bordercolor="#666666"
     borderopacity="1"
     objecttolerance="10"
     gridtolerance="10"
     guidetolerance="10"
     inkscape:pageopacity="0"
     inkscape:pageshadow="2"
     inkscape:window-width="1155"
     inkscape:window-height="582"
     id="namedview7"
     showgrid="true"
     inkscape:zoom="20.85965"
     inkscape:cx="11.539185"
     inkscape:cy="10.082506"
     inkscape:window-x="0"
     inkscape:window-y="0"
     inkscape:window-maximized="0"
     inkscape:current-layer="g4"><inkscape:grid
       type="xygrid"
       id="grid816" /></sodipodi:namedview><g
     id="g4"
     transform="translate(0,-492)"><path
       d="m 10,494 c -4.4087612,0 -7.9835284,3.57477 -7.9835284,7.98353 0,4.40876 3.5747672,7.98353 7.9835284,7.98353 4.408761,0 7.983528,-3.57477 7.983528,-7.98353 C 17.983528,497.57477 14.408761,494 10,494 Z m 3.859893,10.67441 c 0.05346,0.0535 0.08198,0.12474 0.08198,0.19958 0,0.0749 -0.02851,0.1497 -0.08198,0.1996 l -0.769841,0.7734 c -0.05703,0.0571 -0.128306,0.082 -0.199587,0.082 -0.07128,0 -0.146127,-0.0285 -0.199588,-0.082 L 10,503.15255 l -2.6873132,2.698 c -0.053461,0.0571 -0.1283068,0.082 -0.1995883,0.082 -0.071281,0 -0.1461267,-0.0285 -0.1995876,-0.082 l -0.7698402,-0.77341 c -0.053461,-0.0535 -0.081975,-0.12474 -0.081975,-0.19958 0,-0.0749 0.028514,-0.14969 0.081975,-0.19959 l 2.6980043,-2.7087 -2.7051328,-2.67305 c -0.1104862,-0.11048 -0.1104862,-0.29226 0,-0.40274 l 0.7698402,-0.7734 c 0.053461,-0.0535 0.1247425,-0.082 0.1995883,-0.082 0.074846,0 0.1461274,0.0285 0.1995884,0.082 l 2.6980049,2.66236 2.698005,-2.66236 c 0.05346,-0.0535 0.124742,-0.082 0.199589,-0.082 0.07485,0 0.146126,0.0285 0.199587,0.082 l 0.76984,0.7734 c 0.110487,0.11048 0.110487,0.29226 0,0.40274 l -2.705132,2.67305 z"
       id="path2"
       style="fill:#666666;stroke-width:0.03564075"
       inkscape:connector-curvature="0" /></g></svg>