<?xml version="1.0" encoding="UTF-8" standalone="no"?>
<svg
   xmlns:dc="http://purl.org/dc/elements/1.1/"
   xmlns:cc="http://creativecommons.org/ns#"
   xmlns:rdf="http://www.w3.org/1999/02/22-rdf-syntax-ns#"
   xmlns:svg="http://www.w3.org/2000/svg"
   xmlns="http://www.w3.org/2000/svg"
   xmlns:sodipodi="http://sodipodi.sourceforge.net/DTD/sodipodi-0.dtd"
   xmlns:inkscape="http://www.inkscape.org/namespaces/inkscape"
   enable-background="new 0 0 48 48"
   height="20"
   version="1.1"
   viewBox="0 0 20 20"
   width="20"
   xml:space="preserve"
   id="svg61"
   sodipodi:docname="dashboard.svg"
   inkscape:version="0.92.2 (5c3e80d, 2017-08-06)"><metadata
     id="metadata67"><rdf:RDF><cc:Work
         rdf:about=""><dc:format>image/svg+xml</dc:format><dc:type
           rdf:resource="http://purl.org/dc/dcmitype/StillImage" /><dc:title></dc:title></cc:Work></rdf:RDF></metadata><defs
     id="defs65" /><sodipodi:namedview
     pagecolor="#ffffff"
     bordercolor="#666666"
     borderopacity="1"
     objecttolerance="10"
     gridtolerance="10"
     guidetolerance="10"
     inkscape:pageopacity="0"
     inkscape:pageshadow="2"
     inkscape:window-width="1366"
     inkscape:window-height="705"
     id="namedview63"
     showgrid="true"
     fit-margin-top="3"
     fit-margin-left="3"
     fit-margin-right="3"
     fit-margin-bottom="3"
     inkscape:zoom="19.666666"
     inkscape:cx="11.749456"
     inkscape:cy="8.6911224"
     inkscape:window-x="-8"
     inkscape:window-y="-8"
     inkscape:window-maximized="1"
     inkscape:current-layer="g58"><inkscape:grid
       type="xygrid"
       id="grid838" /></sodipodi:namedview><g
     id="Expanded"
     transform="translate(3.4257813,-31.425781)"><g
       id="g58"><g
         id="g4"
         style="fill:#666666"
         transform="matrix(0.36172145,0,0,0.36172145,-2.119832,32.715545)"><path
           sodipodi:type="inkscape:offset"
           inkscape:radius="1.0322491"
           inkscape:original="M 24 0 C 10.767 0 0 10.767 0 24 C 0 37.233 10.767 48 24 48 C 37.233 48 48 37.233 48 24 C 48 10.767 37.233 0 24 0 z M 24 2 C 36.131 2 46 11.869 46 24 C 46 36.131 36.131 46 24 46 C 11.869 46 2 36.131 2 24 C 2 11.869 11.869 2 24 2 z "
           id="path2"
           d="M 24,-1.0332031 C 10.207075,-1.0332031 -1.0332031,10.207075 -1.0332031,24 -1.0332031,37.792925 10.207075,49.033203 24,49.033203 37.792925,49.033203 49.033203,37.792925 49.033203,24 49.033203,10.207075 37.792925,-1.0332031 24,-1.0332031 Z m 0,4.0664062 C 35.571152,3.0332031 44.966797,12.428848 44.966797,24 44.966797,35.571152 35.571152,44.966797 24,44.966797 12.428848,44.966797 3.0332031,35.571152 3.0332031,24 3.0332031,12.428848 12.428848,3.0332031 24,3.0332031 Z"
           style="fill:#666666" /></g><g
         id="g8"
         style="fill:#666666" /><g
         id="g16"
         style="fill:#666666"
         transform="matrix(0.36172145,0,0,0.36172145,-2.119832,32.715545)"><path
           d="M 9,25 H 5 C 4.448,25 4,24.553 4,24 4,23.447 4.448,23 5,23 h 4 c 0.552,0 1,0.447 1,1 0,0.553 -0.448,1 -1,1 z"
           id="path14"
           inkscape:connector-curvature="0"
           style="fill:#666666" /></g><g
         id="g20"
         style="fill:#666666"
         transform="matrix(0.36172145,0,0,0.36172145,-2.119832,32.715545)"><path
           d="m 6.447,32.271 c -0.393,0 -0.765,-0.232 -0.924,-0.617 -0.211,-0.511 0.031,-1.096 0.542,-1.307 l 3.696,-1.53 c 0.509,-0.213 1.095,0.03 1.306,0.541 0.211,0.511 -0.031,1.096 -0.542,1.307 l -3.696,1.53 c -0.125,0.051 -0.255,0.076 -0.382,0.076 z"
           id="path18"
           inkscape:connector-curvature="0"
           style="fill:#666666" /></g><g
         id="g24"
         style="fill:#666666"
         transform="matrix(0.36172145,0,0,0.36172145,-2.119832,32.715545)"><path
           d="m 41.552,32.271 c -0.127,0 -0.257,-0.024 -0.382,-0.076 l -3.695,-1.531 c -0.51,-0.212 -0.752,-0.797 -0.541,-1.307 0.211,-0.511 0.797,-0.754 1.307,-0.541 l 3.695,1.531 c 0.51,0.212 0.752,0.797 0.541,1.307 -0.161,0.385 -0.533,0.617 -0.925,0.617 z"
           id="path22"
           inkscape:connector-curvature="0"
           style="fill:#666666" /></g><g
         id="g28"
         style="fill:#666666"
         transform="matrix(0.36172145,0,0,0.36172145,-2.119832,32.715545)"><path
           d="m 42.999,25.001 v 0 l -4,-0.001 c -0.552,0 -1,-0.448 -1,-1 0,-0.553 0.448,-1 1,-1 v 0 l 4,0.001 c 0.553,0 1,0.448 1,1 0,0.553 -0.448,1 -1,1 z"
           id="path26"
           inkscape:connector-curvature="0"
           style="fill:#666666" /></g><g
         id="g32"
         style="fill:#666666"
         transform="matrix(0.36172145,0,0,0.36172145,-2.119832,32.715545)"><path
           d="m 37.858,19.26 c -0.393,0 -0.765,-0.232 -0.924,-0.617 -0.211,-0.511 0.031,-1.096 0.542,-1.307 l 3.695,-1.529 c 0.509,-0.211 1.095,0.031 1.306,0.541 0.211,0.511 -0.031,1.096 -0.542,1.307 l -3.695,1.529 c -0.125,0.051 -0.254,0.076 -0.382,0.076 z"
           id="path30"
           inkscape:connector-curvature="0"
           style="fill:#666666" /></g><g
         id="g36"
         style="fill:#666666"
         transform="matrix(0.36172145,0,0,0.36172145,-2.119832,32.715545)"><path
           d="m 29.74,11.142 c -0.127,0 -0.257,-0.024 -0.382,-0.076 -0.51,-0.212 -0.752,-0.797 -0.541,-1.307 l 1.531,-3.694 c 0.211,-0.51 0.796,-0.752 1.307,-0.541 0.51,0.212 0.752,0.797 0.541,1.307 l -1.531,3.694 c -0.161,0.384 -0.533,0.617 -0.925,0.617 z"
           id="path34"
           inkscape:connector-curvature="0"
           style="fill:#666666" /></g><g
         id="g40"
         style="fill:#666666"
         transform="matrix(0.36172145,0,0,0.36172145,-2.119832,32.715545)"><path
           d="m 24,10 v 0 C 23.447,10 23,9.552 23,9 l 0.001,-3.999 c 0,-0.553 0.448,-1 1,-1 v 0 c 0.553,0 1,0.448 1,1 L 25,9 c 0,0.553 -0.448,1 -1,1 z"
           id="path38"
           inkscape:connector-curvature="0"
           style="fill:#666666" /></g><g
         id="g44"
         style="fill:#666666"
         transform="matrix(0.36172145,0,0,0.36172145,-2.119832,32.715545)"><path
           d="m 18.26,11.142 c -0.393,0 -0.765,-0.232 -0.924,-0.617 L 15.807,6.83 c -0.211,-0.511 0.031,-1.096 0.542,-1.307 0.51,-0.212 1.096,0.031 1.306,0.541 l 1.529,3.695 c 0.211,0.511 -0.031,1.096 -0.542,1.307 -0.125,0.051 -0.254,0.076 -0.382,0.076 z"
           id="path42"
           inkscape:connector-curvature="0"
           style="fill:#666666" /></g><g
         id="g48"
         style="fill:#666666"
         transform="matrix(0.36172145,0,0,0.36172145,-2.119832,32.715545)"><path
           d="m 13.394,14.394 c -0.256,0 -0.512,-0.098 -0.708,-0.293 L 9.859,11.272 c -0.39,-0.391 -0.39,-1.024 0,-1.414 0.391,-0.391 1.024,-0.391 1.415,0 l 2.827,2.829 c 0.39,0.391 0.39,1.024 0,1.414 -0.196,0.195 -0.452,0.293 -0.707,0.293 z"
           id="path46"
           inkscape:connector-curvature="0"
           style="fill:#666666" /></g><g
         id="g52"
         style="fill:#666666"
         transform="matrix(0.36172145,0,0,0.36172145,-2.119832,32.715545)"><path
           d="m 10.142,19.26 c -0.127,0 -0.257,-0.024 -0.383,-0.076 L 6.064,17.652 C 5.554,17.44 5.312,16.855 5.523,16.345 5.734,15.835 6.318,15.592 6.83,15.804 l 3.695,1.532 c 0.51,0.212 0.752,0.797 0.541,1.307 -0.16,0.384 -0.532,0.617 -0.924,0.617 z"
           id="path50"
           inkscape:connector-curvature="0"
           style="fill:#666666" /></g><path
         id="path896"
         style="fill:#4d4d4d;stroke:#646464;stroke-width:1.013888;stroke-linecap:round;stroke-linejoin:miter;stroke-miterlimit:4;stroke-dasharray:none;stroke-opacity:1"
         d="m 7.7141312,40.39135 3.1619558,-3.161954 m -4.3146044,5.614349 c -0.7979574,0 -1.4468857,-0.648929 -1.4468857,-1.446886 0,-0.797957 0.6489283,-1.446885 1.4468857,-1.446885 0.7979575,0 1.4468858,0.648928 1.4468858,1.446885 0,0.797957 -0.6489283,1.446886 -1.4468858,1.446886 z m 0,-2.170329 c -0.3989789,0 -0.7234428,0.324464 -0.7234428,0.723443 0,0.39898 0.3244639,0.723442 0.7234428,0.723442 0.3989788,0 0.7234429,-0.324462 0.7234429,-0.723442 0,-0.398979 -0.3244641,-0.723443 -0.7234429,-0.723443 z"
         inkscape:connector-curvature="0" /><rect
         style="fill:none;fill-opacity:1;stroke:#646464;stroke-width:0.36172146;stroke-linecap:round;stroke-miterlimit:4;stroke-dasharray:none;stroke-opacity:1"
         id="rect898"
         width="5.9592075"
         height="1.3978388"
         x="3.4830425"
         y="45.063866" /></g></g></svg>