<?xml version="1.0" encoding="UTF-8" standalone="no"?>
<svg
   xmlns:dc="http://purl.org/dc/elements/1.1/"
   xmlns:cc="http://creativecommons.org/ns#"
   xmlns:rdf="http://www.w3.org/1999/02/22-rdf-syntax-ns#"
   xmlns:svg="http://www.w3.org/2000/svg"
   xmlns="http://www.w3.org/2000/svg"
   xmlns:sodipodi="http://sodipodi.sourceforge.net/DTD/sodipodi-0.dtd"
   xmlns:inkscape="http://www.inkscape.org/namespaces/inkscape"
   height="20"
   id="Layer_1"
   version="1.1"
   viewBox="0 0 20 20"
   width="20"
   xml:space="preserve"
   sodipodi:docname="down.svg"
   inkscape:version="0.92.2 5c3e80d, 2017-08-06"
   inkscape:export-filename="/Users/realor/Desktop/down.png"
   inkscape:export-xdpi="97"
   inkscape:export-ydpi="97"><metadata
     id="metadata11"><rdf:RDF><cc:Work
         rdf:about=""><dc:format>image/svg+xml</dc:format><dc:type
           rdf:resource="http://purl.org/dc/dcmitype/StillImage" /><dc:title></dc:title></cc:Work></rdf:RDF></metadata><defs
     id="defs9" /><sodipodi:namedview
     pagecolor="#ffffff"
     bordercolor="#666666"
     borderopacity="1"
     objecttolerance="10"
     gridtolerance="10"
     guidetolerance="10"
     inkscape:pageopacity="0"
     inkscape:pageshadow="2"
     inkscape:window-width="1155"
     inkscape:window-height="582"
     id="namedview7"
     showgrid="true"
     inkscape:zoom="20.85965"
     inkscape:cx="8.7118412"
     inkscape:cy="9.8498648"
     inkscape:window-x="0"
     inkscape:window-y="0"
     inkscape:window-maximized="0"
     inkscape:current-layer="Layer_1"
     inkscape:snap-global="true"><inkscape:grid
       type="xygrid"
       id="grid816" /></sodipodi:namedview><path
     style="opacity:1;fill:#666666;fill-opacity:1;fill-rule:nonzero;stroke:none;stroke-width:9.58214188;stroke-linecap:round;stroke-linejoin:round;stroke-miterlimit:4;stroke-dasharray:none;stroke-opacity:1"
     d="M 9.9863281,17.974609 A 7.9851174,7.9851174 0 0 1 2,9.990234 7.9851174,7.9851174 0 0 1 9.9863281,2.0039062 7.9851174,7.9851174 0 0 1 17.970703,9.990234 7.9851174,7.9851174 0 0 1 9.9863281,17.974609 Z m 0.03711,-1.001953 c 3.839636,0 6.955078,-3.113559 6.955078,-6.953125 0,-3.8395668 -3.115442,-6.9531248 -6.955078,-6.9531248 -3.8396375,0 -6.9531255,3.113558 -6.9531255,6.9531248 0,3.839566 3.113488,6.953125 6.9531255,6.953125 z m 0.0059,-2.240235 C 9.9739914,14.733144 9.917724,14.728852 9.8632812,14.71875 9.6260758,14.678427 9.4160915,14.540428 9.2832031,14.339843 L 6.7949219,11.851562 C 6.2348395,11.30646 6.6207808,10.357631 7.4023438,10.357421 c 0.2351468,9e-6 0.461032,0.09513 0.625,0.263672 l 1.125,1.125 V 6.5214842 c -0.00658,-0.480325 0.3771012,-0.875306 0.8574222,-0.882813 0.490978,-0.00784 0.891488,0.391828 0.884765,0.882813 v 5.2246088 l 1.126953,-1.125 c 0.157741,-0.162343 0.371396,-0.256931 0.597657,-0.263672 0.794093,-0.02343 1.202467,0.940409 0.632812,1.494141 l -2.484375,2.486328 c -0.158292,0.24237 -0.427341,0.390168 -0.716797,0.394531 -0.0045,3.5e-5 -0.0091,3.5e-5 -0.01367,0 -0.0029,1.8e-5 -0.0049,1.8e-5 -0.0078,0 z"
     id="path816"
     inkscape:connector-curvature="0" /><g
     id="g4"
     transform="matrix(0.87091062,0,0,0.87089485,1.3148635,-427.21532)" /></svg>