<?xml version="1.0" encoding="UTF-8" standalone="no"?>
<!-- Created with Inkscape (http://www.inkscape.org/) -->

<svg
   xmlns:dc="http://purl.org/dc/elements/1.1/"
   xmlns:cc="http://creativecommons.org/ns#"
   xmlns:rdf="http://www.w3.org/1999/02/22-rdf-syntax-ns#"
   xmlns:svg="http://www.w3.org/2000/svg"
   xmlns="http://www.w3.org/2000/svg"
   xmlns:sodipodi="http://sodipodi.sourceforge.net/DTD/sodipodi-0.dtd"
   xmlns:inkscape="http://www.inkscape.org/namespaces/inkscape"
   width="20"
   height="20"
   viewBox="0 0 5.2916666 5.2916668"
   version="1.1"
   id="svg8"
   inkscape:version="0.92.2 5c3e80d, 2017-08-06"
   sodipodi:docname="editor.svg"
   inkscape:export-filename="/Users/realor/Desktop/editor.png"
   inkscape:export-xdpi="85"
   inkscape:export-ydpi="85">
  <defs
     id="defs2" />
  <sodipodi:namedview
     id="base"
     pagecolor="#ffffff"
     bordercolor="#666666"
     borderopacity="1.0"
     inkscape:pageopacity="0.0"
     inkscape:pageshadow="2"
     inkscape:zoom="11.2"
     inkscape:cx="11.730076"
     inkscape:cy="9.4247768"
     inkscape:document-units="mm"
     inkscape:current-layer="layer1"
     showgrid="true"
     units="px"
     inkscape:window-width="1366"
     inkscape:window-height="705"
     inkscape:window-x="-8"
     inkscape:window-y="-8"
     inkscape:window-maximized="1"
     inkscape:snap-global="false">
    <inkscape:grid
       type="xygrid"
       id="grid815" />
  </sodipodi:namedview>
  <metadata
     id="metadata5">
    <rdf:RDF>
      <cc:Work
         rdf:about="">
        <dc:format>image/svg+xml</dc:format>
        <dc:type
           rdf:resource="http://purl.org/dc/dcmitype/StillImage" />
        <dc:title />
      </cc:Work>
    </rdf:RDF>
  </metadata>
  <g
     inkscape:label="Layer 1"
     inkscape:groupmode="layer"
     id="layer1"
     transform="translate(0,-291.70832)">
    <rect
       style="fill:none;fill-opacity:1;stroke:#666666;stroke-width:0.28;stroke-linecap:round;stroke-linejoin:round;stroke-miterlimit:4;stroke-dasharray:none;stroke-opacity:1"
       id="rect821"
       width="4.4775586"
       height="4.4893651"
       x="0.40705383"
       y="292.11539"
       ry="0.84175485" />
    <g
       aria-label="(...)"
       style="font-style:normal;font-variant:normal;font-weight:normal;font-stretch:normal;font-size:2.82222223px;line-height:1.25;font-family:Gidole;-inkscape-font-specification:Gidole;letter-spacing:0px;word-spacing:0px;fill:#666666;fill-opacity:1;stroke:none;stroke-width:0.26458332"
       id="text825">
      <path
         sodipodi:type="inkscape:offset"
         inkscape:radius="0.06686186"
         inkscape:original="M 1.7148438 292.9668 C 1.508138 293.13492 1.3673828 293.35283 1.2929688 293.62109 C 1.2461154 293.79381 1.2226562 294.02518 1.2226562 294.31641 C 1.2226562 294.61131 1.2461154 294.84463 1.2929688 295.01367 C 1.3692202 295.28377 1.5099754 295.50169 1.7148438 295.66797 L 1.8183594 295.54688 C 1.6548322 295.39529 1.5430555 295.20865 1.4824219 294.98633 C 1.4374059 294.82004 1.4160156 294.59569 1.4160156 294.31641 C 1.4160156 294.03712 1.4374059 293.81472 1.4824219 293.64844 C 1.5430559 293.42611 1.6548325 293.23947 1.8183594 293.08789 L 1.7148438 292.9668 z "
         style="fill:#666666;stroke-width:0.26458332"
         id="path829"
         d="m 1.7050781,292.90039 a 0.06686855,0.06686855 0 0 0 -0.033203,0.0137 c -0.21712,0.17659 -0.3656333,0.40926 -0.4433594,0.68946 -0.049327,0.18183 -0.072266,0.41807 -0.072266,0.71289 0,0.29844 0.022717,0.53607 0.072266,0.71484 0.079542,0.28176 0.2279321,0.5146 0.4433594,0.68945 a 0.06686855,0.06686855 0 0 0 0.09375,-0.01 l 0.1035156,-0.1211 a 0.06686855,0.06686855 0 0 0 -0.00586,-0.0918 c -0.1546011,-0.14332 -0.2587617,-0.31794 -0.3164062,-0.5293 -0.042448,-0.15681 -0.064453,-0.37648 -0.064453,-0.65234 0,-0.27588 0.021971,-0.49347 0.064453,-0.65039 0.057645,-0.21137 0.1618069,-0.386 0.3164062,-0.5293 a 0.06686855,0.06686855 0 0 0 0.00586,-0.0918 L 1.765625,292.92383 a 0.06686855,0.06686855 0 0 0 -0.060547,-0.0234 z"
         transform="translate(-0.08516305,-0.00489609)" />
      <path
         sodipodi:type="inkscape:offset"
         inkscape:radius="0.062328402"
         inkscape:original="M 3.5859375 292.96289 L 3.4824219 293.08398 C 3.6459491 293.23556 3.7577257 293.4222 3.8183594 293.64453 C 3.8633754 293.81081 3.8867188 294.03321 3.8867188 294.3125 C 3.8867188 294.59178 3.8633754 294.81418 3.8183594 294.98047 C 3.757726 295.20279 3.6459494 295.38943 3.4824219 295.54102 L 3.5859375 295.66211 C 3.7908058 295.49583 3.931561 295.27791 4.0078125 295.00781 C 4.0546658 294.8351 4.078125 294.60373 4.078125 294.3125 C 4.078125 294.02127 4.0546658 293.7899 4.0078125 293.61719 C 3.931561 293.34709 3.7908058 293.12917 3.5859375 292.96289 z "
         style="fill:#666666;stroke-width:0.26458332"
         id="path837"
         d="m 3.578125,292.90039 a 0.06233463,0.06233463 0 0 0 -0.039063,0.0215 l -0.1035156,0.12109 a 0.06233463,0.06233463 0 0 0 0.00391,0.0859 c 0.1552049,0.14386 0.260512,0.31913 0.3183594,0.53125 0.042773,0.15799 0.066406,0.37652 0.066406,0.65234 0,0.27581 -0.023633,0.49434 -0.066406,0.65234 -0.057847,0.21211 -0.1631527,0.38738 -0.3183594,0.53125 a 0.06233463,0.06233463 0 0 0 -0.00391,0.0859 l 0.1035156,0.12109 a 0.06233463,0.06233463 0 0 0 0.085937,0.008 c 0.2147112,-0.17427 0.3640406,-0.40458 0.4433594,-0.68555 a 0.06233463,0.06233463 0 0 0 0,-0.002 c 0.04916,-0.18121 0.072266,-0.41636 0.072266,-0.71094 0,-0.29458 -0.023106,-0.52973 -0.072266,-0.71094 a 0.06233463,0.06233463 0 0 0 0,-0.002 C 3.9890406,293.31864 3.8397112,293.08833 3.625,292.91406 a 0.06233463,0.06233463 0 0 0 -0.046875,-0.0137 z"
         transform="translate(0.08352173)" />
      <g
         aria-label="..."
         style="font-style:normal;font-variant:normal;font-weight:normal;font-stretch:normal;font-size:2.82222223px;line-height:1.25;font-family:Gidole;-inkscape-font-specification:Gidole;letter-spacing:0px;word-spacing:0px;fill:#666666;fill-opacity:1;stroke:none;stroke-width:0.07000434"
         id="text854">
        <path
           sodipodi:type="inkscape:offset"
           inkscape:radius="0.060807746"
           inkscape:original="M 2.0214844 294.2207 C 1.9764683 294.2207 1.9386356 294.23521 1.9101562 294.26367 C 1.8825956 294.29125 1.8691406 294.32805 1.8691406 294.37305 C 1.8691406 294.41807 1.8825956 294.45396 1.9101562 294.48242 C 1.9386357 294.50996 1.9764684 294.52539 2.0214844 294.52539 C 2.0665004 294.52539 2.1013456 294.50996 2.1289062 294.48242 C 2.1573856 294.45393 2.171875 294.41805 2.171875 294.37305 C 2.171875 294.32807 2.1573856 294.29127 2.1289062 294.26367 C 2.1013456 294.23521 2.0665004 294.2207 2.0214844 294.2207 z "
           style="fill:#666666;stroke-width:0.07000434"
           id="path856"
           d="m 2.0214844,294.16016 c -0.058083,0 -0.1140811,0.0204 -0.1542969,0.0605 -0.039683,0.0397 -0.058594,0.0952 -0.058594,0.15235 0,0.0571 0.020141,0.11263 0.058594,0.15234 0.039666,0.0384 0.095386,0.0605 0.1542969,0.0605 0.058911,0 0.1127356,-0.0229 0.1503906,-0.0605 0.039236,-0.0393 0.060547,-0.0943 0.060547,-0.15234 0,-0.058 -0.020071,-0.11312 -0.060547,-0.15235 -0.038194,-0.0394 -0.092308,-0.0605 -0.1503906,-0.0605 z"
           transform="translate(-0.03340869)" />
        <path
           d="m 2.0214844,294.16016 c -0.058083,0 -0.1140811,0.0204 -0.1542969,0.0605 -0.039683,0.0397 -0.058594,0.0952 -0.058594,0.15235 0,0.0571 0.020141,0.11263 0.058594,0.15234 0.039666,0.0384 0.095386,0.0605 0.1542969,0.0605 0.058911,0 0.1127356,-0.0229 0.1503906,-0.0605 0.039236,-0.0393 0.060547,-0.0943 0.060547,-0.15234 0,-0.058 -0.020071,-0.11312 -0.060547,-0.15235 -0.038194,-0.0394 -0.092308,-0.0605 -0.1503906,-0.0605 z"
           id="path825"
           style="fill:#666666;stroke-width:0.07000434"
           inkscape:original="M 2.0214844 294.2207 C 1.9764683 294.2207 1.9386356 294.23521 1.9101562 294.26367 C 1.8825956 294.29125 1.8691406 294.32805 1.8691406 294.37305 C 1.8691406 294.41807 1.8825956 294.45396 1.9101562 294.48242 C 1.9386357 294.50996 1.9764684 294.52539 2.0214844 294.52539 C 2.0665004 294.52539 2.1013456 294.50996 2.1289062 294.48242 C 2.1573856 294.45393 2.171875 294.41805 2.171875 294.37305 C 2.171875 294.32807 2.1573856 294.29127 2.1289062 294.26367 C 2.1013456 294.23521 2.0665004 294.2207 2.0214844 294.2207 z "
           inkscape:radius="0.060807746"
           sodipodi:type="inkscape:offset"
           transform="translate(0.62885924,-0.01425805)" />
        <path
           transform="translate(1.2945868)"
           sodipodi:type="inkscape:offset"
           inkscape:radius="0.060807746"
           inkscape:original="M 2.0214844 294.2207 C 1.9764683 294.2207 1.9386356 294.23521 1.9101562 294.26367 C 1.8825956 294.29125 1.8691406 294.32805 1.8691406 294.37305 C 1.8691406 294.41807 1.8825956 294.45396 1.9101562 294.48242 C 1.9386357 294.50996 1.9764684 294.52539 2.0214844 294.52539 C 2.0665004 294.52539 2.1013456 294.50996 2.1289062 294.48242 C 2.1573856 294.45393 2.171875 294.41805 2.171875 294.37305 C 2.171875 294.32807 2.1573856 294.29127 2.1289062 294.26367 C 2.1013456 294.23521 2.0665004 294.2207 2.0214844 294.2207 z "
           style="fill:#666666;stroke-width:0.07000434"
           id="path827"
           d="m 2.0214844,294.16016 c -0.058083,0 -0.1140811,0.0204 -0.1542969,0.0605 -0.039683,0.0397 -0.058594,0.0952 -0.058594,0.15235 0,0.0571 0.020141,0.11263 0.058594,0.15234 0.039666,0.0384 0.095386,0.0605 0.1542969,0.0605 0.058911,0 0.1127356,-0.0229 0.1503906,-0.0605 0.039236,-0.0393 0.060547,-0.0943 0.060547,-0.15234 0,-0.058 -0.020071,-0.11312 -0.060547,-0.15235 -0.038194,-0.0394 -0.092308,-0.0605 -0.1503906,-0.0605 z" />
      </g>
    </g>
  </g>
</svg>
