<?xml version="1.0" encoding="UTF-8" standalone="no"?>
<svg
   xmlns:dc="http://purl.org/dc/elements/1.1/"
   xmlns:cc="http://creativecommons.org/ns#"
   xmlns:rdf="http://www.w3.org/1999/02/22-rdf-syntax-ns#"
   xmlns:svg="http://www.w3.org/2000/svg"
   xmlns="http://www.w3.org/2000/svg"
   xmlns:sodipodi="http://sodipodi.sourceforge.net/DTD/sodipodi-0.dtd"
   xmlns:inkscape="http://www.inkscape.org/namespaces/inkscape"
   height="20"
   viewBox="0 0 20 20"
   width="20"
   version="1.1"
   id="svg4"
   sodipodi:docname="folder.svg"
   inkscape:version="0.92.2 5c3e80d, 2017-08-06"
   inkscape:export-filename="/Users/realor/Desktop/folder.png"
   inkscape:export-xdpi="94"
   inkscape:export-ydpi="94">
  <metadata
     id="metadata10">
    <rdf:RDF>
      <cc:Work
         rdf:about="">
        <dc:format>image/svg+xml</dc:format>
        <dc:type
           rdf:resource="http://purl.org/dc/dcmitype/StillImage" />
        <dc:title></dc:title>
      </cc:Work>
    </rdf:RDF>
  </metadata>
  <defs
     id="defs8" />
  <sodipodi:namedview
     pagecolor="#ffffff"
     bordercolor="#666666"
     borderopacity="1"
     objecttolerance="10"
     gridtolerance="10"
     guidetolerance="10"
     inkscape:pageopacity="0"
     inkscape:pageshadow="2"
     inkscape:window-width="640"
     inkscape:window-height="480"
     id="namedview6"
     showgrid="true"
     inkscape:snap-global="false"
     inkscape:zoom="24.748737"
     inkscape:cx="9.2638218"
     inkscape:cy="9.7885389"
     inkscape:current-layer="svg4">
    <inkscape:grid
       type="xygrid"
       id="grid817" />
  </sodipodi:namedview>
  <path
     transform="matrix(1.0251947,0,0,1.004144,-0.31888074,-0.24232252)"
     style="fill:#666666;stroke-width:0.00934373"
     d="m 3.2558594,3.2050781 c -0.5630273,0 -1.0430265,0.2012288 -1.4472656,0.6054688 C 1.4043538,4.2147861 1.203125,4.6947853 1.203125,5.2578125 v 8.9707035 c 0,0.563028 0.2012288,1.043027 0.6054688,1.447265 0.4041922,0.404193 0.884143,0.603516 1.4472656,0.603516 H 13.421875 c 0.41016,0 0.840783,-0.105579 1.291016,-0.318359 0.450157,-0.212746 0.80505,-0.482098 1.068359,-0.806641 l 2.755859,-3.390625 v -0.002 c 0.281322,-0.355172 0.421875,-0.71837 0.421875,-1.09375 0,-0.218366 -0.04581,-0.423251 -0.136718,-0.617188 C 18.688718,9.7715446 18.48786,9.5587986 18.214844,9.4101562 17.940776,9.2609399 17.63866,9.1855469 17.308594,9.1855469 h -1.792969 c -0.01092,5.62e-5 -0.02143,-0.00415 -0.0293,-0.011719 -0.0022,-0.00175 -0.0041,-0.00372 -0.0059,-0.00586 -0.0042,-0.00706 -0.0063,-0.015216 -0.0059,-0.023438 V 7.3284758 c 0,-0.5630281 -0.20123,-1.0430264 -0.605468,-1.4472656 C 14.4649,5.4769709 13.984902,5.2757414 13.421875,5.2757414 H 8.3378906 c -0.010919,5.54e-5 -0.021429,-0.00415 -0.029297,-0.011719 -0.00214,-0.00176 -0.0041,-0.00372 -0.00586,-0.00586 -0.00421,-0.00707 -0.00625,-0.015219 -0.00586,-0.023437 V 4.9358977 C 8.296875,4.3727752 8.1369647,4.0940211 7.7327725,3.6898289 7.3285325,3.2855889 6.809121,3.2050781 6.2460938,3.2050781 Z m 0,1.1152344 h 2.9902344 c 0.2589632,0 0.5383622,-0.036042 0.7198009,0.1453967 0.1814377,0.1814385 0.2176991,0.2112248 0.2176991,0.4701885 V 5.533554 c 0,0.2393678 0.082716,0.4401369 0.25,0.6074218 0.1672841,0.1672826 0.3658816,0.2480469 0.6054687,0.2480469 h 5.3828125 c 0.258963,0 0.482623,0.091999 0.664063,0.2734375 0.181548,0.1815484 0.273437,0.4070507 0.273437,0.6660156 v 1.8160554 c 5.5e-5,0.010919 -0.0041,0.021429 -0.01172,0.029297 -0.0018,0.00214 -0.0037,0.00411 -0.0059,0.00586 -0.0071,0.00421 -0.01522,0.00625 -0.02344,0.00586 H 7.1425781 c -0.4164949,0 -0.8471723,0.1056832 -1.2910156,0.3183593 C 5.4076419,9.7166175 5.0529772,9.9875441 4.7832031,10.3125 l -2.390625,2.943359 c -0.013911,0.01706 -0.038638,0.02046 -0.056641,0.0078 -0.0058,-0.004 -0.010497,-0.0094 -0.013672,-0.01563 -0.00285,-0.0061 -0.00419,-0.0128 -0.00391,-0.01953 V 5.2578125 c 0,-0.2589633 0.091999,-0.4826239 0.2734375,-0.6640625 C 2.7732354,4.4123113 2.9968959,4.3203125 3.2558594,4.3203125 Z M 7.1425781,10.300781 H 17.308594 c 0.169653,0 0.301045,0.02656 0.394531,0.08789 0.09349,0.06133 0.142578,0.159644 0.142578,0.279297 0,0.120641 -0.06023,0.251353 -0.175781,0.392578 l -2.748047,3.390625 c -0.160523,0.198638 -0.389388,0.36702 -0.679687,0.505859 -0.290818,0.139086 -0.563512,0.208985 -0.820313,0.208985 H 3.2558594 c -0.1696525,0 -0.3010454,-0.02656 -0.3945313,-0.08789 C 2.7678423,15.016795 2.71875,14.918481 2.71875,14.798828 c 0,-0.115881 0.062982,-0.247387 0.1777344,-0.40039 -1.59e-5,-6.67e-4 -1.59e-5,-0.0013 0,-0.002 l 2.7460937,-3.390625 c 6.499e-4,-1.5e-5 0.0013,-1.5e-5 0.00195,0 0.1665504,-0.198579 0.393839,-0.36596 0.6816407,-0.501953 0.2878387,-0.136013 0.5599132,-0.203125 0.8164062,-0.203125 z"
     id="path2"
     inkscape:connector-curvature="0"
     sodipodi:nodetypes="scsscssccccsccsccccscscccccssssscsscsscsccccsccccccscscscscccssssccccccc" />
</svg>
