<?xml version="1.0" encoding="UTF-8" standalone="no"?>
<svg
   xmlns:dc="http://purl.org/dc/elements/1.1/"
   xmlns:cc="http://creativecommons.org/ns#"
   xmlns:rdf="http://www.w3.org/1999/02/22-rdf-syntax-ns#"
   xmlns:svg="http://www.w3.org/2000/svg"
   xmlns="http://www.w3.org/2000/svg"
   xmlns:sodipodi="http://sodipodi.sourceforge.net/DTD/sodipodi-0.dtd"
   xmlns:inkscape="http://www.inkscape.org/namespaces/inkscape"
   height="20"
   id="Layer_1"
   version="1.1"
   viewBox="0 0 20 20"
   width="20"
   xml:space="preserve"
   sodipodi:docname="functions.svg"
   inkscape:version="0.92.2 5c3e80d, 2017-08-06"
   inkscape:export-filename="/Users/realor/Desktop/functions.png"
   inkscape:export-xdpi="97.041763"
   inkscape:export-ydpi="97.041763"><metadata
     id="metadata11"><rdf:RDF><cc:Work
         rdf:about=""><dc:format>image/svg+xml</dc:format><dc:type
           rdf:resource="http://purl.org/dc/dcmitype/StillImage" /><dc:title /></cc:Work></rdf:RDF></metadata><defs
     id="defs9" /><sodipodi:namedview
     pagecolor="#ffffff"
     bordercolor="#666666"
     borderopacity="1"
     objecttolerance="10"
     gridtolerance="10"
     guidetolerance="10"
     inkscape:pageopacity="0"
     inkscape:pageshadow="2"
     inkscape:window-width="1155"
     inkscape:window-height="582"
     id="namedview7"
     showgrid="true"
     inkscape:zoom="20.85965"
     inkscape:cx="3.5182025"
     inkscape:cy="11.344097"
     inkscape:window-x="0"
     inkscape:window-y="0"
     inkscape:window-maximized="0"
     inkscape:current-layer="text816"
     inkscape:snap-global="false"><inkscape:grid
       type="xygrid"
       id="grid816" /></sodipodi:namedview><g
     id="g4"
     transform="translate(0,-492)"><g
       aria-label="f(x)"
       transform="scale(1.0021167,0.99788775)"
       style="font-style:normal;font-variant:normal;font-weight:normal;font-stretch:normal;font-size:13.9860096px;line-height:1.25;font-family:Gidole;-inkscape-font-specification:Gidole;letter-spacing:0px;word-spacing:0px;fill:#000000;fill-opacity:1;stroke:none;stroke-width:1.31118834"
       id="text816"><g
         aria-label="(x)"
         transform="matrix(0.99788777,0,0,1.0021167,-0.19135273,-1.0088593)"
         style="font-style:normal;font-variant:normal;font-weight:normal;font-stretch:normal;font-size:8px;line-height:125%;font-family:Arial;-inkscape-font-specification:Arial;letter-spacing:0px;word-spacing:0px;fill:#666666;fill-opacity:1;stroke:none;stroke-width:1px;stroke-linecap:butt;stroke-linejoin:miter;stroke-opacity:1"
         id="text828"><path
           transform="translate(0.23728814,0.06779661)"
           style="font-style:normal;font-variant:normal;font-weight:normal;font-stretch:normal;font-size:10.66666698px;font-family:Gidole;-inkscape-font-specification:Gidole;fill:#666666;fill-opacity:1"
           d="m 9.2910156,498.05469 a 0.23730749,0.23730749 0 0 0 -0.140625,0.0527 c -0.8182426,0.6655 -1.3788967,1.53758 -1.671875,2.59375 -0.1859165,0.68534 -0.2734374,1.57994 -0.2734375,2.69336 0,1.12715 0.086856,2.0202 0.2734375,2.69336 a 0.23730749,0.23730749 0 0 0 0,0.002 c 0.2998463,1.06211 0.8600702,1.93288 1.671875,2.5918 a 0.23730749,0.23730749 0 0 0 0.3300782,-0.0273 l 0.3964843,-0.45703 a 0.23730749,0.23730749 0 0 0 -0.017578,-0.33008 c -0.5862925,-0.54348 -0.9865707,-1.20857 -1.2050781,-2.00977 -0.1613138,-0.59587 -0.2460938,-1.41989 -0.2460938,-2.46289 0,-1.04301 0.08478,-1.86702 0.2460938,-2.46289 0.2185072,-0.80119 0.6187856,-1.46629 1.2050781,-2.00976 a 0.23730749,0.23730749 0 0 0 0.017578,-0.33008 l -0.3964843,-0.45703 a 0.23730749,0.23730749 0 0 0 -0.1894532,-0.0801 z"
           id="path833" /><path
           transform="translate(0.23728814,0.06779661)"
           style="font-style:normal;font-variant:normal;font-weight:normal;font-stretch:normal;font-size:10.66666698px;font-family:Gidole;-inkscape-font-specification:Gidole;fill:#666666;fill-opacity:1"
           d="m 10.423828,500.34961 a 0.227421,0.227421 0 0 0 -0.171875,0.3418 l 1.572266,2.68164 -1.597657,2.72461 a 0.227421,0.227421 0 0 0 0.195313,0.34179 h 0.878906 A 0.227421,0.227421 0 0 0 11.5,506.32422 l 1.03125,-1.83789 1.029297,1.83789 a 0.227421,0.227421 0 0 0 0.199219,0.11523 h 0.880859 a 0.227421,0.227421 0 0 0 0.195313,-0.34179 l -1.59961,-2.72461 1.572266,-2.68164 a 0.227421,0.227421 0 0 0 -0.195313,-0.3418 h -0.878906 a 0.227421,0.227421 0 0 0 -0.199219,0.11523 l -1.003906,1.79688 -1.003906,-1.79688 a 0.227421,0.227421 0 0 0 -0.199219,-0.11523 h -0.880859 a 0.227421,0.227421 0 0 0 -0.02344,0 z"
           id="path835" /><path
           transform="matrix(-1,0,0,1,25.208296,0.0338983)"
           style="font-style:normal;font-variant:normal;font-weight:normal;font-stretch:normal;font-size:10.66666698px;font-family:Gidole;-inkscape-font-specification:Gidole;fill:#666666;fill-opacity:1"
           d="m 9.2910156,498.05469 a 0.23730749,0.23730749 0 0 0 -0.140625,0.0527 c -0.8182426,0.6655 -1.3788967,1.53758 -1.671875,2.59375 -0.1859165,0.68534 -0.2734374,1.57994 -0.2734375,2.69336 0,1.12715 0.086856,2.0202 0.2734375,2.69336 a 0.23730749,0.23730749 0 0 0 0,0.002 c 0.2998463,1.06211 0.8600702,1.93288 1.671875,2.5918 a 0.23730749,0.23730749 0 0 0 0.3300782,-0.0273 l 0.3964843,-0.45703 a 0.23730749,0.23730749 0 0 0 -0.017578,-0.33008 c -0.5862925,-0.54348 -0.9865707,-1.20857 -1.2050781,-2.00977 -0.1613138,-0.59587 -0.2460938,-1.41989 -0.2460938,-2.46289 0,-1.04301 0.08478,-1.86702 0.2460938,-2.46289 0.2185072,-0.80119 0.6187856,-1.46629 1.2050781,-2.00976 a 0.23730749,0.23730749 0 0 0 0.017578,-0.33008 l -0.3964843,-0.45703 a 0.23730749,0.23730749 0 0 0 -0.1894532,-0.0801 z"
           id="path844" /></g><text
         xml:space="preserve"
         style="font-style:normal;font-variant:normal;font-weight:normal;font-stretch:normal;font-size:8px;line-height:125%;font-family:Gidole;-inkscape-font-specification:Gidole;letter-spacing:0px;word-spacing:0px;fill:#000000;fill-opacity:1;stroke:none;stroke-width:1px;stroke-linecap:butt;stroke-linejoin:miter;stroke-opacity:1;"
         x="1.5340621"
         y="504.09"
         id="text863"
         transform="scale(0.99788777,1.0021167)"><tspan
           sodipodi:role="line"
           id="tspan861"
           x="1.5340621"
           y="511.29602" /></text>
<g
         aria-label="f"
         transform="scale(0.99788777,1.0021167)"
         style="font-style:normal;font-variant:normal;font-weight:normal;font-stretch:normal;font-size:8px;line-height:125%;font-family:Arial;-inkscape-font-specification:Arial;letter-spacing:0px;word-spacing:0px;fill:#666666;fill-opacity:1;stroke:none;stroke-width:1px;stroke-linecap:butt;stroke-linejoin:miter;stroke-opacity:1"
         id="text867"><path
           d="m 2.806559,498.0596 c 0,-0.37804 0.00564,-0.66016 0.016927,-0.84635 0.011285,-0.1862 0.050781,-0.40625 0.1184896,-0.66016 0.073351,-0.25391 0.1833768,-0.48524 0.3300782,-0.69401 0.4344618,-0.61502 1.0833333,-0.92253 1.9466146,-0.92253 0.3328993,0 0.7278646,0.048 1.1848959,0.14388 l -0.2285156,1.11719 c -0.3780383,-0.0846 -0.6968317,-0.12695 -0.9563803,-0.12695 -0.3949653,0 -0.6883681,0.13542 -0.8802084,0.40625 -0.1184895,0.16927 -0.1918402,0.36111 -0.220052,0.57552 -0.028212,0.21441 -0.042318,0.55013 -0.042318,1.00716 v 0.94773 h 1.6927084 v 1.04948 H 4.0760903 v 7.67662 H 2.806559 v -7.67662 H 1.6072334 v -1.04948 H 2.806559 Z"
           style="font-style:normal;font-variant:normal;font-weight:normal;font-stretch:normal;font-size:17.33333397px;font-family:Gidole;-inkscape-font-specification:Gidole;fill:#666666;fill-opacity:1"
           id="path869"
           inkscape:connector-curvature="0"
           sodipodi:nodetypes="scccsccsccsccccccccccs" /></g></g></g></svg>