<?xml version="1.0" encoding="UTF-8" standalone="no"?>
<svg
   xmlns:dc="http://purl.org/dc/elements/1.1/"
   xmlns:cc="http://creativecommons.org/ns#"
   xmlns:rdf="http://www.w3.org/1999/02/22-rdf-syntax-ns#"
   xmlns:svg="http://www.w3.org/2000/svg"
   xmlns="http://www.w3.org/2000/svg"
   xmlns:sodipodi="http://sodipodi.sourceforge.net/DTD/sodipodi-0.dtd"
   xmlns:inkscape="http://www.inkscape.org/namespaces/inkscape"
   height="20"
   id="Layer_1"
   version="1.1"
   viewBox="0 0 20 20"
   width="20"
   xml:space="preserve"
   sodipodi:docname="help.svg"
   inkscape:version="0.92.2 5c3e80d, 2017-08-06"
   inkscape:export-filename="/Users/realor/Desktop/help.png"
   inkscape:export-xdpi="96"
   inkscape:export-ydpi="96"><metadata
     id="metadata11"><rdf:RDF><cc:Work
         rdf:about=""><dc:format>image/svg+xml</dc:format><dc:type
           rdf:resource="http://purl.org/dc/dcmitype/StillImage" /><dc:title /></cc:Work></rdf:RDF></metadata><defs
     id="defs9" /><sodipodi:namedview
     pagecolor="#ffffff"
     bordercolor="#666666"
     borderopacity="1"
     objecttolerance="10"
     gridtolerance="10"
     guidetolerance="10"
     inkscape:pageopacity="0"
     inkscape:pageshadow="2"
     inkscape:window-width="1155"
     inkscape:window-height="582"
     id="namedview7"
     showgrid="true"
     inkscape:zoom="20.85965"
     inkscape:cx="3.9952944"
     inkscape:cy="8.4798475"
     inkscape:window-x="0"
     inkscape:window-y="0"
     inkscape:window-maximized="0"
     inkscape:current-layer="text821"
     borderlayer="false"
     inkscape:showpageshadow="true"><inkscape:grid
       type="xygrid"
       id="grid816" /></sodipodi:namedview><g
     id="g4"
     transform="translate(0,-492)"><circle
       style="fill:none;fill-opacity:1;stroke:#666666;stroke-width:1.06711519;stroke-linecap:round;stroke-linejoin:round;stroke-miterlimit:4;stroke-dasharray:none;stroke-opacity:1"
       id="path814"
       cx="10.02397"
       cy="502.02399"
       r="7.4698062" /><g
       aria-label="?"
       style="font-style:normal;font-variant:normal;font-weight:normal;font-stretch:normal;font-size:8px;line-height:125%;font-family:Arial;-inkscape-font-specification:Arial;letter-spacing:0px;word-spacing:0px;fill:#666666;fill-opacity:1;stroke:none;stroke-width:1px;stroke-linecap:butt;stroke-linejoin:miter;stroke-opacity:1"
       id="text821"><path
         style="font-size:12px;fill:#666666;fill-opacity:1"
         d="m 9.9746094,497.72852 c -0.8148959,0 -1.4868198,0.22225 -1.9960938,0.66992 -6.5e-4,-10e-6 -0.0013,-10e-6 -0.00195,0 -0.505918,0.44833 -0.8059872,1.09386 -0.90625,1.91601 -0.00834,0.0675 0.039879,0.12885 0.1074219,0.13672 l 1.0839844,0.12891 c 0.064791,0.007 0.1240297,-0.0372 0.1347656,-0.10156 0.091098,-0.58075 0.280886,-0.99202 0.5546875,-1.24805 0.2785576,-0.26046 0.6173652,-0.38867 1.0410156,-0.38867 0.4373914,0 0.7926884,0.14178 1.0917964,0.43359 0.300783,0.28977 0.44336,0.61197 0.44336,0.99023 0,0.20686 -0.04744,0.39308 -0.146485,0.56641 -0.09486,0.16601 -0.32866,0.42189 -0.691406,0.74219 -0.364598,0.32153 -0.618421,0.56793 -0.7675779,0.74609 -0.1976094,0.23794 -0.3437426,0.47766 -0.4355469,0.71875 -0.1240909,0.3185 -0.1855468,0.69157 -0.1855469,1.11719 0,0.0726 0.00193,0.17911 0.00586,0.32031 0.00184,0.0666 0.056475,0.11945 0.1230469,0.11914 h 1.0136718 c 0.06732,2.9e-4 0.12226,-0.0538 0.123047,-0.12109 0.0077,-0.41729 0.03885,-0.71811 0.08399,-0.88477 0.04726,-0.17451 0.118725,-0.32531 0.214843,-0.45703 0.09228,-0.12645 0.315042,-0.35186 0.65625,-0.65429 0.517103,-0.45789 0.868408,-0.84868 1.056641,-1.1875 0.18576,-0.33438 0.279297,-0.70157 0.279297,-1.09571 0,-0.67993 -0.269719,-1.27155 -0.791016,-1.74804 -0.525212,-0.48008 -1.22973,-0.71875 -2.0917969,-0.71875 z m -0.00977,7.5954 c -0.2547008,0 -0.5116081,0.0741 -0.6855469,0.24805 -0.1739383,0.17394 -0.2480469,0.4328 -0.2480469,0.6875 0,0.2547 0.074109,0.51161 0.2480469,0.68555 0.1739388,0.17394 0.4308461,0.24805 0.6855469,0.24805 0.2547016,0 0.5135616,-0.0741 0.6875006,-0.24805 0.173938,-0.17394 0.248047,-0.43085 0.248047,-0.68555 0,-0.2547 -0.07411,-0.51356 -0.248047,-0.6875 -0.173939,-0.17394 -0.432799,-0.24805 -0.6875006,-0.24805 z"
         id="path823"
         inkscape:connector-curvature="0"
         sodipodi:nodetypes="scccccccscsccccsccccccccscssscscscscs" /></g></g></svg>