<?xml version="1.0" encoding="UTF-8" standalone="no"?>
<svg
   xmlns:dc="http://purl.org/dc/elements/1.1/"
   xmlns:cc="http://creativecommons.org/ns#"
   xmlns:rdf="http://www.w3.org/1999/02/22-rdf-syntax-ns#"
   xmlns:svg="http://www.w3.org/2000/svg"
   xmlns="http://www.w3.org/2000/svg"
   xmlns:sodipodi="http://sodipodi.sourceforge.net/DTD/sodipodi-0.dtd"
   xmlns:inkscape="http://www.inkscape.org/namespaces/inkscape"
   height="20"
   id="Layer_1"
   version="1.1"
   viewBox="0 0 20 20"
   width="20"
   xml:space="preserve"
   sodipodi:docname="item_back.svg"
   inkscape:version="0.92.2 (5c3e80d, 2017-08-06)"
   inkscape:export-filename="C:\Users\realor\Desktop\item_back.png"
   inkscape:export-xdpi="345"
   inkscape:export-ydpi="345"><metadata
     id="metadata9"><rdf:RDF><cc:Work
         rdf:about=""><dc:format>image/svg+xml</dc:format><dc:type
           rdf:resource="http://purl.org/dc/dcmitype/StillImage" /><dc:title></dc:title></cc:Work></rdf:RDF></metadata><defs
     id="defs7" /><sodipodi:namedview
     pagecolor="#ffffff"
     bordercolor="#666666"
     borderopacity="1"
     objecttolerance="10"
     gridtolerance="10"
     guidetolerance="10"
     inkscape:pageopacity="0"
     inkscape:pageshadow="2"
     inkscape:window-width="1324"
     inkscape:window-height="665"
     id="namedview5"
     showgrid="true"
     inkscape:zoom="14.75"
     inkscape:cx="-0.71118392"
     inkscape:cy="8.0784559"
     inkscape:window-x="0"
     inkscape:window-y="0"
     inkscape:window-maximized="0"
     inkscape:current-layer="Layer_1"><inkscape:grid
       type="xygrid"
       id="grid819" /></sodipodi:namedview><path
     d="M 15,9 6.6445895,8.9830508 9.1322818,6.4953585 C 9.3444356,6.2832047 9.4445895,6.0301278 9.4445895,5.7522816 c 0,-0.5298461 -0.4377693,-1.0769231 -1.0769231,-1.0769231 -0.2859231,0 -0.5352308,0.1039231 -0.7430769,0.3123077 L 3.3395125,9.2727431 C 3.1628972,9.4493585 2.983051,9.6674355 2.983051,10.059974 c 0,0.392539 0.1502308,0.581539 0.3478462,0.779154 l 4.2936923,4.293154 c 0.2078461,0.208385 0.4571538,0.312308 0.7430769,0.312308 0.6396923,0 1.0769231,-0.547077 1.0769231,-1.076924 0,-0.277846 -0.1001539,-0.530923 -0.3123077,-0.743077 L 6.6445895,11.136897 15,11.153847 c 0.594461,0.0012 1.076923,-0.482461 1.076923,-1.076923 C 16.076923,9.4824626 15.594461,9.0012068 15,9 Z"
     id="path2"
     inkscape:connector-curvature="0"
     style="stroke-width:0.53846157;fill:#ffffff;fill-opacity:1"
     sodipodi:nodetypes="scssscssccssscsss" /></svg>