<?xml version="1.0" encoding="UTF-8" standalone="no"?>
<svg
   xmlns:dc="http://purl.org/dc/elements/1.1/"
   xmlns:cc="http://creativecommons.org/ns#"
   xmlns:rdf="http://www.w3.org/1999/02/22-rdf-syntax-ns#"
   xmlns:svg="http://www.w3.org/2000/svg"
   xmlns="http://www.w3.org/2000/svg"
   xmlns:sodipodi="http://sodipodi.sourceforge.net/DTD/sodipodi-0.dtd"
   xmlns:inkscape="http://www.inkscape.org/namespaces/inkscape"
   enable-background="new 0 0 48 48"
   height="20"
   version="1.1"
   viewBox="0 0 20 20"
   width="20"
   xml:space="preserve"
   id="svg61"
   sodipodi:docname="item_dashboard.svg"
   inkscape:version="0.92.2 (5c3e80d, 2017-08-06)"
   inkscape:export-filename="/Users/realor/Desktop/item_dashboard.png"
   inkscape:export-xdpi="345"
   inkscape:export-ydpi="345"><metadata
     id="metadata67"><rdf:RDF><cc:Work
         rdf:about=""><dc:format>image/svg+xml</dc:format><dc:type
           rdf:resource="http://purl.org/dc/dcmitype/StillImage" /><dc:title></dc:title></cc:Work></rdf:RDF></metadata><defs
     id="defs65" /><sodipodi:namedview
     pagecolor="#ffffff"
     bordercolor="#666666"
     borderopacity="1"
     objecttolerance="10"
     gridtolerance="10"
     guidetolerance="10"
     inkscape:pageopacity="0"
     inkscape:pageshadow="2"
     inkscape:window-width="1366"
     inkscape:window-height="705"
     id="namedview63"
     showgrid="true"
     fit-margin-top="3"
     fit-margin-left="3"
     fit-margin-right="3"
     fit-margin-bottom="3"
     inkscape:zoom="27.812866"
     inkscape:cx="11.631834"
     inkscape:cy="10.365475"
     inkscape:window-x="-8"
     inkscape:window-y="-8"
     inkscape:window-maximized="1"
     inkscape:current-layer="g58"
     inkscape:snap-global="true"><inkscape:grid
       type="xygrid"
       id="grid838" /></sodipodi:namedview><g
     id="Expanded"
     transform="translate(3.4257813,-31.425781)"><g
       id="g58"><g
         id="g4"
         style="fill:#ffffff;fill-opacity:1"
         transform="matrix(0.36172145,0,0,0.36172145,-2.119832,32.715545)"><path
           style="fill:#ffffff;fill-opacity:1"
           d="M 24,-1.0332031 C 10.207075,-1.0332031 -1.0332031,10.207075 -1.0332031,24 -1.0332031,37.792925 10.207075,49.033203 24,49.033203 37.792925,49.033203 49.033203,37.792925 49.033203,24 49.033203,10.207075 37.792925,-1.0332031 24,-1.0332031 Z m 0,4.0664062 C 35.571152,3.0332031 44.966797,12.428848 44.966797,24 44.966797,35.571152 35.571152,44.966797 24,44.966797 12.428848,44.966797 3.0332031,35.571152 3.0332031,24 3.0332031,12.428848 12.428848,3.0332031 24,3.0332031 Z"
           id="path2" /></g><g
         id="g8"
         style="fill:#666666" /><g
         id="g16"
         style="fill:#ffffff;fill-opacity:1"
         transform="matrix(0.36172145,0,0,0.36172145,-2.119832,32.715545)"><path
           d="M 9,25 H 5 C 4.448,25 4,24.553 4,24 4,23.447 4.448,23 5,23 h 4 c 0.552,0 1,0.447 1,1 0,0.553 -0.448,1 -1,1 z"
           id="path14"
           inkscape:connector-curvature="0"
           style="fill:#ffffff;fill-opacity:1" /></g><g
         id="g20"
         style="fill:#ffffff;fill-opacity:1"
         transform="matrix(0.36172145,0,0,0.36172145,-2.119832,32.715545)"><path
           d="m 6.447,32.271 c -0.393,0 -0.765,-0.232 -0.924,-0.617 -0.211,-0.511 0.031,-1.096 0.542,-1.307 l 3.696,-1.53 c 0.509,-0.213 1.095,0.03 1.306,0.541 0.211,0.511 -0.031,1.096 -0.542,1.307 l -3.696,1.53 c -0.125,0.051 -0.255,0.076 -0.382,0.076 z"
           id="path18"
           inkscape:connector-curvature="0"
           style="fill:#ffffff;fill-opacity:1" /></g><g
         id="g24"
         style="fill:#ffffff;fill-opacity:1"
         transform="matrix(0.36172145,0,0,0.36172145,-2.119832,32.715545)"><path
           d="m 41.552,32.271 c -0.127,0 -0.257,-0.024 -0.382,-0.076 l -3.695,-1.531 c -0.51,-0.212 -0.752,-0.797 -0.541,-1.307 0.211,-0.511 0.797,-0.754 1.307,-0.541 l 3.695,1.531 c 0.51,0.212 0.752,0.797 0.541,1.307 -0.161,0.385 -0.533,0.617 -0.925,0.617 z"
           id="path22"
           inkscape:connector-curvature="0"
           style="fill:#ffffff;fill-opacity:1" /></g><g
         id="g28"
         style="fill:#ffffff;fill-opacity:1"
         transform="matrix(0.36172145,0,0,0.36172145,-2.119832,32.715545)"><path
           d="m 42.999,25.001 v 0 l -4,-0.001 c -0.552,0 -1,-0.448 -1,-1 0,-0.553 0.448,-1 1,-1 v 0 l 4,0.001 c 0.553,0 1,0.448 1,1 0,0.553 -0.448,1 -1,1 z"
           id="path26"
           inkscape:connector-curvature="0"
           style="fill:#ffffff;fill-opacity:1" /></g><g
         id="g32"
         style="fill:#ffffff;fill-opacity:1"
         transform="matrix(0.36172145,0,0,0.36172145,-2.119832,32.715545)"><path
           d="m 37.858,19.26 c -0.393,0 -0.765,-0.232 -0.924,-0.617 -0.211,-0.511 0.031,-1.096 0.542,-1.307 l 3.695,-1.529 c 0.509,-0.211 1.095,0.031 1.306,0.541 0.211,0.511 -0.031,1.096 -0.542,1.307 l -3.695,1.529 c -0.125,0.051 -0.254,0.076 -0.382,0.076 z"
           id="path30"
           inkscape:connector-curvature="0"
           style="fill:#ffffff;fill-opacity:1" /></g><g
         id="g36"
         style="fill:#ffffff;fill-opacity:1"
         transform="matrix(0.36172145,0,0,0.36172145,-2.119832,32.715545)"><path
           d="m 29.74,11.142 c -0.127,0 -0.257,-0.024 -0.382,-0.076 -0.51,-0.212 -0.752,-0.797 -0.541,-1.307 l 1.531,-3.694 c 0.211,-0.51 0.796,-0.752 1.307,-0.541 0.51,0.212 0.752,0.797 0.541,1.307 l -1.531,3.694 c -0.161,0.384 -0.533,0.617 -0.925,0.617 z"
           id="path34"
           inkscape:connector-curvature="0"
           style="fill:#ffffff;fill-opacity:1" /></g><g
         id="g40"
         style="fill:#ffffff;fill-opacity:1"
         transform="matrix(0.36172145,0,0,0.36172145,-2.119832,32.715545)"><path
           d="m 24,10 v 0 C 23.447,10 23,9.552 23,9 l 0.001,-3.999 c 0,-0.553 0.448,-1 1,-1 v 0 c 0.553,0 1,0.448 1,1 L 25,9 c 0,0.553 -0.448,1 -1,1 z"
           id="path38"
           inkscape:connector-curvature="0"
           style="fill:#ffffff;fill-opacity:1" /></g><g
         id="g44"
         style="fill:#ffffff;fill-opacity:1"
         transform="matrix(0.36172145,0,0,0.36172145,-2.119832,32.715545)"><path
           d="m 18.26,11.142 c -0.393,0 -0.765,-0.232 -0.924,-0.617 L 15.807,6.83 c -0.211,-0.511 0.031,-1.096 0.542,-1.307 0.51,-0.212 1.096,0.031 1.306,0.541 l 1.529,3.695 c 0.211,0.511 -0.031,1.096 -0.542,1.307 -0.125,0.051 -0.254,0.076 -0.382,0.076 z"
           id="path42"
           inkscape:connector-curvature="0"
           style="fill:#ffffff;fill-opacity:1" /></g><g
         id="g48"
         style="fill:#ffffff;fill-opacity:1"
         transform="matrix(0.36172145,0,0,0.36172145,-2.119832,32.715545)"><path
           d="m 13.394,14.394 c -0.256,0 -0.512,-0.098 -0.708,-0.293 L 9.859,11.272 c -0.39,-0.391 -0.39,-1.024 0,-1.414 0.391,-0.391 1.024,-0.391 1.415,0 l 2.827,2.829 c 0.39,0.391 0.39,1.024 0,1.414 -0.196,0.195 -0.452,0.293 -0.707,0.293 z"
           id="path46"
           inkscape:connector-curvature="0"
           style="fill:#ffffff;fill-opacity:1" /></g><g
         id="g52"
         style="fill:#ffffff;fill-opacity:1"
         transform="matrix(0.36172145,0,0,0.36172145,-2.119832,32.715545)"><path
           d="m 10.142,19.26 c -0.127,0 -0.257,-0.024 -0.383,-0.076 L 6.064,17.652 C 5.554,17.44 5.312,16.855 5.523,16.345 5.734,15.835 6.318,15.592 6.83,15.804 l 3.695,1.532 c 0.51,0.212 0.752,0.797 0.541,1.307 -0.16,0.384 -0.532,0.617 -0.924,0.617 z"
           id="path50"
           inkscape:connector-curvature="0"
           style="fill:#ffffff;fill-opacity:1" /></g><path
         style="color:#000000;font-style:normal;font-variant:normal;font-weight:normal;font-stretch:normal;font-size:medium;line-height:normal;font-family:sans-serif;font-variant-ligatures:normal;font-variant-position:normal;font-variant-caps:normal;font-variant-numeric:normal;font-variant-alternates:normal;font-feature-settings:normal;text-indent:0;text-align:start;text-decoration:none;text-decoration-line:none;text-decoration-style:solid;text-decoration-color:#000000;letter-spacing:normal;word-spacing:normal;text-transform:none;writing-mode:lr-tb;direction:ltr;text-orientation:mixed;dominant-baseline:auto;baseline-shift:baseline;text-anchor:start;white-space:normal;shape-padding:0;clip-rule:nonzero;display:inline;overflow:visible;visibility:visible;opacity:1;isolation:auto;mix-blend-mode:normal;color-interpolation:sRGB;color-interpolation-filters:linearRGB;solid-color:#000000;solid-opacity:1;vector-effect:none;fill:#ffffff;fill-opacity:1;fill-rule:nonzero;stroke:none;stroke-width:1.013888;stroke-linecap:round;stroke-linejoin:miter;stroke-miterlimit:4;stroke-dasharray:none;stroke-dashoffset:0;stroke-opacity:1;color-rendering:auto;image-rendering:auto;shape-rendering:auto;text-rendering:auto;enable-background:accumulate"
         d="M 13.990234 5.4960938 A 0.50005 0.50005 0 0 0 13.646484 5.6464844 L 10.988281 8.3046875 C 10.693741 8.1264689 10.353004 8.0175781 9.9863281 8.0175781 C 8.9135271 8.0175781 8.0332031 8.8979031 8.0332031 9.9707031 C 8.0332031 11.043504 8.9135267 11.925781 9.9863281 11.925781 C 11.05913 11.925781 11.941406 11.043504 11.941406 9.9707031 C 11.941406 9.6260087 11.842814 9.3055752 11.683594 9.0234375 L 14.353516 6.3535156 A 0.50005 0.50005 0 0 0 13.990234 5.4960938 z M 9.9863281 9.7539062 C 10.110463 9.7539062 10.203125 9.8465671 10.203125 9.9707031 C 10.203125 10.094841 10.110465 10.1875 9.9863281 10.1875 C 9.8621909 10.1875 9.7714844 10.09484 9.7714844 9.9707031 C 9.7714844 9.8465681 9.8621923 9.7539062 9.9863281 9.7539062 z "
         transform="translate(-3.4257813,31.425781)"
         id="path896" /><path
         style="color:#000000;font-style:normal;font-variant:normal;font-weight:normal;font-stretch:normal;font-size:medium;line-height:normal;font-family:sans-serif;font-variant-ligatures:normal;font-variant-position:normal;font-variant-caps:normal;font-variant-numeric:normal;font-variant-alternates:normal;font-feature-settings:normal;text-indent:0;text-align:start;text-decoration:none;text-decoration-line:none;text-decoration-style:solid;text-decoration-color:#000000;letter-spacing:normal;word-spacing:normal;text-transform:none;writing-mode:lr-tb;direction:ltr;text-orientation:mixed;dominant-baseline:auto;baseline-shift:baseline;text-anchor:start;white-space:normal;shape-padding:0;clip-rule:nonzero;display:inline;overflow:visible;visibility:visible;opacity:1;isolation:auto;mix-blend-mode:normal;color-interpolation:sRGB;color-interpolation-filters:linearRGB;solid-color:#000000;solid-opacity:1;vector-effect:none;fill:#ffffff;fill-opacity:1;fill-rule:nonzero;stroke:none;stroke-width:0.36172146;stroke-linecap:round;stroke-linejoin:miter;stroke-miterlimit:4;stroke-dasharray:none;stroke-dashoffset:0;stroke-opacity:1;color-rendering:auto;image-rendering:auto;shape-rendering:auto;text-rendering:auto;enable-background:accumulate"
         d="m 3.3027344,44.882812 v 0.181641 1.578125 h 6.3203125 v -1.759766 z m 0.3613281,0.361329 H 9.2617188 V 46.28125 H 3.6640625 Z"
         id="rect898"
         inkscape:connector-curvature="0" /></g></g></svg>