<?xml version="1.0" encoding="UTF-8" standalone="no"?>
<svg
   xmlns:dc="http://purl.org/dc/elements/1.1/"
   xmlns:cc="http://creativecommons.org/ns#"
   xmlns:rdf="http://www.w3.org/1999/02/22-rdf-syntax-ns#"
   xmlns:svg="http://www.w3.org/2000/svg"
   xmlns="http://www.w3.org/2000/svg"
   xmlns:sodipodi="http://sodipodi.sourceforge.net/DTD/sodipodi-0.dtd"
   xmlns:inkscape="http://www.inkscape.org/namespaces/inkscape"
   height="20"
   id="Layer_1"
   version="1.1"
   viewBox="0 0 20 20"
   width="20"
   xml:space="preserve"
   sodipodi:docname="item_add_server.svg"
   inkscape:version="0.92.2 (5c3e80d, 2017-08-06)"
   inkscape:export-filename="/Users/realor/Desktop/item_add_server.png"
   inkscape:export-xdpi="345.60001"
   inkscape:export-ydpi="345.60001"><metadata
     id="metadata11"><rdf:RDF><cc:Work
         rdf:about=""><dc:format>image/svg+xml</dc:format><dc:type
           rdf:resource="http://purl.org/dc/dcmitype/StillImage" /><dc:title></dc:title></cc:Work></rdf:RDF></metadata><defs
     id="defs9" /><sodipodi:namedview
     pagecolor="#ffffff"
     bordercolor="#666666"
     borderopacity="1"
     objecttolerance="10"
     gridtolerance="10"
     guidetolerance="10"
     inkscape:pageopacity="0"
     inkscape:pageshadow="2"
     inkscape:window-width="1354"
     inkscape:window-height="674"
     id="namedview7"
     showgrid="true"
     inkscape:zoom="14.75"
     inkscape:cx="15.39054"
     inkscape:cy="10.082506"
     inkscape:window-x="0"
     inkscape:window-y="0"
     inkscape:window-maximized="0"
     inkscape:current-layer="g4"
     inkscape:snap-global="false"><inkscape:grid
       type="xygrid"
       id="grid816" /></sodipodi:namedview><g
     id="g4"
     transform="translate(0,-492)"><path
       style="fill:#ffffff;fill-opacity:1;stroke:#666666;stroke-width:0;stroke-linecap:round;stroke-linejoin:round;stroke-miterlimit:4;stroke-dasharray:none;stroke-opacity:1"
       d="m 10.023375,494.1431 a 7.9492057,7.9252357 0 0 0 -7.948082,7.92411 7.9492057,7.9252357 0 0 0 7.948082,7.92619 7.9492057,7.9252357 0 0 0 7.95016,-7.92619 7.9492057,7.9252357 0 0 0 -7.95016,-7.92411 z m -0.041569,2.57988 a 1.0642847,1.0610755 0 0 1 1.080806,1.07548 v 3.18291 h 3.192535 a 1.0642847,1.0610755 0 1 1 0,2.12194 h -3.192535 v 3.18291 a 1.0642847,1.0610755 0 1 1 -2.1283563,0 v -3.18291 h -3.192536 a 1.0642847,1.0610755 0 1 1 0,-2.12194 h 3.1925349 v -3.18291 a 1.0642847,1.0610755 0 0 1 1.0475514,-1.07548 z"
       id="path814"
       inkscape:connector-curvature="0" /></g></svg>