<?xml version="1.0" encoding="UTF-8" standalone="no"?>
<svg
   xmlns:dc="http://purl.org/dc/elements/1.1/"
   xmlns:cc="http://creativecommons.org/ns#"
   xmlns:rdf="http://www.w3.org/1999/02/22-rdf-syntax-ns#"
   xmlns:svg="http://www.w3.org/2000/svg"
   xmlns="http://www.w3.org/2000/svg"
   xmlns:sodipodi="http://sodipodi.sourceforge.net/DTD/sodipodi-0.dtd"
   xmlns:inkscape="http://www.inkscape.org/namespaces/inkscape"
   height="20"
   id="Layer_1"
   version="1.1"
   viewBox="0 0 20 20"
   width="20"
   xml:space="preserve"
   sodipodi:docname="maximize.svg"
   inkscape:version="0.92.2 (5c3e80d, 2017-08-06)"><metadata
     id="metadata11"><rdf:RDF><cc:Work
         rdf:about=""><dc:format>image/svg+xml</dc:format><dc:type
           rdf:resource="http://purl.org/dc/dcmitype/StillImage" /><dc:title></dc:title></cc:Work></rdf:RDF></metadata><defs
     id="defs9" /><sodipodi:namedview
     pagecolor="#ffffff"
     bordercolor="#666666"
     borderopacity="1"
     objecttolerance="10"
     gridtolerance="10"
     guidetolerance="10"
     inkscape:pageopacity="0"
     inkscape:pageshadow="2"
     inkscape:window-width="1249"
     inkscape:window-height="644"
     id="namedview7"
     showgrid="true"
     inkscape:zoom="20.85965"
     inkscape:cx="10.423969"
     inkscape:cy="9.6430452"
     inkscape:window-x="0"
     inkscape:window-y="0"
     inkscape:window-maximized="0"
     inkscape:current-layer="Layer_1"><inkscape:grid
       type="xygrid"
       id="grid816" /></sodipodi:namedview><path
     style="color:#000000;font-style:normal;font-variant:normal;font-weight:normal;font-stretch:normal;font-size:medium;line-height:normal;font-family:sans-serif;font-variant-ligatures:normal;font-variant-position:normal;font-variant-caps:normal;font-variant-numeric:normal;font-variant-alternates:normal;font-feature-settings:normal;text-indent:0;text-align:start;text-decoration:none;text-decoration-line:none;text-decoration-style:solid;text-decoration-color:#000000;letter-spacing:normal;word-spacing:normal;text-transform:none;writing-mode:lr-tb;direction:ltr;text-orientation:mixed;dominant-baseline:auto;baseline-shift:baseline;text-anchor:start;white-space:normal;shape-padding:0;clip-rule:nonzero;display:inline;overflow:visible;visibility:visible;opacity:1;isolation:auto;mix-blend-mode:normal;color-interpolation:sRGB;color-interpolation-filters:linearRGB;solid-color:#000000;solid-opacity:1;vector-effect:none;fill:#666666;fill-opacity:1;fill-rule:nonzero;stroke:none;stroke-width:2;stroke-linecap:round;stroke-linejoin:miter;stroke-miterlimit:4;stroke-dasharray:none;stroke-dashoffset:0;stroke-opacity:1;color-rendering:auto;image-rendering:auto;shape-rendering:auto;text-rendering:auto;enable-background:accumulate"
     d="M 17.984375 0.98632812 C 17.93593 0.98737805 17.887626 0.99194738 17.839844 1 L 13 1 C 11.647677 0.9808748 11.647677 3.0191252 13 3 L 15.585938 3 L 11.208984 7.3769531 A 2.876667 2.876667 0 0 1 12.601562 8.8125 L 17 4.4140625 L 17 7 C 16.98088 8.3523227 19.019125 8.3523227 19 7 L 19 2.1679688 C 19.02068 2.0428352 19.017394 1.9149107 18.990234 1.7910156 C 18.990237 1.7897156 18.990237 1.7884194 18.990234 1.7871094 C 18.976904 1.7228384 18.957271 1.6600352 18.931641 1.5996094 C 18.931641 1.5996094 18.929688 1.5976562 18.929688 1.5976562 C 18.916808 1.5676763 18.902469 1.5383446 18.886719 1.5097656 C 18.886719 1.5097656 18.884766 1.5078125 18.884766 1.5078125 C 18.772601 1.3031692 18.592139 1.1442547 18.375 1.0585938 C 18.3737 1.0579398 18.372394 1.0572906 18.371094 1.0566406 C 18.341624 1.0454646 18.31164 1.0356888 18.28125 1.0273438 C 18.27995 1.0266898 18.278644 1.0260406 18.277344 1.0253906 C 18.246454 1.0167306 18.215174 1.0095593 18.183594 1.0039062 C 18.117944 0.99140515 18.051202 0.98551632 17.984375 0.98632812 z M 1.9902344 0.99023438 C 1.3828768 0.99036735 0.91584575 1.527407 1 2.1289062 L 1 7 C 0.98087479 8.3523227 3.0191252 8.3523227 3 7 L 3 4.4140625 L 7.359375 8.7734375 A 2.876667 2.876667 0 0 1 8.7753906 7.3613281 L 4.4140625 3 L 7 3 C 8.3523227 3.0191252 8.3523227 0.98087479 7 1 L 2.1171875 1 C 2.0751202 0.99405152 2.0327166 0.9907897 1.9902344 0.99023438 z M 12.585938 11.171875 A 2.876667 2.876667 0 0 1 11.169922 12.583984 L 15.585938 17 L 13 17 C 11.647677 16.98088 11.647677 19.019125 13 19 L 17.833984 19 C 17.851504 19.0024 17.869099 19.004359 17.886719 19.005859 C 17.893819 19.007259 17.901033 19.008566 17.908203 19.009766 C 17.941323 19.012766 17.974562 19.014072 18.007812 19.013672 C 18.010413 19.013682 18.013025 19.013682 18.015625 19.013672 C 18.020825 19.013713 18.02604 19.013713 18.03125 19.013672 C 18.586668 19.004072 19.027803 18.543603 19.013672 17.988281 C 19.013675 17.986981 19.013675 17.985675 19.013672 17.984375 C 19.013188 17.953055 19.011312 17.921765 19.007812 17.890625 C 19.007818 17.888625 19.007818 17.886766 19.007812 17.884766 C 19.005412 17.872346 19.0028 17.859976 19 17.847656 L 19 13 C 19.0078 12.43623 18.548129 11.977523 17.984375 11.986328 C 17.432859 11.994928 16.992447 12.448468 17 13 L 17 15.585938 L 12.585938 11.171875 z M 7.3769531 11.208984 L 3 15.585938 L 3 13 C 3.0077202 12.43623 2.548129 11.977523 1.984375 11.986328 C 1.4328588 11.994949 0.99244728 12.448468 1 13 L 1 17.847656 C 0.88575642 18.525802 1.4741981 19.114243 2.1523438 19 L 7 19 C 8.3523227 19.01912 8.3523227 16.980875 7 17 L 4.4140625 17 L 8.8105469 12.603516 A 2.876667 2.876667 0 0 1 7.3769531 11.208984 z "
     id="path865" /></svg>