<?xml version="1.0" encoding="UTF-8" standalone="no"?>
<svg
   xmlns:dc="http://purl.org/dc/elements/1.1/"
   xmlns:cc="http://creativecommons.org/ns#"
   xmlns:rdf="http://www.w3.org/1999/02/22-rdf-syntax-ns#"
   xmlns:svg="http://www.w3.org/2000/svg"
   xmlns="http://www.w3.org/2000/svg"
   xmlns:sodipodi="http://sodipodi.sourceforge.net/DTD/sodipodi-0.dtd"
   xmlns:inkscape="http://www.inkscape.org/namespaces/inkscape"
   height="20"
   id="Layer_1"
   version="1.1"
   viewBox="0 0 20 20"
   width="20"
   xml:space="preserve"
   sodipodi:docname="next.svg"
   inkscape:version="0.92.2 (5c3e80d, 2017-08-06)"
   inkscape:export-filename="/Users/realor/Desktop/up.png"
   inkscape:export-xdpi="97"
   inkscape:export-ydpi="97"><metadata
     id="metadata11"><rdf:RDF><cc:Work
         rdf:about=""><dc:format>image/svg+xml</dc:format><dc:type
           rdf:resource="http://purl.org/dc/dcmitype/StillImage" /><dc:title></dc:title></cc:Work></rdf:RDF></metadata><defs
     id="defs9" /><sodipodi:namedview
     pagecolor="#ffffff"
     bordercolor="#666666"
     borderopacity="1"
     objecttolerance="10"
     gridtolerance="10"
     guidetolerance="10"
     inkscape:pageopacity="0"
     inkscape:pageshadow="2"
     inkscape:window-width="1355"
     inkscape:window-height="637"
     id="namedview7"
     showgrid="true"
     inkscape:zoom="29.5"
     inkscape:cx="11.307692"
     inkscape:cy="9.8498648"
     inkscape:window-x="0"
     inkscape:window-y="0"
     inkscape:window-maximized="0"
     inkscape:current-layer="Layer_1"
     inkscape:snap-global="true"><inkscape:grid
       type="xygrid"
       id="grid816" /></sodipodi:namedview><path
     style="opacity:1;fill:#666666;fill-opacity:1;fill-rule:nonzero;stroke:none;stroke-width:9.58214188;stroke-linecap:round;stroke-linejoin:round;stroke-miterlimit:4;stroke-dasharray:none;stroke-opacity:1"
     d="M 17.970703,9.9902342 A 7.9851174,7.9851174 0 0 0 9.9863279,2.0039061 7.9851174,7.9851174 0 0 0 2.0000001,9.9902342 7.9851174,7.9851174 0 0 0 9.9863279,17.974609 7.9851174,7.9851174 0 0 0 17.970703,9.9902342 Z m -1.001953,0.03711 c 0,3.839636 -3.113559,6.955078 -6.953125,6.955078 -3.8395669,0 -6.9531249,-3.115442 -6.9531249,-6.955078 0,-3.8396374 3.113558,-6.9531254 6.9531249,-6.9531254 3.839566,0 6.953125,3.113488 6.953125,6.9531254 z m -2.240235,0.0059 c 7.23e-4,-0.055306 -0.0036,-0.1115729 -0.01367,-0.1660157 C 14.674521,9.6299819 14.536522,9.4199976 14.335937,9.2871092 L 11.847656,6.798828 c -0.545102,-0.5600824 -1.493932,-0.1741411 -1.494141,0.6074219 9e-6,0.2351468 0.09513,0.461032 0.263672,0.625 l 1.125,1.125 H 6.5175781 c -0.480325,-0.00658 -0.875306,0.3771012 -0.882813,0.8574221 -0.00784,0.490978 0.391828,0.891488 0.882813,0.884765 h 5.2246089 l -1.125,1.126953 c -0.162343,0.157741 -0.256931,0.371396 -0.263672,0.597657 -0.02343,0.794093 0.940409,1.202467 1.494141,0.632812 l 2.486328,-2.484375 c 0.24237,-0.158292 0.390168,-0.427341 0.394531,-0.716797 3.5e-5,-0.0045 3.5e-5,-0.0091 0,-0.01367 1.8e-5,-0.0029 1.8e-5,-0.0049 0,-0.0078 z"
     id="path816"
     inkscape:connector-curvature="0" /><g
     id="g4"
     transform="matrix(0.87091062,0,0,0.87089485,1.3148635,-427.21532)" /></svg>