<?xml version="1.0" encoding="UTF-8" standalone="no"?>
<svg
   xmlns:dc="http://purl.org/dc/elements/1.1/"
   xmlns:cc="http://creativecommons.org/ns#"
   xmlns:rdf="http://www.w3.org/1999/02/22-rdf-syntax-ns#"
   xmlns:svg="http://www.w3.org/2000/svg"
   xmlns="http://www.w3.org/2000/svg"
   xmlns:sodipodi="http://sodipodi.sourceforge.net/DTD/sodipodi-0.dtd"
   xmlns:inkscape="http://www.inkscape.org/namespaces/inkscape"
   height="20"
   version="1.1"
   viewBox="0 0 20 20"
   width="20"
   id="svg9"
   sodipodi:docname="parenthesis.svg"
   inkscape:version="0.92.2 (5c3e80d, 2017-08-06)"
   inkscape:export-filename="C:\Users\realor\Desktop\parenthesis.png"
   inkscape:export-xdpi="345"
   inkscape:export-ydpi="345">
  <metadata
     id="metadata13">
    <rdf:RDF>
      <cc:Work
         rdf:about="">
        <dc:format>image/svg+xml</dc:format>
        <dc:type
           rdf:resource="http://purl.org/dc/dcmitype/StillImage" />
        <dc:title></dc:title>
      </cc:Work>
    </rdf:RDF>
  </metadata>
  <sodipodi:namedview
     pagecolor="#ffffff"
     bordercolor="#666666"
     borderopacity="1"
     objecttolerance="10"
     gridtolerance="10"
     guidetolerance="10"
     inkscape:pageopacity="0"
     inkscape:pageshadow="2"
     inkscape:window-width="1366"
     inkscape:window-height="705"
     id="namedview11"
     showgrid="true"
     inkscape:zoom="10.429825"
     inkscape:cx="8.8467207"
     inkscape:cy="8.8581864"
     inkscape:window-x="-8"
     inkscape:window-y="-8"
     inkscape:window-maximized="1"
     inkscape:current-layer="text825"
     inkscape:snap-bbox="false"
     inkscape:snap-global="false">
    <inkscape:grid
       type="xygrid"
       id="grid815" />
  </sodipodi:namedview>
  <defs
     id="defs4" />
  <g
     id="Icons with numbers"
     style="fill:#666666;fill-rule:evenodd;stroke:none;stroke-width:1"
     transform="translate(0,4)">
    <g
       id="Group"
       transform="translate(-720,-432)"
       style="fill:#666666">
      <g
         transform="matrix(3.7795276,0,0,3.7795276,720.02716,-674.5326)"
         aria-label="(...)"
         style="font-style:normal;font-variant:normal;font-weight:normal;font-stretch:normal;font-size:2.82222223px;line-height:1.25;font-family:Gidole;-inkscape-font-specification:Gidole;letter-spacing:0px;word-spacing:0px;fill:#666666;fill-opacity:1;stroke:none;stroke-width:0.26458332"
         id="text825">
        <path
           sodipodi:type="inkscape:offset"
           inkscape:radius="0.06686186"
           inkscape:original="M 1.7148438 292.9668 C 1.508138 293.13492 1.3673828 293.35283 1.2929688 293.62109 C 1.2461154 293.79381 1.2226562 294.02518 1.2226562 294.31641 C 1.2226562 294.61131 1.2461154 294.84463 1.2929688 295.01367 C 1.3692202 295.28377 1.5099754 295.50169 1.7148438 295.66797 L 1.8183594 295.54688 C 1.6548322 295.39529 1.5430555 295.20865 1.4824219 294.98633 C 1.4374059 294.82004 1.4160156 294.59569 1.4160156 294.31641 C 1.4160156 294.03712 1.4374059 293.81472 1.4824219 293.64844 C 1.5430559 293.42611 1.6548325 293.23947 1.8183594 293.08789 L 1.7148438 292.9668 z "
           style="fill:#666666;stroke-width:0.26458332"
           id="path829"
           d="m 1.7050781,292.90039 a 0.06686855,0.06686855 0 0 0 -0.033203,0.0137 c -0.21712,0.17659 -0.3656333,0.40926 -0.4433594,0.68946 -0.049327,0.18183 -0.072266,0.41807 -0.072266,0.71289 0,0.29844 0.022717,0.53607 0.072266,0.71484 0.079542,0.28176 0.2279321,0.5146 0.4433594,0.68945 a 0.06686855,0.06686855 0 0 0 0.09375,-0.01 l 0.1035156,-0.1211 a 0.06686855,0.06686855 0 0 0 -0.00586,-0.0918 c -0.1546011,-0.14332 -0.2587617,-0.31794 -0.3164062,-0.5293 -0.042448,-0.15681 -0.064453,-0.37648 -0.064453,-0.65234 0,-0.27588 0.021971,-0.49347 0.064453,-0.65039 0.057645,-0.21137 0.1618069,-0.386 0.3164062,-0.5293 a 0.06686855,0.06686855 0 0 0 0.00586,-0.0918 L 1.765625,292.92383 a 0.06686855,0.06686855 0 0 0 -0.060547,-0.0234 z"
           transform="matrix(1.4309679,0,0,1.3057071,-1.1238909,-89.932369)" />
        <g
           aria-label="..."
           style="font-style:normal;font-variant:normal;font-weight:normal;font-stretch:normal;font-size:2.82222223px;line-height:1.25;font-family:Gidole;-inkscape-font-specification:Gidole;letter-spacing:0px;word-spacing:0px;fill:#666666;fill-opacity:1;stroke:none;stroke-width:0.07000434"
           id="text854"
           transform="translate(-0.01902597)">
          <path
             sodipodi:type="inkscape:offset"
             inkscape:radius="0.060807746"
             inkscape:original="M 2.0214844 294.2207 C 1.9764683 294.2207 1.9386356 294.23521 1.9101562 294.26367 C 1.8825956 294.29125 1.8691406 294.32805 1.8691406 294.37305 C 1.8691406 294.41807 1.8825956 294.45396 1.9101562 294.48242 C 1.9386357 294.50996 1.9764684 294.52539 2.0214844 294.52539 C 2.0665004 294.52539 2.1013456 294.50996 2.1289062 294.48242 C 2.1573856 294.45393 2.171875 294.41805 2.171875 294.37305 C 2.171875 294.32807 2.1573856 294.29127 2.1289062 294.26367 C 2.1013456 294.23521 2.0665004 294.2207 2.0214844 294.2207 z "
             style="fill:#666666;stroke-width:0.07000434"
             id="path856"
             d="m 2.0214844,294.16016 c -0.058083,0 -0.1140811,0.0204 -0.1542969,0.0605 -0.039683,0.0397 -0.058594,0.0952 -0.058594,0.15235 0,0.0571 0.020141,0.11263 0.058594,0.15234 0.039666,0.0384 0.095386,0.0605 0.1542969,0.0605 0.058911,0 0.1127356,-0.0229 0.1503906,-0.0605 0.039236,-0.0393 0.060547,-0.0943 0.060547,-0.15234 0,-0.058 -0.020071,-0.11312 -0.060547,-0.15235 -0.038194,-0.0394 -0.092308,-0.0605 -0.1503906,-0.0605 z"
             transform="translate(-0.03340869)" />
          <path
             d="m 2.0214844,294.16016 c -0.058083,0 -0.1140811,0.0204 -0.1542969,0.0605 -0.039683,0.0397 -0.058594,0.0952 -0.058594,0.15235 0,0.0571 0.020141,0.11263 0.058594,0.15234 0.039666,0.0384 0.095386,0.0605 0.1542969,0.0605 0.058911,0 0.1127356,-0.0229 0.1503906,-0.0605 0.039236,-0.0393 0.060547,-0.0943 0.060547,-0.15234 0,-0.058 -0.020071,-0.11312 -0.060547,-0.15235 -0.038194,-0.0394 -0.092308,-0.0605 -0.1503906,-0.0605 z"
             id="path825"
             style="fill:#666666;stroke-width:0.07000434"
             inkscape:original="M 2.0214844 294.2207 C 1.9764683 294.2207 1.9386356 294.23521 1.9101562 294.26367 C 1.8825956 294.29125 1.8691406 294.32805 1.8691406 294.37305 C 1.8691406 294.41807 1.8825956 294.45396 1.9101562 294.48242 C 1.9386357 294.50996 1.9764684 294.52539 2.0214844 294.52539 C 2.0665004 294.52539 2.1013456 294.50996 2.1289062 294.48242 C 2.1573856 294.45393 2.171875 294.41805 2.171875 294.37305 C 2.171875 294.32807 2.1573856 294.29127 2.1289062 294.26367 C 2.1013456 294.23521 2.0665004 294.2207 2.0214844 294.2207 z "
             inkscape:radius="0.060807746"
             sodipodi:type="inkscape:offset"
             transform="translate(0.62885924,-0.01425805)" />
          <path
             transform="translate(1.2945868)"
             sodipodi:type="inkscape:offset"
             inkscape:radius="0.060807746"
             inkscape:original="M 2.0214844 294.2207 C 1.9764683 294.2207 1.9386356 294.23521 1.9101562 294.26367 C 1.8825956 294.29125 1.8691406 294.32805 1.8691406 294.37305 C 1.8691406 294.41807 1.8825956 294.45396 1.9101562 294.48242 C 1.9386357 294.50996 1.9764684 294.52539 2.0214844 294.52539 C 2.0665004 294.52539 2.1013456 294.50996 2.1289062 294.48242 C 2.1573856 294.45393 2.171875 294.41805 2.171875 294.37305 C 2.171875 294.32807 2.1573856 294.29127 2.1289062 294.26367 C 2.1013456 294.23521 2.0665004 294.2207 2.0214844 294.2207 z "
             style="fill:#666666;stroke-width:0.07000434"
             id="path827"
             d="m 2.0214844,294.16016 c -0.058083,0 -0.1140811,0.0204 -0.1542969,0.0605 -0.039683,0.0397 -0.058594,0.0952 -0.058594,0.15235 0,0.0571 0.020141,0.11263 0.058594,0.15234 0.039666,0.0384 0.095386,0.0605 0.1542969,0.0605 0.058911,0 0.1127356,-0.0229 0.1503906,-0.0605 0.039236,-0.0393 0.060547,-0.0943 0.060547,-0.15234 0,-0.058 -0.020071,-0.11312 -0.060547,-0.15235 -0.038194,-0.0394 -0.092308,-0.0605 -0.1503906,-0.0605 z" />
        </g>
        <path
           transform="matrix(-1.4309679,0,0,1.3057071,6.4025239,-89.9234)"
           d="m 1.7050781,292.90039 a 0.06686855,0.06686855 0 0 0 -0.033203,0.0137 c -0.21712,0.17659 -0.3656333,0.40926 -0.4433594,0.68946 -0.049327,0.18183 -0.072266,0.41807 -0.072266,0.71289 0,0.29844 0.022717,0.53607 0.072266,0.71484 0.079542,0.28176 0.2279321,0.5146 0.4433594,0.68945 a 0.06686855,0.06686855 0 0 0 0.09375,-0.01 l 0.1035156,-0.1211 a 0.06686855,0.06686855 0 0 0 -0.00586,-0.0918 c -0.1546011,-0.14332 -0.2587617,-0.31794 -0.3164062,-0.5293 -0.042448,-0.15681 -0.064453,-0.37648 -0.064453,-0.65234 0,-0.27588 0.021971,-0.49347 0.064453,-0.65039 0.057645,-0.21137 0.1618069,-0.386 0.3164062,-0.5293 a 0.06686855,0.06686855 0 0 0 0.00586,-0.0918 L 1.765625,292.92383 a 0.06686855,0.06686855 0 0 0 -0.060547,-0.0234 z"
           id="path2557"
           style="fill:#666666;stroke-width:0.26458332"
           inkscape:original="M 1.7148438 292.9668 C 1.508138 293.13492 1.3673828 293.35283 1.2929688 293.62109 C 1.2461154 293.79381 1.2226562 294.02518 1.2226562 294.31641 C 1.2226562 294.61131 1.2461154 294.84463 1.2929688 295.01367 C 1.3692202 295.28377 1.5099754 295.50169 1.7148438 295.66797 L 1.8183594 295.54688 C 1.6548322 295.39529 1.5430555 295.20865 1.4824219 294.98633 C 1.4374059 294.82004 1.4160156 294.59569 1.4160156 294.31641 C 1.4160156 294.03712 1.4374059 293.81472 1.4824219 293.64844 C 1.5430559 293.42611 1.6548325 293.23947 1.8183594 293.08789 L 1.7148438 292.9668 z "
           inkscape:radius="0.06686186"
           sodipodi:type="inkscape:offset" />
      </g>
    </g>
  </g>
</svg>
