<?xml version="1.0" encoding="UTF-8" standalone="no"?>
<svg
   xmlns:dc="http://purl.org/dc/elements/1.1/"
   xmlns:cc="http://creativecommons.org/ns#"
   xmlns:rdf="http://www.w3.org/1999/02/22-rdf-syntax-ns#"
   xmlns:svg="http://www.w3.org/2000/svg"
   xmlns="http://www.w3.org/2000/svg"
   xmlns:sodipodi="http://sodipodi.sourceforge.net/DTD/sodipodi-0.dtd"
   xmlns:inkscape="http://www.inkscape.org/namespaces/inkscape"
   enable-background="new 0 0 128 128"
   height="20"
   id="Layer_1"
   version="1.1"
   viewBox="0 0 20 20"
   width="20"
   xml:space="preserve"
   sodipodi:docname="preferences.svg"
   inkscape:version="0.92.2 (5c3e80d, 2017-08-06)"
   inkscape:export-filename="/Users/realor/Desktop/preferences@2x.png"
   inkscape:export-xdpi="192"
   inkscape:export-ydpi="192"><metadata
     id="metadata9"><rdf:RDF><cc:Work
         rdf:about=""><dc:format>image/svg+xml</dc:format><dc:type
           rdf:resource="http://purl.org/dc/dcmitype/StillImage" /><dc:title></dc:title></cc:Work></rdf:RDF></metadata><defs
     id="defs7" /><sodipodi:namedview
     pagecolor="#ffffff"
     bordercolor="#666666"
     borderopacity="1"
     objecttolerance="10"
     gridtolerance="10"
     guidetolerance="10"
     inkscape:pageopacity="0"
     inkscape:pageshadow="2"
     inkscape:window-width="1237"
     inkscape:window-height="623"
     id="namedview5"
     showgrid="true"
     inkscape:snap-global="false"
     inkscape:zoom="30.5625"
     inkscape:cx="10.432404"
     inkscape:cy="12.748978"
     inkscape:current-layer="Layer_1"
     inkscape:window-x="0"
     inkscape:window-y="0"
     inkscape:window-maximized="0"><inkscape:grid
       type="xygrid"
       id="grid819" /></sodipodi:namedview><path
     d="M 17.27225,11.289262 16.675408,10.64821 c 6.57e-4,-0.0055 5.23e-4,-0.01113 -1.29e-4,-0.01949 0.01281,-0.142962 0.02132,-0.286974 0.02695,-0.431115 0.0013,-0.04159 -3.93e-4,-0.08607 3.92e-4,-0.127662 0.0012,-0.1105245 -3.92e-4,-0.2173877 -0.0054,-0.3241207 -0.0021,-0.046691 -0.0047,-0.090126 -0.0076,-0.136554 -0.0025,-0.071278 -0.0061,-0.1416573 -0.0115,-0.2160822 L 17.276633,8.7565814 C 17.562168,8.452472 18.080528,8.0486933 17.921866,7.6642728 l -0.6552,-1.590129 C 17.107963,5.6893308 16.45645,5.7700342 16.039852,5.7555155 l -0.873871,-0.031523 c -0.06605,-0.079003 -0.137211,-0.154082 -0.205618,-0.2303383 -0.0026,-0.00289 -0.0057,-0.00731 -0.0089,-0.011379 -0.02433,-0.025506 -0.04487,-0.053237 -0.06945,-0.078349 -0.03707,-0.040287 -0.07972,-0.078743 -0.117893,-0.1179825 -0.05533,-0.05572 -0.110393,-0.1123569 -0.167159,-0.1662464 -0.09313,-0.089598 -0.191363,-0.1740944 -0.288155,-0.2579371 -0.0039,-0.00406 -0.01024,-0.00744 -0.0136,-0.010198 -0.0053,-0.0051 -0.0099,-0.010859 -0.01517,-0.01609 L 14.251713,3.9600283 C 14.238893,3.545524 14.32037,2.8928331 13.938181,2.7337805 L 12.347464,2.0718023 C 11.964785,1.9124878 11.55826,2.4311088 11.255066,2.7140287 L 10.61454,3.3120451 c -0.143618,-0.014388 -0.28619,-0.021844 -0.428892,-0.027337 -0.03989,-0.00158 -0.08005,-7.847e-4 -0.122691,-5.231e-4 -0.091949,-7.847e-4 -0.1846881,-0.00353 -0.2792568,1.308e-4 -0.1194197,0.00379 -0.2388405,0.011248 -0.3578676,0.021581 -0.015303,7.851e-4 -0.030605,7.851e-4 -0.042641,0.00183 -0.00845,0.0017 -0.014918,3.923e-4 -0.023538,0.00208 L 8.7225221,2.7099739 C 8.4189356,2.4260077 8.0146336,1.9060787 7.6302133,2.0644772 L 6.0400806,2.719784 C 5.6552676,2.8783132 5.7366249,3.5313964 5.7213216,3.9468165 l -0.031,0.875181 c -0.00955,0.0072 -0.019097,0.017134 -0.027989,0.025898 -0.1045088,0.087112 -0.2070558,0.1771025 -0.3067252,0.2707553 -0.036754,0.0361 -0.072201,0.072463 -0.1081713,0.108956 -0.070762,0.068931 -0.1417868,0.1400867 -0.2096718,0.2132035 -0.034793,0.037934 -0.066839,0.076388 -0.1007158,0.1151042 -0.046041,0.049965 -0.091036,0.099278 -0.1351161,0.151989 L 3.9259647,5.7347185 C 3.5114593,5.7476675 2.8587686,5.6661793 2.6997161,6.0485069 L 2.0374769,7.6390321 c -0.1591832,0.382851 0.358653,0.7879378 0.6415728,1.0911316 l 0.5981474,0.640657 c -0.00969,0.099146 -0.013996,0.1977689 -0.01949,0.2980924 1.308e-4,0.00934 -0.00158,0.019103 -0.00131,0.028381 -0.00811,0.1700407 -0.012165,0.3398179 -0.00627,0.5090739 0.00276,0.07429 0.00825,0.14728 0.012951,0.221445 0.00432,0.05991 0.00562,0.120858 0.011249,0.180634 -3.922e-4,0.0065 1.308e-4,0.01255 6.539e-4,0.01701 L 2.6756499,11.264275 C 2.3915527,11.56734 1.8712314,11.970464 2.0296298,12.354752 l 0.6553069,1.590133 c 0.1586601,0.385075 0.8121357,0.304895 1.2275556,0.320067 l 0.874658,0.02969 c 0.00589,0.0085 0.012951,0.01374 0.019228,0.02263 0.08868,0.10647 0.1818116,0.210456 0.278865,0.315097 0.034138,0.03675 0.07024,0.06828 0.1049013,0.104384 0.071287,0.07233 0.1430951,0.14388 0.2173895,0.213596 0.036493,0.03165 0.07508,0.06474 0.1119644,0.09888 0.051667,0.04565 0.1018937,0.09222 0.1536899,0.133808 l 0.026684,0.875836 c 0.013081,0.414506 -0.068015,1.068765 0.3144428,1.227948 l 1.590525,0.662109 c 0.3829817,0.159444 0.787807,-0.358787 1.0910007,-0.641704 l 0.6411806,-0.596712 c 0.0071,1.31e-4 0.013862,-7.85e-4 0.020929,-6.54e-4 0.082537,0.0091 0.1644149,0.0123 0.2462958,0.01648 0.024593,0.0021 0.048393,0.0022 0.071681,0.0048 0.038456,0.0012 0.075345,0.0042 0.1124875,0.0054 0.043956,8.87e-4 0.087767,-3.93e-4 0.1317162,-2.62e-4 0.106865,0.0025 0.213858,2.62e-4 0.319806,-0.0047 0.04618,-0.0016 0.09339,-0.0051 0.139037,-0.0077 0.07207,-0.0033 0.141525,-0.0066 0.212418,-0.01087 l 0.638175,0.597756 c 0.303978,0.285535 0.706187,0.804549 1.090476,0.645889 l 1.590264,-0.655308 c 0.384946,-0.15882 0.305419,-0.810858 0.32007,-1.227587 l 0.03008,-0.873204 c 0.07495,-0.06252 0.147151,-0.127659 0.216868,-0.191229 0.0098,-0.01139 0.02106,-0.01935 0.03179,-0.0284 0.02434,-0.02302 0.05037,-0.04239 0.07127,-0.06448 0.04239,-0.03754 0.07888,-0.07901 0.117458,-0.116412 0.0552,-0.05585 0.113797,-0.111702 0.169909,-0.170171 0.08148,-0.08751 0.1635,-0.179065 0.242764,-0.274417 0.0089,-0.0083 0.01609,-0.01571 0.02381,-0.02681 0.0066,-0.0059 0.01078,-0.0098 0.01452,-0.01439 l 0.875181,-0.02811 c 0.414505,-0.01295 1.068762,0.06814 1.227947,-0.314312 L 17.914078,12.3813 c 0.159962,-0.382583 -0.359051,-0.788979 -0.641839,-1.092171 z m -3.797119,-1.278961 c 0,1.932306 -1.566589,3.498893 -3.498894,3.498893 -1.9323042,0 -3.4988929,-1.566587 -3.4988929,-3.498893 0,-1.9323048 1.5665887,-3.4988937 3.4988929,-3.4988937 1.932305,0 3.498894,1.5665889 3.498894,3.4988937 z"
     id="path2"
     inkscape:connector-curvature="0"
     style="fill:#333333;fill-opacity:0.58823529;stroke-width:0.13079974" /></svg>