<?xml version="1.0" encoding="UTF-8" standalone="no"?>
<svg
   xmlns:dc="http://purl.org/dc/elements/1.1/"
   xmlns:cc="http://creativecommons.org/ns#"
   xmlns:rdf="http://www.w3.org/1999/02/22-rdf-syntax-ns#"
   xmlns:svg="http://www.w3.org/2000/svg"
   xmlns="http://www.w3.org/2000/svg"
   xmlns:sodipodi="http://sodipodi.sourceforge.net/DTD/sodipodi-0.dtd"
   xmlns:inkscape="http://www.inkscape.org/namespaces/inkscape"
   height="20"
   id="Layer_1"
   version="1.1"
   viewBox="0 0 20 20"
   width="20"
   xml:space="preserve"
   sodipodi:docname="previous.svg"
   inkscape:version="0.92.2 (5c3e80d, 2017-08-06)"
   inkscape:export-filename="/Users/realor/Desktop/next@2x.png"
   inkscape:export-xdpi="192"
   inkscape:export-ydpi="192"><metadata
     id="metadata11"><rdf:RDF><cc:Work
         rdf:about=""><dc:format>image/svg+xml</dc:format><dc:type
           rdf:resource="http://purl.org/dc/dcmitype/StillImage" /><dc:title></dc:title></cc:Work></rdf:RDF></metadata><defs
     id="defs9" /><sodipodi:namedview
     pagecolor="#ffffff"
     bordercolor="#666666"
     borderopacity="1"
     objecttolerance="10"
     gridtolerance="10"
     guidetolerance="10"
     inkscape:pageopacity="0"
     inkscape:pageshadow="2"
     inkscape:window-width="1355"
     inkscape:window-height="637"
     id="namedview7"
     showgrid="true"
     inkscape:zoom="29.5"
     inkscape:cx="11.307692"
     inkscape:cy="9.8498648"
     inkscape:window-x="0"
     inkscape:window-y="0"
     inkscape:window-maximized="0"
     inkscape:current-layer="Layer_1"
     inkscape:snap-global="true"><inkscape:grid
       type="xygrid"
       id="grid816" /></sodipodi:namedview><path
     style="opacity:1;fill:#666666;fill-opacity:1;fill-rule:nonzero;stroke:none;stroke-width:9.58214188;stroke-linecap:round;stroke-linejoin:round;stroke-miterlimit:4;stroke-dasharray:none;stroke-opacity:1"
     d="M 2.0000001,9.988281 A 7.9851174,7.9851174 0 0 0 9.9843751,17.974609 7.9851174,7.9851174 0 0 0 17.970703,9.988281 7.9851174,7.9851174 0 0 0 9.9843751,2.0039061 7.9851174,7.9851174 0 0 0 2.0000001,9.988281 Z m 1.0019532,-0.03711 c 0,-3.839636 3.1135586,-6.955078 6.953125,-6.955078 3.8395667,0 6.9531247,3.115442 6.9531247,6.955078 0,3.8396379 -3.113558,6.9531259 -6.9531247,6.9531259 -3.8395664,0 -6.953125,-3.113488 -6.953125,-6.9531259 z m 2.2402344,-0.00586 c -7.229e-4,0.055306 0.00357,0.1115729 0.013672,0.1660159 0.040323,0.237205 0.1783218,0.44719 0.3789063,0.580078 l 2.4882812,2.488281 c 0.5451018,0.560083 1.4939316,0.174141 1.4941407,-0.607422 -8.8e-6,-0.235147 -0.095128,-0.461032 -0.2636719,-0.625 l -1.125,-1.125 h 5.2246092 c 0.480325,0.0066 0.875306,-0.377101 0.882813,-0.8574219 0.0078,-0.490978 -0.391828,-0.891488 -0.882813,-0.884765 H 8.2285158 l 1.125,-1.126953 C 9.5158593,7.7953841 9.6104469,7.5817291 9.6171877,7.3554681 9.6406147,6.5613751 8.6767794,6.1530011 8.123047,6.7226561 l -2.4863281,2.484375 c -0.24237,0.158292 -0.3901681,0.427341 -0.3945312,0.716797 -3.49e-5,0.00453 -3.49e-5,0.00913 0,0.013672 -1.75e-5,0.00287 -1.75e-5,0.00494 0,0.00781 z"
     id="path816"
     inkscape:connector-curvature="0" /><g
     id="g4"
     transform="matrix(0.87091062,0,0,0.87089485,1.3148635,-427.21532)" /></svg>