<?xml version="1.0" encoding="UTF-8" standalone="no"?>
<svg
   xmlns:dc="http://purl.org/dc/elements/1.1/"
   xmlns:cc="http://creativecommons.org/ns#"
   xmlns:rdf="http://www.w3.org/1999/02/22-rdf-syntax-ns#"
   xmlns:svg="http://www.w3.org/2000/svg"
   xmlns="http://www.w3.org/2000/svg"
   xmlns:sodipodi="http://sodipodi.sourceforge.net/DTD/sodipodi-0.dtd"
   xmlns:inkscape="http://www.inkscape.org/namespaces/inkscape"
   height="20"
   viewBox="0 0 20 20"
   width="20"
   version="1.1"
   id="svg4"
   sodipodi:docname="refresh.svg"
   inkscape:export-filename="/Users/realor/Desktop/refresh.png"
   inkscape:export-xdpi="1"
   inkscape:export-ydpi="1"
   inkscape:version="0.92.2 5c3e80d, 2017-08-06">
  <metadata
     id="metadata10">
    <rdf:RDF>
      <cc:Work
         rdf:about="">
        <dc:format>image/svg+xml</dc:format>
        <dc:type
           rdf:resource="http://purl.org/dc/dcmitype/StillImage" />
        <dc:title></dc:title>
      </cc:Work>
    </rdf:RDF>
  </metadata>
  <defs
     id="defs8" />
  <sodipodi:namedview
     pagecolor="#ffffff"
     bordercolor="#666666"
     borderopacity="1"
     objecttolerance="10"
     gridtolerance="10"
     guidetolerance="10"
     inkscape:pageopacity="0"
     inkscape:pageshadow="2"
     inkscape:window-width="640"
     inkscape:window-height="480"
     id="namedview6"
     showgrid="true"
     inkscape:snap-global="false"
     inkscape:zoom="17.464286"
     inkscape:cx="8.4777433"
     inkscape:cy="7.6434116"
     inkscape:current-layer="svg4">
    <inkscape:grid
       type="xygrid"
       id="grid817" />
  </sodipodi:namedview>
  <path
     d="m 17.816478,11.710783 q 0,0.05245 -0.01039,0.07343 -0.671169,2.810511 -2.810518,4.556582 -2.139346,1.746069 -5.0127821,1.746069 -1.5310997,0 -2.9625721,-0.576774 -1.4315325,-0.576766 -2.5536391,-1.646456 l -1.3528213,1.35283 q -0.1992555,0.199244 -0.4719165,0.199244 -0.2726627,0 -0.4719165,-0.199244 -0.1993005,-0.19924 -0.1993005,-0.471884 v -4.6982 q 0,-0.272648 0.1992509,-0.471892 0.1992577,-0.199282 0.4719204,-0.199282 h 4.6981683 q 0.2726647,0 0.4719157,0.199277 0.199251,0.199244 0.199251,0.471892 0,0.272676 -0.199251,0.47192 l -1.4367201,1.436722 q 0.7445761,0.692124 1.6884047,1.069655 0.9438292,0.377534 1.9610682,0.377534 1.405255,0 2.621748,-0.68163 1.216492,-0.681663 1.950583,-1.877195 0.115357,-0.178254 0.555808,-1.226955 0.0839,-0.241224 0.314611,-0.241224 h 2.013503 q 0.136326,0 0.235958,0.09964 0.09962,0.09964 0.09962,0.235947 z m 0.262176,-8.389588 v 4.6981677 q 0,0.2726791 -0.199252,0.471924 -0.199251,0.1992434 -0.471914,0.1992434 h -4.698175 q -0.272663,0 -0.471915,-0.1992434 -0.199251,-0.1992449 -0.199251,-0.471924 0,-0.2726445 0.199251,-0.4719222 L 13.684603,6.1002542 Q 12.132529,4.6635279 10.02464,4.6635279 q -1.4052557,0 -2.6217486,0.6816633 Q 6.1864041,6.0268529 5.4523121,7.2223519 5.3369571,7.4006394 4.8964999,8.4493373 4.8126014,8.6905301 4.5818941,8.6905301 H 2.494979 q -0.136326,0 -0.2359574,-0.099612 -0.099627,-0.099642 -0.099627,-0.2359774 V 8.2815432 Q 2.8410503,5.4710318 4.9908871,3.7249273 7.1407199,1.9788575 10.024641,1.9788575 q 1.531104,0 2.978309,0.5820228 1.447207,0.5820243 2.569312,1.6412183 l 1.363311,-1.3528289 q 0.199251,-0.199245 0.471917,-0.199245 0.272662,0 0.471914,0.199245 0.199251,0.1992433 0.199251,0.4719224 z"
     id="path2"
     style="fill:#666666;fill-opacity:1;stroke-width:0.010487"
     inkscape:connector-curvature="0" />
</svg>
