<?xml version="1.0" encoding="UTF-8" standalone="no"?>
<svg
   xmlns:dc="http://purl.org/dc/elements/1.1/"
   xmlns:cc="http://creativecommons.org/ns#"
   xmlns:rdf="http://www.w3.org/1999/02/22-rdf-syntax-ns#"
   xmlns:svg="http://www.w3.org/2000/svg"
   xmlns="http://www.w3.org/2000/svg"
   xmlns:sodipodi="http://sodipodi.sourceforge.net/DTD/sodipodi-0.dtd"
   xmlns:inkscape="http://www.inkscape.org/namespaces/inkscape"
   height="20"
   id="Layer_1"
   version="1.1"
   viewBox="0 0 20 20"
   width="20"
   xml:space="preserve"
   sodipodi:docname="replace.svg"
   inkscape:version="0.92.2 (5c3e80d, 2017-08-06)"
   inkscape:export-filename="/Users/realor/Desktop/replace@2x.png"
   inkscape:export-xdpi="192"
   inkscape:export-ydpi="192"><metadata
     id="metadata11"><rdf:RDF><cc:Work
         rdf:about=""><dc:format>image/svg+xml</dc:format><dc:type
           rdf:resource="http://purl.org/dc/dcmitype/StillImage" /><dc:title></dc:title></cc:Work></rdf:RDF></metadata><defs
     id="defs9" /><sodipodi:namedview
     pagecolor="#ffffff"
     bordercolor="#666666"
     borderopacity="1"
     objecttolerance="10"
     gridtolerance="10"
     guidetolerance="10"
     inkscape:pageopacity="0"
     inkscape:pageshadow="2"
     inkscape:window-width="1352"
     inkscape:window-height="656"
     id="namedview7"
     showgrid="true"
     inkscape:zoom="20.85965"
     inkscape:cx="9.9331711"
     inkscape:cy="7.8508518"
     inkscape:window-x="0"
     inkscape:window-y="0"
     inkscape:window-maximized="0"
     inkscape:current-layer="Layer_1"
     inkscape:snap-global="true"
     showguides="false"><inkscape:grid
       type="xygrid"
       id="grid816" /></sodipodi:namedview><g
     id="g4"
     transform="matrix(0.87091062,0,0,0.87089485,1.3148635,-427.21532)" /><path
     style="color:#000000;font-style:normal;font-variant:normal;font-weight:normal;font-stretch:normal;font-size:medium;line-height:normal;font-family:sans-serif;font-variant-ligatures:normal;font-variant-position:normal;font-variant-caps:normal;font-variant-numeric:normal;font-variant-alternates:normal;font-feature-settings:normal;text-indent:0;text-align:start;text-decoration:none;text-decoration-line:none;text-decoration-style:solid;text-decoration-color:#000000;letter-spacing:normal;word-spacing:normal;text-transform:none;writing-mode:lr-tb;direction:ltr;text-orientation:mixed;dominant-baseline:auto;baseline-shift:baseline;text-anchor:start;white-space:normal;shape-padding:0;clip-rule:nonzero;display:inline;overflow:visible;visibility:visible;opacity:1;isolation:auto;mix-blend-mode:normal;color-interpolation:sRGB;color-interpolation-filters:linearRGB;solid-color:#000000;solid-opacity:1;vector-effect:none;fill:#666666;fill-opacity:1;fill-rule:nonzero;stroke:none;stroke-width:0.98150826;stroke-linecap:round;stroke-linejoin:round;stroke-miterlimit:4;stroke-dasharray:none;stroke-dashoffset:0;stroke-opacity:1;color-rendering:auto;image-rendering:auto;shape-rendering:auto;text-rendering:auto;enable-background:accumulate"
     d="m 3.1425781,2.0429688 c -0.6101751,0 -1.1171875,0.5070123 -1.1171875,1.1171874 v 1.7089844 c 0,0.6101752 0.5070124,1.1171875 1.1171875,1.1171875 H 16.869141 c 0.610175,0 1.117187,-0.5070123 1.117187,-1.1171875 V 3.1601562 c 0,-0.6101751 -0.507012,-1.1171875 -1.117187,-1.1171874 z m 0,0.9804687 H 16.869141 c 0.0834,0 0.134765,0.053322 0.134765,0.1367187 v 1.7089844 c 0,0.083397 -0.05137,0.1347656 -0.134765,0.1347656 H 3.1425781 c -0.083397,0 -0.1347656,-0.051369 -0.1347656,-0.1347656 V 3.1601562 c 0,-0.083397 0.051369,-0.1367187 0.1347656,-0.1367187 z"
     id="rect830"
     inkscape:connector-curvature="0" /><path
     style="color:#000000;font-style:normal;font-variant:normal;font-weight:normal;font-stretch:normal;font-size:medium;line-height:normal;font-family:sans-serif;font-variant-ligatures:normal;font-variant-position:normal;font-variant-caps:normal;font-variant-numeric:normal;font-variant-alternates:normal;font-feature-settings:normal;text-indent:0;text-align:start;text-decoration:none;text-decoration-line:none;text-decoration-style:solid;text-decoration-color:#000000;letter-spacing:normal;word-spacing:normal;text-transform:none;writing-mode:lr-tb;direction:ltr;text-orientation:mixed;dominant-baseline:auto;baseline-shift:baseline;text-anchor:start;white-space:normal;shape-padding:0;clip-rule:nonzero;display:inline;overflow:visible;visibility:visible;opacity:1;isolation:auto;mix-blend-mode:normal;color-interpolation:sRGB;color-interpolation-filters:linearRGB;solid-color:#000000;solid-opacity:1;vector-effect:none;fill:#666666;fill-opacity:1;fill-rule:nonzero;stroke:none;stroke-width:0.97454625;stroke-linecap:round;stroke-linejoin:round;stroke-miterlimit:4;stroke-dasharray:none;stroke-dashoffset:0;stroke-opacity:1;color-rendering:auto;image-rendering:auto;shape-rendering:auto;text-rendering:auto;enable-background:accumulate"
     d="m 3.1933594,14.064453 c -0.6175467,0 -1.1308594,0.513313 -1.1308594,1.130859 v 1.753907 c 0,0.617546 0.5133127,1.130859 1.1308594,1.130859 H 16.867188 c 0.617546,0 1.130859,-0.513313 1.130859,-1.130859 v -1.753907 c 0,-0.617546 -0.513313,-1.130859 -1.130859,-1.130859 z m 0,0.974609 H 16.867188 c 0.09451,0 0.15625,0.06175 0.15625,0.15625 v 1.753907 c 0,0.09451 -0.06174,0.15625 -0.15625,0.15625 H 3.1933594 c -0.094505,0 -0.15625,-0.06174 -0.15625,-0.15625 v -1.753907 c 0,-0.0945 0.061745,-0.15625 0.15625,-0.15625 z"
     id="rect834"
     inkscape:connector-curvature="0" /><path
     style="color:#000000;font-style:normal;font-variant:normal;font-weight:normal;font-stretch:normal;font-size:medium;line-height:normal;font-family:sans-serif;font-variant-ligatures:normal;font-variant-position:normal;font-variant-caps:normal;font-variant-numeric:normal;font-variant-alternates:normal;font-feature-settings:normal;text-indent:0;text-align:start;text-decoration:none;text-decoration-line:none;text-decoration-style:solid;text-decoration-color:#000000;letter-spacing:normal;word-spacing:normal;text-transform:none;writing-mode:lr-tb;direction:ltr;text-orientation:mixed;dominant-baseline:auto;baseline-shift:baseline;text-anchor:start;white-space:normal;shape-padding:0;clip-rule:nonzero;display:inline;overflow:visible;visibility:visible;opacity:1;isolation:auto;mix-blend-mode:normal;color-interpolation:sRGB;color-interpolation-filters:linearRGB;solid-color:#000000;solid-opacity:1;vector-effect:none;fill:#666666;fill-opacity:1;fill-rule:nonzero;stroke:none;stroke-width:1.5;stroke-linecap:round;stroke-linejoin:miter;stroke-miterlimit:4;stroke-dasharray:none;stroke-dashoffset:0;stroke-opacity:1;color-rendering:auto;image-rendering:auto;shape-rendering:auto;text-rendering:auto;enable-background:accumulate"
     d="M 9.9882812 6.2402344 A 0.750075 0.750075 0 0 0 9.25 7 L 9.25 11.1875 L 7.53125 9.46875 A 0.750075 0.750075 0 0 0 6.9921875 9.2421875 A 0.750075 0.750075 0 0 0 6.46875 10.53125 L 9.4082031 13.470703 A 0.750075 0.750075 0 0 0 10.59375 13.46875 L 13.53125 10.53125 A 0.750075 0.750075 0 0 0 12.984375 9.2421875 A 0.750075 0.750075 0 0 0 12.46875 9.46875 L 10.75 11.1875 L 10.75 7 A 0.750075 0.750075 0 0 0 9.9882812 6.2402344 z "
     id="path859" /></svg>