<?xml version="1.0" encoding="UTF-8" standalone="no"?>
<svg
   xmlns:dc="http://purl.org/dc/elements/1.1/"
   xmlns:cc="http://creativecommons.org/ns#"
   xmlns:rdf="http://www.w3.org/1999/02/22-rdf-syntax-ns#"
   xmlns:svg="http://www.w3.org/2000/svg"
   xmlns="http://www.w3.org/2000/svg"
   xmlns:sodipodi="http://sodipodi.sourceforge.net/DTD/sodipodi-0.dtd"
   xmlns:inkscape="http://www.inkscape.org/namespaces/inkscape"
   height="20"
   id="Layer_1"
   version="1.1"
   viewBox="0 0 20 20"
   width="20"
   xml:space="preserve"
   sodipodi:docname="up.svg"
   inkscape:version="0.92.2 5c3e80d, 2017-08-06"
   inkscape:export-filename="/Users/realor/Desktop/up.png"
   inkscape:export-xdpi="97"
   inkscape:export-ydpi="97"><metadata
     id="metadata11"><rdf:RDF><cc:Work
         rdf:about=""><dc:format>image/svg+xml</dc:format><dc:type
           rdf:resource="http://purl.org/dc/dcmitype/StillImage" /><dc:title /></cc:Work></rdf:RDF></metadata><defs
     id="defs9" /><sodipodi:namedview
     pagecolor="#ffffff"
     bordercolor="#666666"
     borderopacity="1"
     objecttolerance="10"
     gridtolerance="10"
     guidetolerance="10"
     inkscape:pageopacity="0"
     inkscape:pageshadow="2"
     inkscape:window-width="1155"
     inkscape:window-height="582"
     id="namedview7"
     showgrid="true"
     inkscape:zoom="29.5"
     inkscape:cx="8.7118412"
     inkscape:cy="9.8498648"
     inkscape:window-x="0"
     inkscape:window-y="0"
     inkscape:window-maximized="0"
     inkscape:current-layer="Layer_1"
     inkscape:snap-global="true"><inkscape:grid
       type="xygrid"
       id="grid816" /></sodipodi:namedview><path
     style="opacity:1;fill:#666666;fill-opacity:1;fill-rule:nonzero;stroke:none;stroke-width:9.58214188;stroke-linecap:round;stroke-linejoin:round;stroke-miterlimit:4;stroke-dasharray:none;stroke-opacity:1"
     d="M 9.9863281 2.0039062 A 7.9851174 7.9851174 0 0 0 2 9.9882812 A 7.9851174 7.9851174 0 0 0 9.9863281 17.974609 A 7.9851174 7.9851174 0 0 0 17.970703 9.9882812 A 7.9851174 7.9851174 0 0 0 9.9863281 2.0039062 z M 10.023438 3.0058594 C 13.863074 3.0058594 16.978516 6.119418 16.978516 9.9589844 C 16.978516 13.798551 13.863074 16.912109 10.023438 16.912109 C 6.1838005 16.912109 3.0703125 13.798551 3.0703125 9.9589844 C 3.0703125 6.119418 6.1838005 3.0058594 10.023438 3.0058594 z M 10.029297 5.2460938 C 9.9739914 5.2453709 9.917724 5.2496632 9.8632812 5.2597656 C 9.6260758 5.3000881 9.4160915 5.4380874 9.2832031 5.6386719 L 6.7949219 8.1269531 C 6.2348395 8.6720549 6.6207808 9.6208847 7.4023438 9.6210938 C 7.6374906 9.621085 7.8633758 9.5259662 8.0273438 9.3574219 L 9.1523438 8.2324219 L 9.1523438 13.457031 C 9.1457684 13.937356 9.529445 14.332337 10.009766 14.339844 C 10.500744 14.347682 10.901254 13.948016 10.894531 13.457031 L 10.894531 8.2324219 L 12.021484 9.3574219 C 12.179225 9.5197654 12.39288 9.614353 12.619141 9.6210938 C 13.413234 9.6445208 13.821608 8.6806855 13.251953 8.1269531 L 10.767578 5.640625 C 10.609286 5.398255 10.340237 5.2504569 10.050781 5.2460938 C 10.046253 5.2460589 10.041647 5.2460589 10.037109 5.2460938 C 10.034235 5.2460763 10.032171 5.2460763 10.029297 5.2460938 z "
     id="path816" /><g
     id="g4"
     transform="matrix(0.87091062,0,0,0.87089485,1.3148635,-427.21532)" /></svg>