<?xml version="1.0" encoding="UTF-8" standalone="no"?>
<!-- Generator: Adobe Illustrator 16.0.0, SVG Export Plug-In . SVG Version: 6.00 Build 0)  -->

<svg
   xmlns:dc="http://purl.org/dc/elements/1.1/"
   xmlns:cc="http://creativecommons.org/ns#"
   xmlns:rdf="http://www.w3.org/1999/02/22-rdf-syntax-ns#"
   xmlns:svg="http://www.w3.org/2000/svg"
   xmlns="http://www.w3.org/2000/svg"
   xmlns:sodipodi="http://sodipodi.sourceforge.net/DTD/sodipodi-0.dtd"
   xmlns:inkscape="http://www.inkscape.org/namespaces/inkscape"
   version="1.1"
   id="Capa_1"
   x="0px"
   y="0px"
   width="140"
   height="52"
   viewBox="0 0 140 51.999999"
   enable-background="new 0 0 1421.929 503.975"
   xml:space="preserve"
   sodipodi:docname="brain4it.svg"
   inkscape:version="0.92.2 5c3e80d, 2017-08-06"><sodipodi:namedview
     pagecolor="#ffffff"
     bordercolor="#666666"
     borderopacity="1"
     objecttolerance="10"
     gridtolerance="10"
     guidetolerance="10"
     inkscape:pageopacity="0"
     inkscape:pageshadow="2"
     inkscape:window-width="1366"
     inkscape:window-height="705"
     id="namedview29"
     showgrid="true"
     inkscape:zoom="3.5367052"
     inkscape:cx="45.306472"
     inkscape:cy="17.079051"
     inkscape:current-layer="g8"
     inkscape:snap-global="false"
     fit-margin-top="0"
     fit-margin-left="0"
     fit-margin-right="0"
     fit-margin-bottom="0"
     inkscape:window-x="-8"
     inkscape:window-y="-8"
     inkscape:window-maximized="1"><inkscape:grid
       originy="-0.0056074488"
       originx="-0.30483347"
       id="grid890"
       type="xygrid" /></sodipodi:namedview><metadata
     id="metadata33"><rdf:RDF><cc:Work
         rdf:about=""><dc:format>image/svg+xml</dc:format><dc:type
           rdf:resource="http://purl.org/dc/dcmitype/StillImage" /><dc:title /></cc:Work></rdf:RDF></metadata><defs
     id="defs31" /><g
     id="g905"><g
       id="g8"
       style=""><path
         d="M36.825312764 25.7869464874C37.4931325217 24.7836255817 37.8516300765 23.6046490872 37.8516300765 22.3639724121C37.8516300765 19.7703062542 36.270729777 17.5164530706 33.9535338124 16.6119961813C33.8629854609 13.5233939662 31.3408750864 11.0392687278 28.2536074842 11.0392687278C26.6654181451 11.0392687278 25.2035037179 11.722487865 24.1007028207 12.829497926C23.8509248852 12.552309095 23.5740440418 12.299143296 23.2708815907 12.0809854197C22.3219718259 11.3988955704 21.1515163214 11.0391660653 19.9885551815 11.0391660653C16.9388620653 11.0391660653 14.4402614102 13.4631310611 14.2927353546 16.4987594107C11.845773952 17.3268353777 10.1240206614 19.6525523323 10.1240206614 22.3499076455C10.1240206614 23.7422168774 10.5842567834 25.0690274151 11.4158232764 26.1427748164C10.7480035187 27.1460957221 10.3905325893 28.3250722166 10.3905325893 29.5657488916C10.3905325893 32.1594150496 11.9711249012 34.4132682332 14.2882182033 35.3177251225C14.3786638922 38.406224675 16.9007742667 40.8904525759 19.9885551815 40.8904525759C21.5758205578 40.8904525759 23.0382482977 40.2071307763 24.1405358823 39.1004287029C24.3912377806 39.3773095463 24.668118624 39.6303726827 24.9713837376 39.8488385466C25.9196775272 40.5307230708 27.0903383568 40.8904525759 28.2536074842 40.8904525759C31.3034032629 40.8904525759 33.8014906054 38.4664875801 33.949016661 35.430756568C36.3955674135 34.6027832636 38.1176286917 32.2769636464 38.1176286917 29.5797109957C38.1175260292 28.1876070889 37.6579058823 26.8606938887 36.825312764 25.7869464874C36.825312764 25.7869464874 36.825312764 25.7869464874 36.825312764 25.7869464874M22.7785120968 36.2757718524C22.3233064388 37.4200484118 21.2260493181 38.177081908 19.988452519 38.177081908C18.3296313592 38.177081908 16.9794137647 36.8173166982 16.9794137647 35.1463813599C16.9794137647 34.9555317166 16.9984063327 34.7608835598 17.0346462058 34.5691099537C17.0355701686 34.5671593656 17.0355701686 34.56490079 17.0355701686 34.5627448769C17.1504495397 33.9719220167 17.4355433855 33.4324304216 17.8608742473 33.0035063712C18.3867117259 32.4736650539 18.3867117259 31.6143796778 17.8608742473 31.0845383605C17.3350367686 30.5546970431 16.4821164694 30.5546970431 15.9558683406 31.0845383605C15.5107236105 31.5329682915 15.1468876042 32.0460756164 14.8735999493 32.6048677672C13.7940007838 32.0148662073 13.0843973765 30.8668937969 13.0843973765 29.5659542167C13.0843973765 28.6103713875 13.4636327623 27.720800565 14.1522930135 27.0601671845C14.1568101649 27.0557526957 14.1604033534 27.0514408694 14.1650231673 27.0471290431C14.8038920914 26.4402908283 15.6391544355 26.1061242932 16.5188696551 26.1061242932C16.5188696551 26.1061242932 18.7378175785 26.1061242932 18.7378175785 26.1061242932C19.4817102709 26.1061242932 20.0844419845 25.4985674406 20.0844419845 24.7493362967C20.0844419845 23.9998998277 19.4817102709 23.3921376501 18.7378175785 23.3921376501C18.7378175785 23.3921376501 16.5188696551 23.3921376501 16.5188696551 23.3921376501C15.4030306165 23.3921376501 14.3279486024 23.6948894511 13.3885864529 24.2581987532C13.0202332952 23.6986879647 12.8174747985 23.0385678968 12.8174747985 22.3497023205C12.8174747985 20.5906825314 14.1242661428 19.1135740498 15.8564910115 18.9137927664C16.2261787821 18.8710851539 16.5622959053 18.676231672 16.7840469701 18.3753277966C17.006208685 18.0744239211 17.0949091109 17.69416191 17.0287944416 17.3251927772C16.9962504196 17.1433774366 16.9799270773 16.9610487833 16.9799270773 16.7836479315C16.9794137647 15.1128152557 18.3296313592 13.7532553709 19.988452519 13.7532553709C21.2260493181 13.7532553709 22.3233064388 14.5103915297 22.7785120968 15.654668089C22.7785120968 15.654668089 22.7785120968 36.2757718524 22.7785120968 36.2757718524M32.3855689917 33.0165445125C32.015470571 33.0591494625 31.6796614354 33.2541056069 31.4574997205 33.5550094824C31.235235343 33.8559133578 31.1466375796 34.2359700439 31.2127522489 34.6051445017C31.2451936084 34.7869598424 31.2616196132 34.9693911582 31.2616196132 35.1466893475C31.2616196132 36.8172140357 29.9122233189 38.1769792455 28.2535048217 38.1769792455C27.0154973724 38.1769792455 25.9177269391 37.4199457493 25.4625212811 36.2756691899C25.4625212811 36.2756691899 25.4625212811 15.654462764 25.4625212811 15.654462764C25.9177269391 14.5101862046 27.0154973724 13.7530500459 28.2535048217 13.7530500459C29.9122233189 13.7530500459 31.2616196132 15.1126099306 31.2616196132 16.7838532565C31.2616196132 16.9744975747 31.2435510079 17.1692483941 31.2063871721 17.3612273252C31.2063871721 17.3628699257 31.2063871721 17.3653338264 31.2055658718 17.367387077C31.091507801 17.9585179248 30.8064139552 18.4979068574 30.3806724433 18.9268309077C29.8544243145 19.4567748876 29.8544243145 20.3157522761 30.3806724433 20.8455935934C30.9069205721 21.3757428984 31.7593275587 21.3757428984 32.2855756874 20.8455935934C32.73082308 20.3971636624 33.0945564238 19.884364325 33.3683573913 19.3254695117C34.4475459067 19.9154710716 35.1573546391 21.063238157 35.1573546391 22.3641777372C35.1573546391 23.3197605664 34.7778112657 24.2095367139 34.0886377018 24.8701700945C34.0846338632 24.8744819208 34.0809380121 24.8789990721 34.0768315109 24.8833108983C33.4370386239 25.4900464506 32.6022895925 25.8240076607 31.7230876856 25.8240076607C31.7230876856 25.8240076607 29.5041397621 25.8240076607 29.5041397621 25.8240076607C28.7602470698 25.8240076607 28.1566940559 26.4315645133 28.1566940559 27.1810009823C28.1566940559 27.9303347887 28.7602470698 28.5379943038 29.5041397621 28.5379943038C29.5041397621 28.5379943038 31.7230876856 28.5379943038 31.7230876856 28.5379943038C32.838516074 28.5379943038 33.9140087383 28.2352425028 34.8529602377 27.6719332007C35.2217240454 28.2316493143 35.4235585794 28.8918720447 35.4235585794 29.5804296334C35.4235585794 31.3396547475 34.1176911978 32.8165579041 32.3855689917 33.0165445125C32.3855689917 33.0165445125 32.3855689917 33.0165445125 32.3855689917 33.0165445125"
         id="path2"
         style="fill:#ee7f23;" /><path
         d="M19.12783253 4.28715412973C11.5135580049 6.05202568296 5.25494218856 11.8254583826 2.89236938567 19.2787580606C0.47836265525 26.8939565484 2.48202725326 35.4264447417 7.94932028841 41.2249270987C10.9442942761 44.4013057769 14.8786304133 46.6365770426 19.12783253 47.6212133678C20.7155085564 47.9890532128 21.3928759294 45.5456849988 19.8020173645 45.176921191C13.0106856799 43.6027966185 7.38139117245 38.5340395248 5.30226961489 31.84454907C3.19912502531 25.0774457426 4.92549812979 17.529696537 9.82034489766 12.3940034737C12.5252972381 9.55610315692 15.9876937249 7.61588400245 19.8020173645 6.73185695662C21.3907200163 6.36360646151 20.7183831073 3.91890363462 19.12783253 4.28715412973C19.12783253 4.28715412973 19.12783253 4.28715412973 19.12783253 4.28715412973"
         id="path4"
         style="fill:#5a5b5b;" /><path
         d="M28.9979108267 47.6213160303C36.6125960019 45.8565471396 42.8713144808 40.0828064524 45.2332713085 32.6297120995C47.6468673888 25.0145136117 45.6441267536 16.4822307434 40.1763204058 10.6836457239C37.180935768 7.50706172065 33.2470102809 5.27199578002 28.9978081642 4.28715412973C27.4100294752 3.91931428474 26.7322514521 6.36309314886 28.3241366423 6.73185695662C35.1148523517 8.30557087899 40.7446601719 13.3747386228 42.8233710793 20.0640237525C44.9265156689 26.83112708 43.2007585396 34.3788762856 38.3053984591 39.5146720114C35.6004461186 42.3525723282 32.1385629445 44.2927914827 28.3241366423 45.176921191C26.7350233405 45.544761036 27.4073602494 47.9899771756 28.9979108267 47.6213160303C28.9979108267 47.6213160303 28.9979108267 47.6213160303 28.9979108267 47.6213160303"
         id="path6"
         style="fill:#5a5b5b;" /></g><g
       id="g26"><path
         d="M64.8302136726 25.6121121988C65.6709171308 26.0503785394 66.3288812856 26.656395454 66.8029768491 27.4301629426C67.2767644251 28.2034171185 67.5139148694 29.1138284346 67.5139148694 30.1603702654C67.5139148694 31.3141944401 67.1940184259 32.3630975091 66.554636189 33.3065661598C65.9153566147 34.2499321479 65.0049452987 34.8874664592 63.8244288662 35.2182451309C63.2253930037 35.3884596056 62.2900346928 35.4730535304 61.0205098468 35.4730535304C61.0205098468 35.4730535304 55.8956990118 35.4730535304 55.8956990118 35.4730535304C55.8956990118 35.4730535304 55.8956990118 16.4756603415 55.8956990118 16.4756603415C55.8956990118 16.4756603415 60.6177647417 16.4756603415 60.6177647417 16.4756603415C61.8168630921 16.4756603415 62.6838481579 16.5471134623 63.2204652022 16.6904303542C64.302836256 16.9765508253 65.1816275128 17.562240559 65.8571469602 18.4478075428C66.5327690701 19.3334771891 66.8702208063 20.3844335087 66.8702208063 21.6006765016C66.8702208063 22.4682775426 66.6937439172 23.2440982818 66.3403794889 23.9285493693C65.9863990855 24.6125898067 65.4835580135 25.1738458582 64.8302136726 25.6121121988C64.8302136726 25.6121121988 64.8302136726 25.6121121988 64.8302136726 25.6121121988M57.9882693608 24.8474816754C57.9882693608 24.8474816754 60.6176620791 24.8474816754 60.6176620791 24.8474816754C61.0557230946 24.8474816754 61.3823952651 24.8451204372 61.5972679404 24.8406032859C61.8122432782 24.8362914596 62.0511389855 24.8116524524 62.3149816876 24.7668915893C62.5787217272 24.7223360513 62.8095070946 24.659711908 63.0059005145 24.5791218219C63.6139706797 24.3108646311 64.0610659979 23.8994958733 64.3479051067 23.3450155488C64.6339229153 22.7902272367 64.776829157 22.2087466668 64.776829157 21.6006765016C64.776829157 21.359214231 64.7497262491 21.111078896 64.6963417335 20.856167834C64.6429572179 20.6011541095 64.5533328292 20.3239652785 64.4284951927 20.0244986785C64.3027335935 19.7247240909 64.1081880991 19.4450713592 63.8447560471 19.1858484709C63.5805026949 18.9264202576 63.2655340529 18.7253043613 62.8986181707 18.582090132C62.5050100306 18.4300469251 61.7452046461 18.3541793154 60.6176620791 18.3541793154C60.6176620791 18.3541793154 57.9882693608 18.3541793154 57.9882693608 18.3541793154C57.9882693608 18.3541793154 57.9882693608 24.8474816754 57.9882693608 24.8474816754M57.9882693608 26.7256926617C57.9882693608 26.7256926617 57.9882693608 33.594842544 57.9882693608 33.594842544C57.9882693608 33.594842544 61.0204071843 33.594842544 61.0204071843 33.594842544C61.4764341426 33.594842544 61.816657767 33.5907360428 62.0402567573 33.5818044027C62.263342435 33.5726674375 62.5208200603 33.5455645296 62.8112523576 33.5012143167C63.1018899801 33.4564534536 63.3597782554 33.3850003327 63.5832745832 33.2867522915C64.2356949614 32.9913921927 64.7054786987 32.5510726015 64.9912911822 31.9650748803C65.2778223034 31.3791798216 65.4212418578 30.7778853833 65.4212418578 30.1605755905C65.4212418578 29.8655234792 65.387773873 29.5723192936 65.3204272534 29.2818869962C65.2534912838 28.9909413862 65.1507260913 28.6958892749 65.0123370008 28.3964226749C64.8730239476 28.0969560749 64.6702654509 27.821717832 64.4014949473 27.5711185963C64.1332377565 27.3208273481 63.8154972261 27.1241259406 63.4485813439 26.9808090488C63.2431536214 26.9005269503 63.0041552515 26.8398533951 62.7308675967 26.7996096833C62.4579905919 26.7594686341 62.2169389715 26.7371908651 62.0068914351 26.7325710512C61.7960225985 26.7280538999 61.467605165 26.7257953242 61.0206125094 26.7257953242C61.0206125094 26.7257953242 57.9882693608 26.7257953242 57.9882693608 26.7257953242C57.9882693608 26.7257953242 57.9882693608 26.7256926617 57.9882693608 26.7256926617"
         id="path10"
         style="fill:#5a5b5b;" /><path
         d="M72.7459053857 22.4861408228C73.2291379144 21.9046602529 73.7431692022 21.4688578131 74.2888205491 21.1780148656C74.8344718961 20.8872745806 75.4607133291 20.7420071007 76.1674421856 20.7420071007C76.5340500802 20.7420071007 76.9459321506 20.7911824525 77.4019591088 20.8895331563C77.4019591088 20.8895331563 77.1068043351 22.6607697864 77.1068043351 22.6607697864C76.5963662359 22.5799743753 76.194647756 22.539628001 75.8988770071 22.539628001C75.2190457334 22.539628001 74.6290441735 22.7007055105 74.1277430395 23.0226552046C73.6273658683 23.3449128863 73.2648644749 23.778559413 73.0413681471 24.3243134225C72.8445640771 24.7983063235 72.7459053857 25.6390097817 72.7459053857 26.846423797C72.7459053857 26.846423797 72.7459053857 35.4730535304 72.7459053857 35.4730535304C72.7459053857 35.4730535304 70.7338224603 35.4730535304 70.7338224603 35.4730535304C70.7338224603 35.4730535304 70.7338224603 20.9567771134 70.7338224603 20.9567771134C70.7338224603 20.9567771134 72.7459053857 20.9567771134 72.7459053857 20.9567771134C72.7459053857 20.9567771134 72.7459053857 22.4861408228 72.7459053857 22.4861408228"
         id="path12"
         style="fill:#5a5b5b;" /><path
         d="M88.5375584129 26.7392441157C88.5375584129 26.7392441157 88.5375584129 35.4730535304 88.5375584129 35.4730535304C88.5375584129 35.4730535304 86.5249621748 35.4730535304 86.5249621748 35.4730535304C86.5249621748 35.4730535304 86.5249621748 33.9305490171 86.5249621748 33.9305490171C85.5049072767 35.1020311469 84.2752154923 35.6879262057 82.8353735091 35.6879262057C81.4750949866 35.6879262057 80.3649023872 35.256230267 79.5014078473 34.3934543649C78.6382212951 33.5300624876 78.2065253564 32.4545698233 78.2065253564 31.166771047C78.2065253564 30.2007166397 78.4816609368 29.3442031519 79.0318294351 28.5971279211C79.5819979334 27.8505660029 80.3576133475 27.3249338493 81.3593943153 27.0208474355C81.654343764 26.9312230468 81.9810159344 26.8642870772 82.3395134892 26.8197315392C82.6969844186 26.7749706761 83.0100024726 26.7502290064 83.2779516759 26.7460198427C83.546824842 26.7412973663 83.9530604732 26.7392441157 84.4989171452 26.7392441157C84.4989171452 26.7392441157 86.5250648373 26.7392441157 86.5250648373 26.7392441157C86.5250648373 26.0325152592 86.5140799466 25.5227957977 86.4913915274 25.2095724187C86.4689084334 24.8967596898 86.4091588409 24.6106392187 86.3105001496 24.3511083428C86.0869011592 23.7517644927 85.7113616245 23.3001520232 85.1830602451 22.9960656093C84.6552721784 22.691876533 84.051616502 22.539833326 83.3721958785 22.539833326C82.3792438883 22.539833326 81.202833957 22.8663001714 79.8435820598 23.5192338622C79.8435820598 23.5192338622 79.0790541989 21.8556902261 79.0790541989 21.8556902261C80.7067686121 21.1134401342 82.1378842803 20.7421097632 83.3721958785 20.7421097632C84.5612333009 20.7421097632 85.6036686305 21.0283328968 86.4977566043 21.6006765016C87.3918445781 22.1730201063 88.0010440311 22.991343133 88.3229937252 24.0558509065C88.466105292 24.5300491326 88.5375584129 25.4243424314 88.5375584129 26.7392441157C88.5375584129 26.7392441157 88.5375584129 26.7392441157 88.5375584129 26.7392441157M80.219018932 31.166771047C80.219018932 31.9355080716 80.4716714184 32.5820766856 80.9775923662 33.1051422759C81.4824866887 33.6287211789 82.1910634708 33.8902026428 83.1040413501 33.8902026428C83.8371544768 33.8902026428 84.489574855 33.711056528 85.0624317724 33.3535855985C85.6344673895 32.9956013564 86.0371098322 32.4544671608 86.2697431252 31.7300803491C86.3503332112 31.4704468107 86.4106987789 31.1707748857 86.4515584658 30.8309619114C86.4912888649 30.4911489371 86.5138746215 30.1716631437 86.5184944354 29.871683231C86.5220876239 29.5721139685 86.5248595122 29.0826190255 86.5248595122 28.4028904143C86.5248595122 28.4028904143 84.5790965811 28.4028904143 84.5790965811 28.4028904143C83.2914004673 28.4028904143 82.4416627065 28.4653092326 82.0308072615 28.5906601817C81.4489160414 28.7693956464 81.0018207233 29.0892920899 80.6888026693 29.549938862C80.3756819528 30.0106882967 80.219018932 30.5495639166 80.219018932 31.166771047C80.219018932 31.166771047 80.219018932 31.166771047 80.219018932 31.166771047"
         id="path14"
         style="fill:#5a5b5b;" /><path
         d="M92.3274483704 16.5762696209C92.5647014772 16.3392218391 92.8660160027 16.2207492795 93.2333425351 16.2207492795C93.5998477672 16.2207492795 93.9022915805 16.3392218391 94.1384153995 16.5762696209C94.3754631813 16.8132147401 94.4939357409 17.1152479034 94.4939357409 17.4817531355C94.4939357409 17.8485663551 94.3754631813 18.1505995184 94.1384153995 18.3873393126C93.902188918 18.6244897569 93.5998477672 18.7429623165 93.2333425351 18.7429623165C92.8660160027 18.7429623165 92.5645988146 18.6243870944 92.3274483704 18.3873393126C92.0904005886 18.1504968559 91.971928029 17.8484636926 91.971928029 17.4817531355C91.971928029 17.1152479034 92.0904005886 16.8132147401 92.3274483704 16.5762696209C92.3274483704 16.5762696209 92.3274483704 16.5762696209 92.3274483704 16.5762696209M94.2397433167 35.4730535304C94.2397433167 35.4730535304 92.227044416 35.4730535304 92.227044416 35.4730535304C92.227044416 35.4730535304 92.227044416 20.9567771134 92.227044416 20.9567771134C92.227044416 20.9567771134 94.2397433167 20.9567771134 94.2397433167 20.9567771134C94.2397433167 20.9567771134 94.2397433167 35.4730535304 94.2397433167 35.4730535304"
         id="path16"
         style="fill:#5a5b5b;" /><path
         d="M103.764464862 20.7421097632C104.758032828 20.7421097632 105.658485878 21.0036938896 106.468390578 21.526964805C107.277473977 22.0502357205 107.870144762 22.7813982591 108.245684297 23.7205550836C108.380582861 24.0425047776 108.478522915 24.4092153348 108.541660371 24.82048143C108.604181852 25.2320555127 108.639497762 25.5788495391 108.64832674 25.8605555214C108.657361042 26.1420561787 108.661980856 26.5513716858 108.661980856 27.0881940551C108.661980856 27.0881940551 108.661980856 35.4731561929 108.661980856 35.4731561929C108.661980856 35.4731561929 106.649384618 35.4731561929 106.649384618 35.4731561929C106.649384618 35.4731561929 106.649384618 27.2222713193 106.649384618 27.2222713193C106.649384618 26.372430896 106.631110688 25.7572770162 106.59589744 25.3772203302C106.559760229 24.9973689692 106.462128163 24.6326090001 106.300947991 24.2837617231C106.050348755 23.7292813986 105.662900367 23.3000493607 105.139937439 22.9959629468C104.616769187 22.6917738704 104.024098401 22.5397306635 103.36264372 22.5397306635C102.700367739 22.5397306635 102.108210266 22.6917738704 101.585350001 22.9959629468C101.061360448 23.3000493607 100.674836022 23.7292813986 100.424134124 24.2837617231C100.263159277 24.6326090001 100.164500585 24.9973689692 100.129184675 25.3772203302C100.093868765 25.7572770162 100.07580016 26.372430896 100.07580016 27.2222713193C100.07580016 27.2222713193 100.07580016 35.4730535304 100.07580016 35.4730535304C100.07580016 35.4730535304 98.0632039215 35.4730535304 98.0632039215 35.4730535304C98.0632039215 35.4730535304 98.0632039215 20.9567771134 98.0632039215 20.9567771134C98.0632039215 20.9567771134 100.07580016 20.9567771134 100.07580016 20.9567771134C100.07580016 20.9567771134 100.07580016 22.4861408228 100.07580016 22.4861408228C101.130965643 21.3232823455 102.360862752 20.7421097632 103.764464862 20.7421097632C103.764464862 20.7421097632 103.764464862 20.7421097632 103.764464862 20.7421097632"
         id="path18"
         style="fill:#5a5b5b;" /><path
         d="M123.715079642 28.8993664094C123.715079642 28.8993664094 123.715079642 30.7776800583 123.715079642 30.7776800583C123.715079642 30.7776800583 122.105331172 30.7776800583 122.105331172 30.7776800583C122.105331172 30.7776800583 122.105331172 35.4730535304 122.105331172 35.4730535304C122.105331172 35.4730535304 120.011939523 35.4730535304 120.011939523 35.4730535304C120.011939523 35.4730535304 120.011939523 30.7776800583 120.011939523 30.7776800583C120.011939523 30.7776800583 111.88199111 30.7776800583 111.88199111 30.7776800583C111.88199111 30.7776800583 111.88199111 29.4224319998 111.88199111 29.4224319998C111.88199111 29.4224319998 117.436444633 16.4756603415 117.436444633 16.4756603415C117.436444633 16.4756603415 119.542463773 16.4756603415 119.542463773 16.4756603415C119.542463773 16.4756603415 114.203190913 28.8993664094 114.203190913 28.8993664094C114.203190913 28.8993664094 120.012042185 28.8993664094 120.012042185 28.8993664094C120.012042185 28.8993664094 120.012042185 24.2033769621 120.012042185 24.2033769621C120.012042185 24.2033769621 122.105433835 24.2033769621 122.105433835 24.2033769621C122.105433835 24.2033769621 122.105433835 28.8993664094 122.105433835 28.8993664094C122.105433835 28.8993664094 123.715079642 28.8993664094 123.715079642 28.8993664094"
         id="path20"
         style="fill:#ee7f23;" /><path
         d="M127.236301759 16.5762696209C127.473554866 16.3392218391 127.775896017 16.2207492795 128.142195924 16.2207492795C128.508701156 16.2207492795 128.811144969 16.3392218391 129.048090088 16.5762696209C129.28513787 16.8132147401 129.40361043 17.1152479034 129.40361043 17.4817531355C129.40361043 17.8485663551 129.28513787 18.1505995184 129.048090088 18.3873393126C128.811042307 18.6244897569 128.508701156 18.7429623165 128.142195924 18.7429623165C127.775896017 18.7429623165 127.473452203 18.6243870944 127.236301759 18.3873393126C127.000075277 18.1504968559 126.881808043 17.8484636926 126.881808043 17.4817531355C126.881808043 17.1152479034 127.000075277 16.8132147401 127.236301759 16.5762696209C127.236301759 16.5762696209 127.236301759 16.5762696209 127.236301759 16.5762696209M129.148596705 35.4730535304C129.148596705 35.4730535304 127.135897805 35.4730535304 127.135897805 35.4730535304C127.135897805 35.4730535304 127.135897805 20.9567771134 127.135897805 20.9567771134C127.135897805 20.9567771134 129.148596705 20.9567771134 129.148596705 20.9567771134C129.148596705 20.9567771134 129.148596705 35.4730535304 129.148596705 35.4730535304"
         id="path22"
         style="fill:#5a5b5b;" /><path
         d="M133.374802415 31.4080279925C133.374802415 31.4080279925 133.374802415 22.6203207495 133.374802415 22.6203207495C133.374802415 22.6203207495 131.362103515 22.6203207495 131.362103515 22.6203207495C131.362103515 22.6203207495 131.362103515 20.9567771134 131.362103515 20.9567771134C131.362103515 20.9567771134 133.374802415 20.9567771134 133.374802415 20.9567771134C133.374802415 20.9567771134 133.374802415 17.817151621 133.374802415 17.817151621C133.374802415 17.817151621 135.387398653 17.817151621 135.387398653 17.817151621C135.387398653 17.817151621 135.387398653 20.9567771134 135.387398653 20.9567771134C135.387398653 20.9567771134 138.0706892 20.9567771134 138.0706892 20.9567771134C138.0706892 20.9567771134 138.0706892 22.6203207495 138.0706892 22.6203207495C138.0706892 22.6203207495 135.387398653 22.6203207495 135.387398653 22.6203207495C135.387398653 22.6203207495 135.387398653 31.4080279925 135.387398653 31.4080279925C135.387398653 32.3739797373 135.427334377 32.9554603072 135.507719138 33.1522643772C135.714276149 33.6442232209 136.098849986 33.8902026428 136.661645976 33.8902026428C137.109562594 33.8902026428 137.61907673 33.7467830884 138.191933648 33.4608679424C138.191933648 33.4608679424 138.969294325 35.1241035909 138.969294325 35.1241035909C138.128590867 35.5000537758 137.314066354 35.6879262057 136.527671374 35.6879262057C135.767352677 35.6879262057 135.125917189 35.5047762521 134.602748937 35.1377577074C134.079580684 34.7712524753 133.718721891 34.2477762348 133.522431133 33.5681502862C133.423464454 33.2283373119 133.374802415 32.5084676516 133.374802415 31.4080279925C133.374802415 31.4080279925 133.374802415 31.4080279925 133.374802415 31.4080279925"
         id="path24"
         style="fill:#5a5b5b;" /></g></g></svg>