<?xml version="1.0" encoding="UTF-8" standalone="no"?>
<svg
   xmlns:dc="http://purl.org/dc/elements/1.1/"
   xmlns:cc="http://creativecommons.org/ns#"
   xmlns:rdf="http://www.w3.org/1999/02/22-rdf-syntax-ns#"
   xmlns:svg="http://www.w3.org/2000/svg"
   xmlns="http://www.w3.org/2000/svg"
   xmlns:sodipodi="http://sodipodi.sourceforge.net/DTD/sodipodi-0.dtd"
   xmlns:inkscape="http://www.inkscape.org/namespaces/inkscape"
   height="32"
   version="1.1"
   viewBox="0 0 32 32"
   width="32"
   xml:space="preserve"
   id="svg32"
   sodipodi:docname="html.svg"
   inkscape:version="0.92.2 5c3e80d, 2017-08-06"><metadata
     id="metadata38"><rdf:RDF><cc:Work
         rdf:about=""><dc:format>image/svg+xml</dc:format><dc:type
           rdf:resource="http://purl.org/dc/dcmitype/StillImage" /><dc:title></dc:title></cc:Work></rdf:RDF></metadata><defs
     id="defs36" /><sodipodi:namedview
     pagecolor="#ffffff"
     bordercolor="#666666"
     borderopacity="1"
     objecttolerance="10"
     gridtolerance="10"
     guidetolerance="10"
     inkscape:pageopacity="0"
     inkscape:pageshadow="2"
     inkscape:window-width="640"
     inkscape:window-height="480"
     id="namedview34"
     showgrid="true"
     inkscape:snap-global="false"
     inkscape:zoom="7.71875"
     inkscape:cx="15.546559"
     inkscape:cy="13.92348"
     inkscape:current-layer="svg32"><inkscape:grid
       type="xygrid"
       id="grid845" /></sodipodi:namedview><g
     id="g867"
     transform="matrix(0.06537947,0,0,0.06537947,-0.66308311,30.645512)"><g
       transform="translate(0,-480)"
       style="enable-background:new"
       id="形状_1_9_"><g
         id="形状_1"><g
           id="g4"><polygon
             id="polygon2"
             style="clip-rule:evenodd;fill:#e44d26;fill-rule:evenodd"
             points="93.063,116.909 122.719,449.542 255.8,486.486 389.249,449.489 418.938,116.909 " /></g></g></g><g
       transform="translate(0,-480)"
       style="enable-background:new"
       id="形状_1_8_"><g
         id="形状_1_1_"><g
           id="g10"><path
             inkscape:connector-curvature="0"
             id="path8"
             style="clip-rule:evenodd;fill:#ebebeb;fill-rule:evenodd"
             d="M 256,184.903 H 153.702 l 0.977,10.945 10.027,112.422 H 256 V 267.475 H 202.016 L 198.287,225.7 H 256 Z m -45.614,176.303 -2.905,-32.536 h -40.953 l 5.716,64.056 83.568,23.198 0.188,-0.052 v -42.445 l -0.179,0.048 z" /></g></g></g><g
       transform="translate(0,-480)"
       style="enable-background:new"
       id="形状_1_7_"><g
         id="形状_1_2_"><g
           id="g16"><polygon
             id="polygon14"
             style="clip-rule:evenodd;fill:#f16529;fill-rule:evenodd"
             points="363.832,428.313 389.203,144.106 256,144.106 256,458.208 " /></g></g></g><g
       transform="translate(0,-480)"
       style="enable-background:new"
       id="形状_1_6_"><g
         id="形状_1_3_"><g
           id="g22"><path
             inkscape:connector-curvature="0"
             id="path20"
             style="clip-rule:evenodd;fill:#ffffff;fill-rule:evenodd"
             d="m 255.858,308.271 h 50.236 l -4.736,52.91 -45.5,12.281 v 42.442 l 83.634,-23.179 0.614,-6.892 9.587,-107.403 0.995,-10.955 h -94.83 z m 0,-123.368 V 225.7 H 354.4 l 0.818,-9.17 1.859,-20.682 0.975,-10.945 z" /></g></g></g><g
       transform="translate(0,-480)"
       style="enable-background:new"
       id="形状_1_5_"><g
         id="形状_1_4_"><g
           id="g28"><path
             inkscape:connector-curvature="0"
             id="path26"
             style="clip-rule:evenodd;fill-rule:evenodd"
             d="M 163.079,46.997 H 144.114 V 26.514 h -20.731 v 62.028 h 20.732 V 67.771 h 18.964 v 20.771 h 20.732 V 26.514 h -20.733 v 20.483 z m 29.745,0.086 h 18.252 v 41.459 h 20.733 V 47.083 h 18.26 V 26.514 H 192.824 Z M 294.07,48.309 280.771,26.514 h -21.617 v 62.028 h 20.285 V 57.797 l 14.273,22.055 h 0.357 l 14.263,-22.055 v 30.745 h 20.646 V 26.514 h -21.626 z m 65.966,19.73 V 26.514 h -20.738 v 62.028 h 49.894 V 68.039 Z" /></g></g></g></g></svg>