<?xml version="1.0" encoding="UTF-8" standalone="no"?>
<svg
   xmlns:dc="http://purl.org/dc/elements/1.1/"
   xmlns:cc="http://creativecommons.org/ns#"
   xmlns:rdf="http://www.w3.org/1999/02/22-rdf-syntax-ns#"
   xmlns:svg="http://www.w3.org/2000/svg"
   xmlns="http://www.w3.org/2000/svg"
   xmlns:sodipodi="http://sodipodi.sourceforge.net/DTD/sodipodi-0.dtd"
   xmlns:inkscape="http://www.inkscape.org/namespaces/inkscape"
   id="Lager_1"
   version="1.1"
   viewBox="0 0 32 32"
   xml:space="preserve"
   sodipodi:docname="java.svg"
   width="32"
   height="32"
   inkscape:version="0.92.2 5c3e80d, 2017-08-06"><metadata
     id="metadata31"><rdf:RDF><cc:Work
         rdf:about=""><dc:format>image/svg+xml</dc:format><dc:type
           rdf:resource="http://purl.org/dc/dcmitype/StillImage" /><dc:title /></cc:Work></rdf:RDF></metadata><defs
     id="defs29" /><sodipodi:namedview
     pagecolor="#ffffff"
     bordercolor="#666666"
     borderopacity="1"
     objecttolerance="10"
     gridtolerance="10"
     guidetolerance="10"
     inkscape:pageopacity="0"
     inkscape:pageshadow="2"
     inkscape:window-width="640"
     inkscape:window-height="480"
     id="namedview27"
     showgrid="true"
     fit-margin-top="10"
     fit-margin-left="10"
     fit-margin-right="10"
     fit-margin-bottom="10"
     inkscape:snap-global="false"
     inkscape:zoom="10.805475"
     inkscape:cx="24.734856"
     inkscape:cy="15.977372"
     inkscape:current-layer="g24"><inkscape:grid
       type="xygrid"
       id="grid838"
       originx="0"
       originy="0" /></sodipodi:namedview><g
     id="g24"
     transform="translate(-4,-92)"><g
       id="g22"
       transform="matrix(1.5863115,0,0,1.5863115,-10.420846,-61.850705)"><path
         d="m 16.470583,111.99992 0.5,-0.29412 -0.558824,0.14706 c -0.823529,0.23529 -0.941176,0.5 -0.941176,0.70588 0.05882,0.52941 1.411765,0.94118 2.970588,0.94118 0.82353,0 2.029412,-0.11765 3.264706,-0.64706 l 0.176471,-0.0588 -0.176471,-0.0588 c -0.558823,-0.2353 -1,-0.47059 -1,-0.47059 l -0.02941,-0.0294 h -0.02941 c -1,0.17647 -1.617647,0.26471 -2.264706,0.26471 -0.411765,0 -0.852941,-0.0294 -1.470589,-0.0882 -0.558823,-0.0588 -0.617647,-0.17647 -0.617647,-0.20589 0,-0.0882 0.08824,-0.17647 0.176471,-0.20588 z"
         style="fill:#3969b2;stroke-width:0.29411766"
         id="path6"
         inkscape:connector-curvature="0" /><path
         d="m 22.264701,110.85286 -0.205883,-0.0882 c -0.441176,-0.14706 -0.705882,-0.44118 -0.735294,-0.44118 l -0.02941,-0.0294 h -0.02941 c -1.205883,0.2353 -2.147059,0.32353 -3.088236,0.32353 -0.529411,0 -1.058823,-0.0294 -1.764706,-0.11765 -0.470588,-0.0588 -0.588235,-0.17647 -0.588235,-0.23529 -0.02941,-0.11765 0.147056,-0.29413 0.20588,-0.35295 l 0.352941,-0.2647 -0.441177,0.14705 c -0.735294,0.2353 -1.088235,0.5 -1.029412,0.79412 0.08824,0.5 1.382353,0.82353 3.176471,0.82353 1.323529,0 2.735294,-0.20588 3.941177,-0.55882 z"
         style="fill:#3969b2;stroke-width:0.29411766"
         id="path8"
         inkscape:connector-curvature="0" /><path
         d="m 18.882348,104.2058 c -0.235294,0.73529 0,1.55882 0.735294,2.38235 0.235294,0.26471 0.352941,0.55883 0.323529,0.85294 -0.05882,0.55883 -0.529412,0.97059 -0.529412,0.97059 l -0.529411,0.44118 0.617647,-0.32353 c 0.05882,-0.0294 1.264706,-0.64706 1.470588,-1.58824 0.08824,-0.38235 0,-0.7647 -0.235294,-1.11764 l -0.117647,-0.17647 c -0.382353,-0.55883 -0.705883,-0.97059 -0.588235,-1.47059 0.147058,-0.67647 1.058823,-1.44118 2.970588,-2.55883 l 0.441176,-0.2647 -0.5,0.11764 c -0.17647,0.0588 -3.5,0.88236 -4.058823,2.7353 z"
         style="fill:#f3492c;stroke-width:0.29411766"
         id="path10"
         inkscape:connector-curvature="0" /><path
         d="m 17.970583,115.26462 c 3.911765,0 6.676471,-0.73529 6.823529,-1.44117 0.02941,-0.11765 -0.02941,-0.32353 -0.382353,-0.5 l -0.5,-0.2353 0.411765,0.35294 c 0,0 0.117647,0.0882 0.08823,0.20589 -0.02941,0.0882 -0.117647,0.2647 -0.647058,0.41176 -1.029412,0.35294 -3.382353,0.58824 -5.705883,0.58824 -2.17647,0 -3.852941,-0.17648 -4.588235,-0.5 -0.08824,-0.0294 -0.147059,-0.0882 -0.147059,-0.11765 0.02941,-0.14706 0.647059,-0.41177 1.088235,-0.5 0.294123,-0.0588 0.470594,-0.0588 0.558829,-0.0588 0.02941,0 0.02941,0 0.02941,0 l 0.264706,0.0294 -0.205883,-0.20588 c -0.117647,-0.0882 -0.294117,-0.11764 -0.529411,-0.11764 -0.852942,0 -2.470589,0.58823 -2.529412,1.11764 -0.02941,0.26471 0.294117,0.47059 0.970588,0.55883 1.676471,0.2647 3.352941,0.41176 5,0.41176 z"
         style="fill:#3969b2;stroke-width:0.29411766"
         id="path12"
         inkscape:connector-curvature="0" /><path
         d="m 17.235289,109.52933 c 1.794118,0 3.470588,-0.17647 4.67647,-0.5 h 0.02941 c 0.352941,-0.2353 0.82353,-0.44118 0.82353,-0.44118 l 0.588237,-0.2647 -0.647059,0.14705 c 0,0 -1.382353,0.2353 -2.735294,0.35295 -0.941176,0.0882 -1.941176,0.11764 -2.794118,0.11764 -0.647058,0 -1.205882,-0.0294 -1.558823,-0.0882 -0.647059,-0.0882 -0.647059,-0.20587 -0.647059,-0.20587 0,-0.17648 0.941176,-0.5 1.823529,-0.7353 l 0.470589,-0.11765 -0.470589,-0.0294 c 0,0 -0.05882,0 -0.117647,0 -0.411764,0 -1.5,0.0588 -2.764706,0.67647 -0.117647,0.0588 -0.411764,0.20589 -0.382352,0.41177 0.05882,0.52941 2.029411,0.67647 3.705882,0.67647 z"
         style="fill:#3969b2;stroke-width:0.29411766"
         id="path14"
         inkscape:connector-curvature="0" /><path
         d="m 22.999995,107.99992 -0.117647,0.20588 0.205882,-0.0882 c 0,0 0.117647,-0.0588 0.382353,-0.0882 0.05882,0 0.117647,-0.0294 0.205882,-0.0294 0.411765,0 0.911765,0.26471 1.029412,0.76471 0.08823,0.35294 0.05882,1.29411 -2,2.35294 h -0.02941 v 0.0294 c 0,0.0294 -0.02941,0.0588 -0.05882,0.0588 l -0.235294,0.20588 0.294117,-0.0882 c 2.32353,-0.61765 3.058824,-1.70588 2.941177,-2.52941 -0.08823,-0.70589 -0.735294,-1.20589 -1.558824,-1.20589 -0.235294,0 -0.470588,0.0294 -0.705882,0.11765 C 23.117647,107.82353 23,108 23,108 Z"
         style="fill:#3969b2;stroke-width:0.29411766"
         id="path16"
         inkscape:connector-curvature="0" /><path
         d="m 18.794112,107.88227 0.264706,0.23529 -0.147059,-0.32353 c -0.147058,-0.35294 -0.411764,-0.70588 -0.647058,-1.02941 -0.794118,-1.14706 -1.617647,-2.29412 0.617647,-4.05882 1.470588,-1.14706 2.235294,-2.29412 2.294117,-3.382354 0.05882,-0.970588 -0.470588,-1.5 -0.5,-1.529412 l -0.17647,-0.205882 0.05882,0.264706 c 0.5,1.970588 -0.852941,3.029412 -2.17647,4.058822 -0.647059,0.52941 -1.32353,1.05882 -1.764706,1.67647 -0.882353,1.35294 0.529412,2.79412 2.17647,4.29412 z"
         style="fill:#f3492c;stroke-width:0.29411766"
         id="path18"
         inkscape:connector-curvature="0" /><path
         d="m 25.470583,114.29403 c 0,0 -0.294118,0.55883 -2.647059,1 -1.352941,0.26471 -2.941176,0.38236 -4.588235,0.38236 -1.352941,0 -2.676471,-0.0882 -3.676471,-0.26471 l -0.264706,-0.0588 0.235295,0.17647 c 0.05882,0.0294 0.529411,0.35294 2.617647,0.5 0.588235,0.0294 1.235294,0.0588 1.852941,0.0588 v 0 c 3.147059,0 6.558823,-0.47059 6.647059,-1.79412 l 0.02941,-0.41176 z"
         style="fill:#3969b2;stroke-width:0.29411766"
         id="path20"
         inkscape:connector-curvature="0" /></g></g></svg>