<?xml version="1.0" ?><!DOCTYPE svg  PUBLIC '-//W3C//DTD SVG 1.1//EN'  'http://www.w3.org/Graphics/SVG/1.1/DTD/svg11.dtd'><svg enable-background="new 0 0 64 64" height="64px" id="Layer_1" version="1.1" viewBox="0 0 64 64" width="64px" xml:space="preserve" xmlns="http://www.w3.org/2000/svg" xmlns:xlink="http://www.w3.org/1999/xlink"><path d="M62.848,16.853h-0.057c-1.094,0.007-1.263-0.946-1.282-1.386V8.558c0-0.736-0.599-1.334-1.334-1.334H40.423  c-4.957,0-6.805,1.836-7.264,2.414l-0.126,0.174l-0.001,0.002l-0.391,0.536c-0.001,0-0.001,0-0.001,0  c-0.524,0.721-0.981,0.413-1.201,0.178l-0.748-0.933L30.322,9.15c-0.622-0.653-2.242-1.927-5.452-1.927H3.827  c-0.737,0-1.335,0.598-1.335,1.334v6.822c0,1.193-0.648,1.434-1.046,1.473H1.149c-0.324,0.019-1.077,0.208-1.077,1.595v32.505  c0,0.798,0.647,1.444,1.444,1.444h19.205c6.127,0,8.797,2.312,9.598,3.197l0.457,0.566h0.001c0,0,1.225,1.385,2.516,0l0,0  l0.269-0.315v0.003l0.003-0.003l0.341-0.4c0.01-0.012,0.093-0.104,0.211-0.226c1.024-0.995,3.579-2.822,8.575-2.822h19.792  c0.798,0,1.443-0.646,1.443-1.444V18.132C63.928,16.958,63.075,16.859,62.848,16.853z M58.533,45.853  c0,0.64-0.535,1.159-1.201,1.159H41.049c-5.795,0-7.899,2.616-7.899,2.616l-0.267,0.358l-0.125,0.175c-0.001,0-0.001,0-0.001,0  c-0.553,0.75-1.365,0.006-1.369,0l-0.375-0.468c-0.278-0.333-2.407-2.682-7.558-2.682H6.665c-0.663,0-1.198-0.52-1.198-1.159v-34.64  c0-0.64,0.536-1.157,1.198-1.157h13.034c9.696,0,10.614,5.507,10.677,7.106v24.092c0,1.751,0.834,2.078,1.305,2.126h0.701  c0.479-0.048,1.242-0.333,1.242-1.697v-24.83h-0.009c0.074-2.003,0.854-6.797,6.686-6.797h17.031c0.666,0,1.201,0.517,1.201,1.157  V45.853z" fill="#241F20"/></svg>