<?xml version="1.0" encoding="UTF-8" standalone="no"?>
<svg
   xmlns:dc="http://purl.org/dc/elements/1.1/"
   xmlns:cc="http://creativecommons.org/ns#"
   xmlns:rdf="http://www.w3.org/1999/02/22-rdf-syntax-ns#"
   xmlns:svg="http://www.w3.org/2000/svg"
   xmlns="http://www.w3.org/2000/svg"
   xmlns:sodipodi="http://sodipodi.sourceforge.net/DTD/sodipodi-0.dtd"
   xmlns:inkscape="http://www.inkscape.org/namespaces/inkscape"
   enable-background="new 0 0 515.91 728.5"
   height="32"
   id="Layer_1"
   version="1.1"
   viewBox="0 0 32.000002 32"
   width="32"
   xml:space="preserve"
   sodipodi:docname="raspberry.svg"
   inkscape:version="0.92.2 5c3e80d, 2017-08-06"><metadata
     id="metadata9"><rdf:RDF><cc:Work
         rdf:about=""><dc:format>image/svg+xml</dc:format><dc:type
           rdf:resource="http://purl.org/dc/dcmitype/StillImage" /><dc:title></dc:title></cc:Work></rdf:RDF></metadata><sodipodi:namedview
     pagecolor="#ffffff"
     bordercolor="#666666"
     borderopacity="1"
     objecttolerance="10"
     gridtolerance="10"
     guidetolerance="10"
     inkscape:pageopacity="0"
     inkscape:pageshadow="2"
     inkscape:window-width="640"
     inkscape:window-height="480"
     id="namedview7"
     showgrid="true"
     inkscape:zoom="10.805475"
     inkscape:cx="15.49953"
     inkscape:cy="19.981028"
     inkscape:current-layer="g6677"
     inkscape:snap-global="false"><inkscape:grid
       type="xygrid"
       id="grid819" /></sodipodi:namedview><defs
     id="defs7" /><g
     id="g6677"
     transform="translate(136.1786,-371.74999)"><path
       style="opacity:1;fill:#ee8c00;fill-opacity:1;fill-rule:nonzero;stroke:#666666;stroke-width:0;stroke-linecap:round;stroke-linejoin:miter;stroke-miterlimit:4;stroke-dasharray:none;stroke-opacity:1"
       d="m 10.621094,1.8066406 v 0.00195 c 0.14902,0.1845899 0.359892,0.3622187 0.138672,0.5742187 -0.30478,-0.19324 -0.613931,-0.3840744 -1.337891,-0.5214844 0.16315,0.18466 0.5033381,0.3681144 0.2988281,0.5527344 -0.38271,-0.14847 -0.8067906,-0.2558594 -1.2753906,-0.3183594 0.22519,0.18738 0.4124256,0.3724482 0.2285156,0.5175781 C 8.2642481,2.4852813 7.6998375,2.3105344 7.1484375,2.4589844 l 0.3476563,0.3574218 c 0.03873,0.0479 -0.8144063,0.036922 -1.3789063,0.044922 0.20603,0.29062 0.4146794,0.5715225 0.5371094,1.0703125 -0.05594,0.0575 -0.3378125,0.0255 -0.6015625,0 0.27047,0.57803 0.7419025,0.7233631 0.8515625,0.9707032 -0.16526,0.1258799 -0.3939913,0.094112 -0.6445313,0.00781 0.1947,0.40718 0.6011781,0.6871082 0.9238282,1.0175782 -0.0816,0.058 -0.2230969,0.091581 -0.5605469,0.050781 0.29812,0.32168 0.6590475,0.6164294 1.0859375,0.8808594 -0.0756,0.0896 -0.3350519,0.085797 -0.5761719,0.091797 0.38664,0.38411 0.8832294,0.5825644 1.3496094,0.8339843 C 8.2499319,7.9462262 8.08426,7.90825 7.90625,7.90625 8.23609,8.18137 8.7977094,8.3261175 9.3183594,8.4921875 9.2193994,8.6485075 9.1199131,8.690475 8.9082031,8.734375 c 0.55117,0.30977 1.3398499,0.1659088 1.5624999,0.3242188 -0.05367,0.1555999 -0.204999,0.2591499 -0.386719,0.34375 0.88728,0.05232 3.314087,-0.034158 3.779297,-1.8984376 -0.90804,-1.0126399 -2.565805,-2.2002718 -5.4160154,-3.6699218 2.2170304,0.75368 4.2172184,1.758925 5.8925784,3.140625 1.96965,-0.93099 0.61136,-3.2806406 -0.34961,-4.2128906 -0.04872,0.2461799 -0.103015,0.4032187 -0.166015,0.4492187 -0.31288,-0.34054 -0.569796,-0.6899381 -0.972657,-1.0175781 -0.0012,0.19242 0.09715,0.4000544 -0.142578,0.5527344 -0.21601,-0.29493 -0.508834,-0.55785 -0.896484,-0.78125 0.18679,0.32683 0.03601,0.42707 -0.06445,0.5625 -0.29599,-0.2576501 -0.581103,-0.5184632 -1.126953,-0.7207032 z"
       transform="translate(-136.1786,371.74999)"
       id="path863" /><path
       style="opacity:1;fill:#ee8c00;fill-opacity:1;fill-rule:nonzero;stroke:#666666;stroke-width:0;stroke-linecap:round;stroke-linejoin:miter;stroke-miterlimit:4;stroke-dasharray:none;stroke-opacity:1"
       d="m 21.378906,1.8066406 c -0.54584,0.20224 -0.830973,0.4630331 -1.126953,0.7207032 -0.1005,-0.13545 -0.253086,-0.2376132 -0.06641,-0.5644532 -0.38762,0.22342 -0.678521,0.4882832 -0.894531,0.7832032 -0.23973,-0.1526701 -0.141678,-0.3603044 -0.142578,-0.5527344 -0.40283,0.32765 -0.66172,0.675085 -0.97461,1.015625 -0.06296,-0.04596 -0.115262,-0.2030288 -0.164062,-0.4492188 -0.961,0.93226 -2.31927,3.2819006 -0.34961,4.2128906 1.67532,-1.3817 3.675558,-2.3869349 5.892578,-3.140625 -2.85021,1.4696601 -4.507985,2.6572819 -5.416015,3.6699219 0.4652,1.8641 2.892007,1.9526907 3.779297,1.9003907 -0.18173,-0.08456 -0.333119,-0.18816 -0.386719,-0.34375 0.22265,-0.1583 1.01133,-0.016562 1.5625,-0.3261719 -0.2117,-0.04387 -0.311256,-0.085888 -0.410156,-0.2421875 0.52062,-0.16606 1.082249,-0.3108175 1.412109,-0.5859375 -0.17802,0.00221 -0.343702,0.041999 -0.576172,-0.1191407 0.46637,-0.2514199 0.96298,-0.4518474 1.34961,-0.8359374 -0.24113,-0.0059 -0.500572,-0.0031 -0.576172,-0.091797 0.42687,-0.26445 0.787827,-0.5591594 1.085937,-0.8808594 -0.33743,0.0405 -0.479047,0.00802 -0.560547,-0.050781 0.32266,-0.3304899 0.729118,-0.6084549 0.923828,-1.015625 -0.25055,0.0874 -0.479291,0.1172944 -0.644531,-0.00977 0.10964,-0.24733 0.581103,-0.3907 0.851563,-0.96875 -0.26376,0.0256 -0.545563,0.0576 -0.601563,0 0.12242,-0.49877 0.33108,-0.7796925 0.537109,-1.0703125 -0.564509,-0.0085 -1.419559,8.25e-4 -1.380859,-0.046875 l 0.349609,-0.3554687 c -0.551409,-0.14846 -1.11581,0.024424 -1.52539,0.1523437 -0.18394,-0.14513 0.0041,-0.3302381 0.228516,-0.5175781 -0.468621,0.06256 -0.892671,0.1698894 -1.275391,0.3183594 -0.20451,-0.18462 0.135708,-0.3680944 0.298828,-0.5527344 -0.72394,0.13739 -1.033131,0.3301975 -1.337891,0.5234375 -0.22121,-0.212 -0.01057,-0.3915719 0.138672,-0.5761719 z"
       transform="translate(-136.1786,371.74999)"
       id="path861" /><path
       style="opacity:1;fill:#ee0000;fill-opacity:1;fill-rule:nonzero;stroke:#666666;stroke-width:0;stroke-linecap:round;stroke-linejoin:miter;stroke-miterlimit:4;stroke-dasharray:none;stroke-opacity:1"
       d="m 16,9.5195312 c -1.70052,0 -3.118094,1.1546248 -3.121094,1.8339848 -0.0044,0.85224 1.243087,1.728 3.097656,1.75 0.0077,3e-5 0.01644,-3e-5 0.02344,0 0.0077,-3e-5 0.01644,3e-5 0.02344,0 1.85454,-0.02208 3.103609,-0.89776 3.099609,-1.75 C 19.119537,10.674156 17.70051,9.5195312 16,9.5195312 Z"
       transform="translate(-136.1786,371.74999)"
       id="path859" /><path
       style="opacity:1;fill:#ee0000;fill-opacity:1;fill-rule:nonzero;stroke:#666666;stroke-width:0;stroke-linecap:round;stroke-linejoin:miter;stroke-miterlimit:4;stroke-dasharray:none;stroke-opacity:1"
       d="m 11.228516,10.078125 c -2.1919504,0.03504 -3.8705691,1.549711 -3.7929691,4.056641 0.08675,1.09628 5.7157211,-3.819152 4.7441411,-3.982422 -0.28849,-0.0487 -0.572137,-0.07222 -0.847657,-0.07422 -0.03505,-7e-4 -0.06872,-7e-4 -0.103515,0 z"
       transform="translate(-136.1786,371.74999)"
       id="path857" /><path
       style="opacity:1;fill:#ee0000;fill-opacity:1;fill-rule:nonzero;stroke:#666666;stroke-width:0;stroke-linecap:round;stroke-linejoin:miter;stroke-miterlimit:4;stroke-dasharray:none;stroke-opacity:1"
       d="m 20.667969,10.078125 c -0.27552,0.0014 -0.559186,0.02542 -0.847657,0.07422 -0.971599,0.16326 4.657441,5.078712 4.744141,3.982422 0.07765,-2.50693 -1.601029,-4.021641 -3.792969,-4.056641 -0.03495,-7e-4 -0.06842,-7e-4 -0.103515,0 z"
       transform="translate(-136.1786,371.74999)"
       id="path855" /><path
       style="opacity:1;fill:#ee0000;fill-opacity:1;fill-rule:nonzero;stroke:#666666;stroke-width:0;stroke-linecap:round;stroke-linejoin:miter;stroke-miterlimit:4;stroke-dasharray:none;stroke-opacity:1"
       d="m 12.125,13.207031 c -1.40502,0.01046 -2.76001,1.001537 -3.28125,2.535157 -0.6415,1.887519 0.2210344,3.882168 1.927734,4.455078 1.70669,0.57289 3.612377,-0.49336 4.253907,-2.38086 0.6415,-1.88754 -0.221045,-3.882188 -1.927735,-4.455078 -0.32001,-0.1073 -0.648406,-0.156297 -0.972656,-0.154297 z"
       transform="translate(-136.1786,371.74999)"
       id="path853" /><path
       style="opacity:1;fill:#ee0000;fill-opacity:1;fill-rule:nonzero;stroke:#666666;stroke-width:0;stroke-linecap:round;stroke-linejoin:miter;stroke-miterlimit:4;stroke-dasharray:none;stroke-opacity:1"
       d="m 19.875,13.207031 c -0.32423,-0.0024 -0.652666,0.04682 -0.972656,0.154297 -1.70669,0.57289 -2.569235,2.567538 -1.927735,4.455078 0.64152,1.8875 2.547217,2.95375 4.253907,2.38086 1.70671,-0.57291 2.569204,-2.567559 1.927734,-4.455078 -0.52124,-1.53362 -1.87621,-2.524457 -3.28125,-2.535157 z"
       transform="translate(-136.1786,371.74999)"
       id="path851" /><path
       style="opacity:1;fill:#ee0000;fill-opacity:1;fill-rule:nonzero;stroke:#666666;stroke-width:0;stroke-linecap:round;stroke-linejoin:miter;stroke-miterlimit:4;stroke-dasharray:none;stroke-opacity:1"
       d="m 24.867188,15.3125 c -1.3299,0.01952 -0.341499,6.324273 0.863281,5.789062 1.36768,-1.10003 1.807184,-4.319608 -0.728516,-5.767578 -0.03585,-0.0108 -0.06856,-0.01558 -0.101562,-0.01758 -0.0107,0 -0.0225,-0.002 -0.0332,-0.002 z"
       transform="translate(-136.1786,371.74999)"
       id="path849" /><path
       style="opacity:1;fill:#ee0000;fill-opacity:1;fill-rule:nonzero;stroke:#666666;stroke-width:0;stroke-linecap:round;stroke-linejoin:miter;stroke-miterlimit:4;stroke-dasharray:none;stroke-opacity:1"
       d="m 7.1328125,15.314453 c -0.0105,0 -0.022403,0.0013 -0.033203,0.002 -0.03293,0.002 -0.065663,0.0086 -0.1015625,0.01758 -2.5357,1.44797 -2.0962157,4.667559 -0.7285157,5.767578 1.20477,0.53523 2.1931813,-5.767509 0.8632813,-5.787109 z"
       transform="translate(-136.1786,371.74999)"
       id="path847" /><path
       style="opacity:1;fill:#ee0000;fill-opacity:1;fill-rule:nonzero;stroke:#666666;stroke-width:0;stroke-linecap:round;stroke-linejoin:miter;stroke-miterlimit:4;stroke-dasharray:none;stroke-opacity:1"
       d="m 16,19.671875 c -0.89634,0 -1.736423,0.325253 -2.345703,0.876953 -0.64991,0.58847 -1.028438,1.427678 -1.023438,2.267578 0,0.82468 0.36764,1.64147 1,2.22461 0.62145,0.57301 1.490571,0.914281 2.369141,0.925781 0.87854,-0.01155 1.747701,-0.352771 2.369141,-0.925781 0.63236,-0.58314 1,-1.39993 1,-2.22461 0.005,-0.8399 -0.373518,-1.679108 -1.023438,-2.267578 C 17.736433,19.997128 16.89635,19.671875 16,19.671875 Z"
       transform="translate(-136.1786,371.74999)"
       id="path845" /><path
       style="opacity:1;fill:#ee0000;fill-opacity:1;fill-rule:nonzero;stroke:#666666;stroke-width:0;stroke-linecap:round;stroke-linejoin:miter;stroke-miterlimit:4;stroke-dasharray:none;stroke-opacity:1"
       d="m 8.15625,21.320312 c -0.24654,0.005 -0.4753906,0.06584 -0.6816406,0.191407 -0.63048,0.47983 -0.7475994,2.11369 0.1503906,3.71875 1.33147,1.91276 3.205123,2.104062 3.976562,1.638672 0.81535,-0.6096 0.371562,-2.678399 -0.605468,-3.855469 -0.87601,-1.01644 -1.959364,-1.71146 -2.839844,-1.69336 z"
       transform="translate(-136.1786,371.74999)"
       id="path843" /><path
       style="opacity:1;fill:#ee0000;fill-opacity:1;fill-rule:nonzero;stroke:#666666;stroke-width:0;stroke-linecap:round;stroke-linejoin:miter;stroke-miterlimit:4;stroke-dasharray:none;stroke-opacity:1"
       d="m 23.759766,21.320312 c -0.86485,0.02529 -1.90722,0.70868 -2.75586,1.69336 -0.97706,1.17707 -1.420809,3.245869 -0.605468,3.855469 0.771429,0.46539 2.645062,0.274088 3.976562,-1.638672 0.89798,-1.60506 0.780871,-3.23892 0.150391,-3.71875 -0.20626,-0.12559 -0.435121,-0.186407 -0.681641,-0.191407 -0.0274,-6.9e-4 -0.05598,-6.9e-4 -0.08398,0 z"
       transform="translate(-136.1786,371.74999)"
       id="path841" /><path
       style="opacity:1;fill:#ee0000;fill-opacity:1;fill-rule:nonzero;stroke:#666666;stroke-width:0;stroke-linecap:round;stroke-linejoin:miter;stroke-miterlimit:4;stroke-dasharray:none;stroke-opacity:1"
       d="m 16,26.958984 c -1.36417,-0.01554 -3.392088,0.558586 -3.367188,1.291016 -0.02176,0.50708 1.643024,1.969784 3.339844,1.896484 0.0094,0 0.01834,-8e-5 0.02734,0 0.0094,-8e-5 0.01834,0 0.02734,0 1.6968,0.07324 3.361643,-1.389404 3.339844,-1.896484 C 19.392148,27.51757 17.36417,26.943484 16,26.958984 Z"
       transform="translate(-136.1786,371.74999)"
       id="rect833" /><path
       d="m -125.59507,372.79541 c -0.15193,0.004 -0.31355,0.0599 -0.49911,0.20626 -0.45456,-0.17528 -0.897,-0.23716 -1.29111,0.1197 -0.60856,-0.0789 -0.80511,0.0848 -0.95494,0.27502 -0.13359,-0.002 -1.00088,-0.13663 -1.39806,0.45584 -0.9981,-0.11812 -1.31238,0.58763 -0.95494,1.24525 -0.20384,0.31558 -0.41561,0.62583 0.0611,1.22743 -0.16865,0.33509 -0.0637,0.69843 0.33359,1.13829 -0.10489,0.47106 0.10141,0.80293 0.47111,1.06192 -0.0691,0.6446 0.58973,1.02011 0.78689,1.15358 0.0756,0.37563 0.23394,0.73097 0.98805,0.92695 0.12437,0.55967 0.57717,0.65668 1.01605,0.77415 -1.45059,0.84321 -2.69504,1.95087 -2.68659,4.67289 l -0.21136,0.37945 c -1.66331,1.01148 -3.16007,4.26367 -0.81997,6.90621 0.15284,0.82712 0.40837,1.42042 0.63662,2.078 0.34139,2.64963 2.5701,3.89207 3.15772,4.0388 0.86111,0.6559 1.7791,1.27794 3.02018,1.71382 1.16993,1.20661 2.43588,1.66615 3.76124,1.6662 1.32538,3e-5 2.59132,-0.45959 3.76126,-1.6662 1.24107,-0.43588 2.15907,-1.05792 3.02018,-1.71382 0.58762,-0.14673 2.81633,-1.38917 3.15771,-4.0388 0.22825,-0.65758 0.48376,-1.25088 0.63664,-2.078 2.34009,-2.64254 0.84331,-5.89473 -0.81999,-6.90621 l -0.21136,-0.37945 c 0.008,-2.72202 -1.23601,-3.82968 -2.68659,-4.67289 0.43887,-0.11747 0.89169,-0.21448 1.01606,-0.77415 0.7541,-0.19598 0.91236,-0.55132 0.98805,-0.92695 0.19715,-0.13347 0.85603,-0.50898 0.78689,-1.15358 0.36962,-0.25899 0.57594,-0.59086 0.47111,-1.06192 0.39725,-0.43986 0.50224,-0.8032 0.3336,-1.13829 0.47673,-0.6016 0.26495,-0.91185 0.061,-1.22743 0.35742,-0.65762 0.0432,-1.36337 -0.95495,-1.24525 -0.39716,-0.59247 -1.26446,-0.45869 -1.39804,-0.45584 -0.14985,-0.19023 -0.34638,-0.35396 -0.95497,-0.27502 -0.39409,-0.35686 -0.83654,-0.29498 -1.29109,-0.1197 -0.18556,-0.14638 -0.34721,-0.20153 -0.49912,-0.20626 -0.28993,-0.008 -0.53693,0.16739 -0.8047,0.25211 -0.6539,-0.21355 -0.80202,0.077 -1.12303,0.19607 -0.71266,-0.15062 -0.92866,0.17855 -1.27072,0.52461 l -0.3998,-0.007 c -1.07473,0.63333 -1.60591,1.9215 -1.81823,1.9215 -0.21235,0 -0.74352,-1.28817 -1.81825,-1.9215 l -0.3998,0.007 c -0.34206,-0.34606 -0.55806,-0.67523 -1.27072,-0.52461 -0.32101,-0.1191 -0.46912,-0.40962 -1.12302,-0.19607 -0.26778,-0.0847 -0.51477,-0.26109 -0.80472,-0.25211 z m 0.0382,0.76141 c 0.54585,0.20224 0.82958,0.46302 1.12557,0.72067 0.10046,-0.13543 0.25289,-0.23596 0.0661,-0.56279 0.38765,0.2234 0.68039,0.48687 0.8964,0.7818 0.23973,-0.15268 0.14135,-0.36017 0.1426,-0.55259 0.40286,0.32764 0.65991,0.67551 0.97279,1.01605 0.063,-0.046 0.1168,-0.202 0.16552,-0.44818 0.96097,0.93225 2.31853,3.28098 0.34888,4.21197 -1.67536,-1.3817 -3.67567,-2.38619 -5.8927,-3.13987 2.85021,1.46965 4.50847,2.65692 5.41651,3.66956 -0.46521,1.86428 -2.89179,1.95202 -3.77907,1.8997 0.18172,-0.0846 0.3334,-0.18816 0.38707,-0.34376 -0.22265,-0.15831 -1.01241,-0.0162 -1.56358,-0.32597 0.21171,-0.0439 0.31103,-0.0856 0.40999,-0.24192 -0.52065,-0.16607 -1.08093,-0.31059 -1.41077,-0.58571 0.17801,0.002 0.34303,0.0414 0.57552,-0.11967 -0.46638,-0.25142 -0.96303,-0.45117 -1.34967,-0.83528 0.24112,-0.006 0.49992,-0.002 0.57552,-0.0916 -0.42689,-0.26443 -0.78672,-0.55943 -1.08484,-0.88111 0.33745,0.0408 0.47864,0.007 0.56024,-0.051 -0.32265,-0.33047 -0.72969,-0.60887 -0.92439,-1.01605 0.25054,0.0863 0.47902,0.11688 0.64428,-0.009 -0.10966,-0.24734 -0.58008,-0.3922 -0.85055,-0.97023 0.26375,0.0255 0.54504,0.0575 0.60098,0 -0.12243,-0.49879 -0.33129,-0.77894 -0.53732,-1.06956 0.5645,-0.008 1.41896,0.002 1.38023,-0.0459 l -0.34889,-0.35653 c 0.5514,-0.14845 1.11581,0.0248 1.52539,0.1528 0.18391,-0.14513 -0.004,-0.32958 -0.22919,-0.51696 0.4686,0.0625 0.89309,0.16984 1.2758,0.31831 0.20451,-0.18462 -0.13479,-0.36793 -0.29794,-0.55259 0.72396,0.13741 1.03217,0.32881 1.33695,0.52205 0.22122,-0.212 0.0115,-0.39093 -0.13752,-0.57552 z m 10.75657,0 c -0.14924,0.1846 -0.35872,0.36353 -0.13751,0.57553 0.30476,-0.19324 0.61299,-0.38466 1.33693,-0.52205 -0.16312,0.18464 -0.50244,0.36797 -0.29793,0.55259 0.38272,-0.14847 0.80719,-0.25574 1.27581,-0.3183 -0.22438,0.18734 -0.41311,0.37181 -0.22917,0.51694 0.40958,-0.12792 0.97396,-0.30124 1.52537,-0.15278 l -0.34888,0.35651 c -0.0387,0.0477 0.81571,0.0374 1.38022,0.0459 -0.20603,0.29062 -0.4149,0.57078 -0.53732,1.06955 0.056,0.0576 0.33723,0.0256 0.60099,0 -0.27046,0.57805 -0.7409,0.72291 -0.85054,0.97024 0.16524,0.12706 0.39372,0.0964 0.64427,0.009 -0.19471,0.40717 -0.60174,0.68557 -0.9244,1.01606 0.0815,0.0588 0.2228,0.0915 0.56023,0.051 -0.29811,0.3217 -0.65795,0.61667 -1.08482,0.88112 0.0756,0.0887 0.33439,0.0857 0.57552,0.0916 -0.38663,0.38409 -0.88329,0.58385 -1.34966,0.83527 0.23247,0.16114 0.3975,0.12187 0.57552,0.11966 -0.32986,0.27512 -0.89016,0.41966 -1.41078,0.58572 0.0989,0.1563 0.19828,0.19806 0.40998,0.24193 -0.55117,0.30961 -1.34093,0.16766 -1.56358,0.32596 0.0536,0.15559 0.20535,0.2592 0.38708,0.34376 -0.88729,0.0523 -3.31388,-0.0356 -3.77908,-1.8997 0.90803,-1.01264 2.56629,-2.19991 5.4165,-3.66957 -2.21702,0.75369 -4.21736,1.75818 -5.89268,3.13988 -1.96966,-0.93099 -0.61212,-3.27972 0.34888,-4.21198 0.0488,0.24619 0.10255,0.40223 0.16551,0.44819 0.31289,-0.34054 0.56994,-0.68841 0.97277,-1.01606 9e-4,0.19243 -0.0971,0.39992 0.14263,0.55259 0.21601,-0.29492 0.50874,-0.55838 0.89636,-0.7818 -0.18668,0.32684 -0.0342,0.42736 0.0663,0.56281 0.29598,-0.25767 0.57971,-0.51844 1.12555,-0.72068 z m -5.37828,7.71216 c 1.70051,0 3.11855,1.15546 3.12206,1.83482 0.004,0.85224 -1.2446,1.72741 -3.09914,1.74949 -0.007,3e-5 -0.0152,-3e-5 -0.0229,0 -0.007,-3e-5 -0.0152,3e-5 -0.0229,0 -1.85457,-0.022 -3.10352,-0.89725 -3.09914,-1.74949 0.003,-0.67936 1.42154,-1.83482 3.12206,-1.83482 z m -4.77221,0.55901 c 0.0348,-7e-4 0.0694,-7e-4 0.10445,0 0.27552,0.002 0.55952,0.0251 0.84801,0.0738 0.97158,0.16327 -4.65746,5.07907 -4.74421,3.98279 -0.0776,-2.50693 1.59985,-4.02161 3.7918,-4.05665 z m 9.44002,0 c 0.0351,-7e-4 0.0695,-7e-4 0.10445,0 2.19194,0.035 3.86944,1.54971 3.79179,4.05664 -0.0867,1.09629 -5.7158,-3.81953 -4.7442,-3.98279 0.28847,-0.0488 0.57248,-0.0724 0.848,-0.0738 z m -8.54365,3.12969 c 0.32425,-0.002 0.65278,0.0455 0.97279,0.1528 1.70669,0.57289 2.56923,2.56891 1.92773,4.45645 -0.64153,1.8875 -2.54604,2.9539 -4.25273,2.38101 -1.7067,-0.57291 -2.56923,-2.56892 -1.92773,-4.45644 0.52124,-1.53362 1.87492,-2.52336 3.27994,-2.53382 z m 7.75166,0 c 1.40504,0.0107 2.75873,1.0002 3.27997,2.53382 0.64147,1.88752 -0.22104,3.88353 -1.92775,4.45644 -1.70669,0.57289 -3.6112,-0.49351 -4.25272,-2.38101 -0.6415,-1.88754 0.22104,-3.88356 1.92773,-4.45645 0.31999,-0.10748 0.64854,-0.15516 0.97277,-0.1528 z m -12.74287,2.10599 c 1.3299,0.0196 0.34148,6.32352 -0.86329,5.78829 -1.3677,-1.10002 -1.80738,-4.31993 0.72832,-5.7679 0.0359,-0.009 0.0689,-0.0158 0.10183,-0.0178 0.0108,-6.9e-4 0.0227,-0.002 0.0332,-0.002 z m 17.7341,0 c 0.0107,0 0.0224,0.002 0.0331,0.002 0.033,0.002 0.066,0.007 0.10185,0.0178 2.5357,1.44797 2.096,4.66789 0.72832,5.76792 -1.20478,0.53521 -2.19319,-5.76876 -0.86329,-5.78828 z m -8.86707,4.35912 c 0.89635,0 1.73611,0.32488 2.34538,0.87658 0.64992,0.58847 1.02868,1.42651 1.02371,2.26641 0,0.82468 -0.36843,1.64256 -1.00079,2.2257 -0.62144,0.57301 -1.48974,0.91283 -2.36828,0.92438 -0.87857,-0.0115 -1.74684,-0.35137 -2.36829,-0.92438 -0.63236,-0.58314 -1.00077,-1.40102 -1.00077,-2.2257 -0.005,-0.8399 0.37378,-1.67794 1.02369,-2.26641 0.60928,-0.5517 1.44901,-0.87658 2.34535,-0.87658 z m -7.84331,1.64817 c 0.88048,-0.0181 1.96336,0.67702 2.83937,1.69346 0.97703,1.17707 1.42143,3.24584 0.60608,3.85544 -0.77144,0.46539 -2.64622,0.27281 -3.97769,-1.63995 -0.89799,-1.60506 -0.78073,-3.23813 -0.15025,-3.71796 0.20625,-0.12557 0.43595,-0.18597 0.68249,-0.19099 z m 15.60263,0 c 0.028,-6.9e-4 0.0566,-6.9e-4 0.084,0 0.24652,0.005 0.47621,0.0654 0.68247,0.19099 0.63048,0.47983 0.74773,2.1129 -0.15025,3.71796 -1.3315,1.91276 -3.20628,2.10534 -3.97771,1.63995 -0.81534,-0.6096 -0.37097,-2.67837 0.60609,-3.85544 0.84864,-0.98468 1.8905,-1.66817 2.75535,-1.69346 z m -7.7593,5.63805 c 1.36417,-0.0155 3.39149,0.55868 3.36653,1.29111 0.0218,0.50708 -1.64173,1.97039 -3.33853,1.89715 -0.009,0 -0.0187,-8e-5 -0.0281,0 -0.009,-8e-5 -0.0186,0 -0.028,0 -1.69682,0.0733 -3.36029,-1.39007 -3.33853,-1.89715 -0.0249,-0.73243 2.00236,-1.30665 3.36653,-1.29111 z"
       id="path5175-4"
       style="fill:#000000;fill-opacity:1;stroke-width:0.08707271"
       inkscape:connector-curvature="0" /></g></svg>