<?xml version="1.0" encoding="UTF-8" standalone="no"?>
<!-- Generator: Adobe Illustrator 16.0.0, SVG Export Plug-In . SVG Version: 6.00 Build 0)  -->

<svg
   xmlns:dc="http://purl.org/dc/elements/1.1/"
   xmlns:cc="http://creativecommons.org/ns#"
   xmlns:rdf="http://www.w3.org/1999/02/22-rdf-syntax-ns#"
   xmlns:svg="http://www.w3.org/2000/svg"
   xmlns="http://www.w3.org/2000/svg"
   xmlns:sodipodi="http://sodipodi.sourceforge.net/DTD/sodipodi-0.dtd"
   xmlns:inkscape="http://www.inkscape.org/namespaces/inkscape"
   version="1.1"
   id="Capa_1"
   x="0px"
   y="0px"
   width="20"
   height="20"
   viewBox="0 0 20.000001 20.000001"
   enable-background="new 0 0 283.46 283.46"
   xml:space="preserve"
   sodipodi:docname="air_conditioning.svg"
   inkscape:version="0.92.2 5c3e80d, 2017-08-06"
   inkscape:export-filename="/Users/realor/Desktop/air_conditioning.png"
   inkscape:export-xdpi="96"
   inkscape:export-ydpi="96"><metadata
     id="metadata17"><rdf:RDF><cc:Work
         rdf:about=""><dc:format>image/svg+xml</dc:format><dc:type
           rdf:resource="http://purl.org/dc/dcmitype/StillImage" /><dc:title></dc:title></cc:Work></rdf:RDF></metadata><defs
     id="defs15" /><sodipodi:namedview
     pagecolor="#ffffff"
     bordercolor="#666666"
     borderopacity="1"
     objecttolerance="10"
     gridtolerance="10"
     guidetolerance="10"
     inkscape:pageopacity="0"
     inkscape:pageshadow="2"
     inkscape:window-width="640"
     inkscape:window-height="480"
     id="namedview13"
     showgrid="true"
     inkscape:snap-global="false"
     inkscape:zoom="19.557318"
     inkscape:cx="9.6684174"
     inkscape:cy="9.0282596"
     inkscape:current-layer="Capa_1"><inkscape:grid
       type="xygrid"
       id="grid824" /></sodipodi:namedview><g
     id="g10"
     transform="matrix(0.06459389,0,0,0.06459389,-0.40132515,0.89785742)"><path
       d="m 262.23,159.706 c -2.058,-4.534 -7.448,-6.565 -11.978,-4.508 l -23.241,10.529 -41.595,-27.681 39.966,-26.591 25.431,8.764 c 4.705,1.62 9.882,-0.899 11.502,-5.605 1.624,-4.706 -0.899,-9.882 -5.604,-11.502 l -12.377,-4.269 9.849,-6.553 c 4.144,-2.755 5.279,-8.404 2.519,-12.543 -2.755,-4.144 -8.399,-5.28 -12.543,-2.52 l -12.081,8.04 -1.027,-15.775 c -0.328,-4.967 -4.654,-8.764 -9.622,-8.438 -4.967,0.326 -8.764,4.654 -8.438,9.617 l 1.705,26.159 -36.564,24.333 V 80.055 l 22.277,-14.818 c 4.143,-2.751 5.279,-8.4 2.519,-12.544 -2.751,-4.144 -8.399,-5.275 -12.539,-2.524 L 178.13,58.32 V 44.195 c 0,-4.98 -4.07,-9.051 -9.051,-9.051 -4.971,0 -9.042,4.071 -9.042,9.051 v 8.691 c -46.441,2.597 -83.451,41.089 -83.451,88.169 0,47.072 37.01,85.564 83.451,88.17 v 7.363 c 0,4.979 4.071,9.051 9.042,9.051 4.98,0 9.051,-4.071 9.051,-9.051 V 227.4 l 12.017,7.996 c 4.149,2.752 9.788,1.62 12.549,-2.527 2.756,-4.141 1.62,-9.789 -2.525,-12.541 l -22.04,-14.664 V 154.94 l 38.305,25.482 0.789,27.641 c 0.137,4.972 4.327,8.933 9.299,8.785 4.976,-0.136 8.931,-4.327 8.785,-9.299 l -0.421,-14.846 9.271,6.173 c 4.144,2.751 9.788,1.619 12.543,-2.53 2.761,-4.139 1.625,-9.787 -2.519,-12.538 l -9.412,-6.257 12.951,-5.872 c 4.532,-2.056 6.556,-7.443 4.508,-11.973 z M 94.14,141.055 c 0,-37.399 29.137,-68.045 65.897,-70.616 v 62.766 9.693 68.773 c -36.76,-2.57 -65.897,-33.22 -65.897,-70.616 z"
       id="path2"
       inkscape:connector-curvature="0"
       style="fill:#676867" /><path
       d="m 61.039,38.606 v 0 c 3.519,-3.523 9.277,-3.523 12.796,0 l 18.124,18.119 c 3.514,3.522 3.514,9.278 0,12.796 v 0 c -3.523,3.523 -9.282,3.523 -12.797,0 L 61.039,51.403 c -3.519,-3.523 -3.519,-9.278 0,-12.797 z"
       id="path4"
       inkscape:connector-curvature="0"
       style="fill:#676867" /><path
       d="m 20.431,142.144 v 0 c 0,-4.979 4.071,-9.051 9.049,-9.051 h 25.627 c 4.976,0 9.048,4.072 9.048,9.051 v 0 c 0,4.976 -4.072,9.046 -9.048,9.046 H 29.48 c -4.978,0 -9.049,-4.07 -9.049,-9.046 z"
       id="path6"
       inkscape:connector-curvature="0"
       style="fill:#676867" /><path
       d="m 61.039,245.681 v 0 c 3.519,3.515 9.277,3.515 12.796,0 l 18.124,-18.127 c 3.514,-3.515 3.514,-9.274 0,-12.797 v 0 c -3.523,-3.515 -9.282,-3.515 -12.797,0 l -18.123,18.127 c -3.519,3.516 -3.519,9.275 0,12.797 z"
       id="path8"
       inkscape:connector-curvature="0"
       style="fill:#676867" /></g></svg>