<?xml version="1.0" encoding="UTF-8" standalone="no"?>
<!-- Generator: Adobe Illustrator 16.0.0, SVG Export Plug-In . SVG Version: 6.00 Build 0)  -->

<svg
   xmlns:dc="http://purl.org/dc/elements/1.1/"
   xmlns:cc="http://creativecommons.org/ns#"
   xmlns:rdf="http://www.w3.org/1999/02/22-rdf-syntax-ns#"
   xmlns:svg="http://www.w3.org/2000/svg"
   xmlns="http://www.w3.org/2000/svg"
   xmlns:sodipodi="http://sodipodi.sourceforge.net/DTD/sodipodi-0.dtd"
   xmlns:inkscape="http://www.inkscape.org/namespaces/inkscape"
   version="1.1"
   id="Capa_1"
   x="0px"
   y="0px"
   width="20"
   height="20"
   viewBox="0 0 20.000001 20.000001"
   enable-background="new 0 0 283.46 283.46"
   xml:space="preserve"
   sodipodi:docname="domotics.svg"
   inkscape:export-filename="/Users/realor/Desktop/domotics.png"
   inkscape:export-xdpi="96"
   inkscape:export-ydpi="96"
   inkscape:version="0.92.2 5c3e80d, 2017-08-06"><metadata
     id="metadata9"><rdf:RDF><cc:Work
         rdf:about=""><dc:format>image/svg+xml</dc:format><dc:type
           rdf:resource="http://purl.org/dc/dcmitype/StillImage" /><dc:title></dc:title></cc:Work></rdf:RDF></metadata><defs
     id="defs7" /><sodipodi:namedview
     pagecolor="#ffffff"
     bordercolor="#666666"
     borderopacity="1"
     objecttolerance="10"
     gridtolerance="10"
     guidetolerance="10"
     inkscape:pageopacity="0"
     inkscape:pageshadow="2"
     inkscape:window-width="640"
     inkscape:window-height="480"
     id="namedview5"
     showgrid="true"
     inkscape:snap-global="false"
     inkscape:zoom="19.557318"
     inkscape:cx="11.65348"
     inkscape:cy="6.2209564"
     inkscape:current-layer="Capa_1"><inkscape:grid
       type="xygrid"
       id="grid819" /></sodipodi:namedview><path
     d="M 18.156885,9.3086359 10.247177,2.6360036 c -0.197793,-0.166877 -0.492673,-0.126903 -0.695956,0.078542 -0.00111,9.168e-4 -0.00221,0.00121 -0.00323,0.00214 L 1.7338167,9.3821229 c -0.2189801,0.186899 -0.2360976,0.566692 -0.037462,0.8443281 0.1985683,0.277142 0.5409262,0.351733 0.7598425,0.164762 L 3.9408699,9.1247919 v 7.3851921 c 0,0.814788 0.6075895,1.477856 1.3541891,1.477856 h 2.5202749 c 0.7468583,0 1.3543183,-0.663068 1.3540605,-1.460794 l 0.00554,-3.391414 c 0,-0.140862 0.09276,-0.255639 0.2065134,-0.255639 h 1.3505052 c 0.113818,0 0.20619,0.114777 0.20619,0.255639 l 2.58e-4,3.188651 0.0053,0.185701 c 0,0.814788 0.607589,1.477856 1.354125,1.477856 h 2.520405 c 0.746858,0 1.354382,-0.663068 1.354382,-1.477856 V 9.2504959 l 1.258265,1.0614031 c 0.221886,0.187464 0.567023,0.114565 0.766753,-0.161802 0.199312,-0.2753091 0.181031,-0.6545371 -0.04059,-0.8414371 z m -3.104932,7.2012531 c 0,0.140722 -0.105034,0.255006 -0.233902,0.255006 h -2.520406 c -0.128868,0 -0.233577,-0.114284 -0.233901,-0.272842 l -0.0053,-3.356516 c 0,-0.815351 -0.595318,-1.478419 -1.326672,-1.478419 H 9.3813739 c -0.7317425,0 -1.3269299,0.662997 -1.3269299,1.478419 l 1.941e-4,3.153753 -0.00544,0.220599 c 0,0.140722 -0.1050334,0.255006 -0.233902,0.255006 H 5.2950148 c -0.1288049,0 -0.2337726,-0.114284 -0.2337726,-0.255006 V 8.1690469 L 9.9486994,4 15.051953,8.3051849 Z"
     id="path2"
     inkscape:connector-curvature="0"
     style="fill:#676867;stroke-width:0.06748424"
     sodipodi:nodetypes="ccccccccsssccsscccssscccccsssccsscccssscccs" /></svg>