<?xml version="1.0" encoding="UTF-8" standalone="no"?>
<!-- Generator: Adobe Illustrator 16.0.0, SVG Export Plug-In . SVG Version: 6.00 Build 0)  -->

<svg
   xmlns:dc="http://purl.org/dc/elements/1.1/"
   xmlns:cc="http://creativecommons.org/ns#"
   xmlns:rdf="http://www.w3.org/1999/02/22-rdf-syntax-ns#"
   xmlns:svg="http://www.w3.org/2000/svg"
   xmlns="http://www.w3.org/2000/svg"
   xmlns:sodipodi="http://sodipodi.sourceforge.net/DTD/sodipodi-0.dtd"
   xmlns:inkscape="http://www.inkscape.org/namespaces/inkscape"
   version="1.1"
   id="Capa_1"
   x="0px"
   y="0px"
   width="20"
   height="20"
   viewBox="0 0 20.000001 20.000001"
   enable-background="new 0 0 283.46 283.46"
   xml:space="preserve"
   sodipodi:docname="energy.svg"
   inkscape:version="0.92.2 5c3e80d, 2017-08-06"
   inkscape:export-filename="/Users/realor/Desktop/energy.png"
   inkscape:export-xdpi="96"
   inkscape:export-ydpi="96"><metadata
     id="metadata9"><rdf:RDF><cc:Work
         rdf:about=""><dc:format>image/svg+xml</dc:format><dc:type
           rdf:resource="http://purl.org/dc/dcmitype/StillImage" /><dc:title></dc:title></cc:Work></rdf:RDF></metadata><defs
     id="defs7" /><sodipodi:namedview
     pagecolor="#ffffff"
     bordercolor="#666666"
     borderopacity="1"
     objecttolerance="10"
     gridtolerance="10"
     guidetolerance="10"
     inkscape:pageopacity="0"
     inkscape:pageshadow="2"
     inkscape:window-width="640"
     inkscape:window-height="480"
     id="namedview5"
     showgrid="true"
     inkscape:snap-global="false"
     inkscape:zoom="19.557318"
     inkscape:cx="8.1443515"
     inkscape:cy="8.6773467"
     inkscape:current-layer="Capa_1"><inkscape:grid
       type="xygrid"
       id="grid819" /></sodipodi:namedview><path
     d="m 7.6746888,18.709485 c -0.07903,0 -0.158984,-0.01837 -0.232991,-0.05656 -0.21416,-0.110614 -0.32147,-0.356293 -0.256846,-0.588492 l 1.658297,-5.963292 h -4.275719 c -0.19612,0 -0.374795,-0.112795 -0.459177,-0.289951 -0.08445,-0.177155 -0.05947,-0.386821 0.06396,-0.539263 L 12.028905,1.5801106 c 0.151848,-0.1875298 0.414112,-0.2427051 0.628536,-0.1317599 0.214027,0.1105488 0.321404,0.3562274 0.256846,0.588294 L 11.255659,8 h 4.275719 c 0.196252,0 0.374795,0.1127953 0.459244,0.2898849 0.08425,0.1771555 0.05934,0.3867554 -0.0641,0.5392639 L 8.0701008,18.521229 c -0.09932,0.122443 -0.245877,0.188256 -0.395412,0.188256 z m -2.040097,-7.625881 h 3.877995 c 0.158918,0 0.308783,0.07427 0.405125,0.200943 0.09614,0.126672 0.1276632,0.290942 0.08498,0.444178 L 8.8205538,15.979599 14.464157,9.0174715 h -3.877995 c -0.158984,0 -0.308783,-0.074272 -0.405191,-0.2009436 -0.09614,-0.1266718 -0.127663,-0.2908761 -0.08498,-0.4441774 l 1.182403,-4.2508739 z"
     id="path2"
     inkscape:connector-curvature="0"
     style="fill:#676867;stroke-width:0.06607816" /></svg>