<?xml version="1.0" encoding="UTF-8" standalone="no"?>
<!-- Generator: Adobe Illustrator 16.0.0, SVG Export Plug-In . SVG Version: 6.00 Build 0)  -->

<svg
   xmlns:dc="http://purl.org/dc/elements/1.1/"
   xmlns:cc="http://creativecommons.org/ns#"
   xmlns:rdf="http://www.w3.org/1999/02/22-rdf-syntax-ns#"
   xmlns:svg="http://www.w3.org/2000/svg"
   xmlns="http://www.w3.org/2000/svg"
   xmlns:sodipodi="http://sodipodi.sourceforge.net/DTD/sodipodi-0.dtd"
   xmlns:inkscape="http://www.inkscape.org/namespaces/inkscape"
   version="1.1"
   id="Capa_1"
   x="0px"
   y="0px"
   width="20"
   height="20"
   viewBox="0 0 20.000001 20.000001"
   enable-background="new 0 0 283.46 283.46"
   xml:space="preserve"
   sodipodi:docname="garbage_collection.svg"
   inkscape:version="0.92.2 5c3e80d, 2017-08-06"
   inkscape:export-filename="/Users/realor/Desktop/garbage_collection.png"
   inkscape:export-xdpi="96"
   inkscape:export-ydpi="96"><metadata
     id="metadata21"><rdf:RDF><cc:Work
         rdf:about=""><dc:format>image/svg+xml</dc:format><dc:type
           rdf:resource="http://purl.org/dc/dcmitype/StillImage" /><dc:title></dc:title></cc:Work></rdf:RDF></metadata><defs
     id="defs19" /><sodipodi:namedview
     pagecolor="#ffffff"
     bordercolor="#666666"
     borderopacity="1"
     objecttolerance="10"
     gridtolerance="10"
     guidetolerance="10"
     inkscape:pageopacity="0"
     inkscape:pageshadow="2"
     inkscape:window-width="640"
     inkscape:window-height="480"
     id="namedview17"
     showgrid="true"
     inkscape:zoom="19.557318"
     inkscape:cx="13.347838"
     inkscape:cy="10.3416"
     inkscape:current-layer="g14"
     inkscape:snap-global="false"><inkscape:grid
       type="xygrid"
       id="grid831" /></sodipodi:namedview><g
     id="g14"
     transform="matrix(0.07511794,0,0,0.07154762,-0.55910429,-0.12720891)"><path
       sodipodi:type="inkscape:offset"
       inkscape:radius="-0.47918144"
       inkscape:original="M 58.511719 96.396484 L 58.511719 223.14844 C 58.511719 241.57244 74.575266 256.56055 94.322266 256.56055 L 187.08203 256.56055 C 206.83003 256.56055 222.89062 241.57244 222.89062 223.14844 L 222.89062 96.396484 L 207.12891 96.396484 L 207.12891 223.14844 C 207.12891 232.88144 198.13503 240.79688 187.08203 240.79688 L 94.322266 240.79688 C 83.268266 240.79688 74.273438 232.88144 74.273438 223.14844 L 74.273438 96.396484 L 58.511719 96.396484 z "
       style="fill:#676867"
       id="path2"
       d="m 58.990234,96.875 v 126.27344 c 0,18.14547 15.8275,32.93359 35.332032,32.93359 h 92.759764 c 19.50555,0 35.33008,-14.78807 35.33008,-32.93359 V 96.875 h -14.80469 v 126.27344 c 0,10.02819 -9.24362,18.12695 -20.52539,18.12695 H 94.322266 c -11.282752,0 -20.527344,-8.09873 -20.527344,-18.12695 V 96.875 Z"
       transform="matrix(1,0,0,0.98412959,0,1.5374465)" /><g
       id="g10"><path
         style="fill:#676867"
         d="m 106.5293,108.55859 c -7.167061,0.32753 -7.748597,8.93621 -6.892581,14.32227 0.225567,31.14116 -0.445855,62.37274 0.326172,93.45898 2.799229,9.50195 17.446849,4.06021 14.246089,-5.19336 -0.22633,-32.4764 0.44774,-65.04385 -0.32812,-97.46484 -0.93262,-3.11923 -4.09154,-5.34933 -7.35156,-5.12305 z"
         id="path4"
         inkscape:connector-curvature="0" /><path
         style="fill:#676867"
         d="m 140.30859,108.55859 c -7.21583,0.33275 -7.72064,8.93875 -6.89453,14.33008 0.22998,31.1382 -0.45264,62.3682 0.32813,93.45117 1.852,7.45105 13.83012,6.20541 14.20508,-1.39843 -0.13929,-33.73859 0.45866,-67.57236 -0.28907,-101.25782 -0.92937,-3.11733 -4.09346,-5.35239 -7.34961,-5.125 z"
         id="path6"
         inkscape:connector-curvature="0" /><path
         style="fill:#676867"
         d="m 174.08398,108.55859 c -7.24624,0.33739 -7.69862,8.93447 -6.89062,14.33008 0.22997,31.13814 -0.45264,62.3685 0.32812,93.45117 1.85128,7.40045 13.8326,6.23976 14.20704,-1.39843 -0.13929,-33.73859 0.45866,-67.57236 -0.28907,-101.25782 -0.93552,-3.11956 -4.08958,-5.35314 -7.35547,-5.125 z"
         id="path8"
         inkscape:connector-curvature="0" /></g><path
       style="fill:#676867"
       d="m 119.94116,23.823835 c -9.53719,0.478857 -16.48033,8.760705 -18.64949,17.545609 -2.760763,4.808662 -3.720618,12.325837 -7.524346,15.565719 -13.745573,0.448441 -27.730558,-0.854178 -41.345704,0.568359 -7.288236,2.577911 -4.800792,14.475518 2.859375,14.003907 58.891165,-0.155912 117.834875,0.311186 176.693365,-0.232422 7.43789,-1.500813 6.93655,-13.510071 -0.71484,-14.25586 -13.53793,-0.197931 -27.0939,-0.02666 -40.63868,-0.08398 -4.7591,-9.016585 -6.35243,-19.984765 -13.20312,-27.697266 -8.65292,-8.650092 -21.82484,-4.487896 -32.63477,-5.427734 -8.28052,0.01036 -16.56153,-0.01992 -24.84179,0.01367 z m 0.89257,13.685547 c 15.09715,0.284055 30.37129,-0.55202 45.36524,0.388671 5.44623,3.253159 5.26166,11.916482 8.51486,16.909014 2.25149,5.748381 3.06062,0.528491 -1.25238,1.875428 l -63.8074,0.252668 c 3.32935,-5.901751 4.07585,-13.680778 8.8125,-18.582031 0.71226,-0.437878 1.52609,-0.799785 2.36718,-0.84375 z"
       id="path12"
       inkscape:connector-curvature="0"
       sodipodi:nodetypes="ccccccccccccccccccc" /></g></svg>