<?xml version="1.0" encoding="UTF-8" standalone="no"?>
<!-- Generator: Adobe Illustrator 16.0.0, SVG Export Plug-In . SVG Version: 6.00 Build 0)  -->

<svg
   xmlns:dc="http://purl.org/dc/elements/1.1/"
   xmlns:cc="http://creativecommons.org/ns#"
   xmlns:rdf="http://www.w3.org/1999/02/22-rdf-syntax-ns#"
   xmlns:svg="http://www.w3.org/2000/svg"
   xmlns="http://www.w3.org/2000/svg"
   xmlns:sodipodi="http://sodipodi.sourceforge.net/DTD/sodipodi-0.dtd"
   xmlns:inkscape="http://www.inkscape.org/namespaces/inkscape"
   version="1.1"
   id="Capa_1"
   x="0px"
   y="0px"
   width="20"
   height="20"
   viewBox="0 0 20.000001 20.000001"
   enable-background="new 0 0 283.46 283.46"
   xml:space="preserve"
   sodipodi:docname="irrigation.svg"
   inkscape:version="0.92.2 5c3e80d, 2017-08-06"
   inkscape:export-filename="/Users/realor/Desktop/irrigation.png"
   inkscape:export-xdpi="96"
   inkscape:export-ydpi="96"><metadata
     id="metadata41"><rdf:RDF><cc:Work
         rdf:about=""><dc:format>image/svg+xml</dc:format><dc:type
           rdf:resource="http://purl.org/dc/dcmitype/StillImage" /><dc:title></dc:title></cc:Work></rdf:RDF></metadata><defs
     id="defs39" /><sodipodi:namedview
     pagecolor="#ffffff"
     bordercolor="#666666"
     borderopacity="1"
     objecttolerance="10"
     gridtolerance="10"
     guidetolerance="10"
     inkscape:pageopacity="0"
     inkscape:pageshadow="2"
     inkscape:window-width="640"
     inkscape:window-height="480"
     id="namedview37"
     showgrid="true"
     inkscape:snap-global="false"
     inkscape:zoom="13.829112"
     inkscape:cx="14.921781"
     inkscape:cy="11.654941"
     inkscape:current-layer="Capa_1"><inkscape:grid
       type="xygrid"
       id="grid848" /></sodipodi:namedview><g
     id="g34"
     transform="matrix(0.06896095,0,0,0.06896095,0.50779328,0.88541896)"><path
       d="m 215.648,232.03 h -77.052 v -48.627 h 3.07 c 8.365,0 15.171,-6.626 15.171,-14.767 v -26.7 c 0,-8.143 -6.806,-14.764 -15.171,-14.764 h -25.051 c -8.364,0 -15.166,6.621 -15.166,14.764 v 26.7 c 0,8.141 6.802,14.767 15.166,14.767 h 2.943 V 232.03 H 42.63 c -5.235,0 -9.523,4.28 -9.523,9.519 0,5.23 4.288,9.52 9.523,9.52 h 173.018 c 5.24,0 9.527,-4.289 9.527,-9.52 0,-5.239 -4.287,-9.519 -9.527,-9.519 z m -99.034,-62.267 c -0.901,0 -1.526,-0.594 -1.526,-1.127 v -26.7 c 0,-0.53 0.625,-1.128 1.526,-1.128 h 25.051 c 0.901,0 1.531,0.598 1.531,1.128 v 26.7 c 0,0.533 -0.63,1.127 -1.531,1.127 z"
       id="path2"
       inkscape:connector-curvature="0"
       style="fill:#676867" /><g
       id="g12"><path
         d="m 179.955,115.897 c 2.73,3.622 2.011,8.771 -1.612,11.507 -3.623,2.736 -8.772,2.015 -11.507,-1.607 -2.735,-3.623 -2.016,-8.772 1.607,-11.507 3.622,-2.736 8.771,-2.016 11.512,1.607 z"
         id="path4"
         inkscape:connector-curvature="0"
         style="fill:#676867" /><path
         d="m 199.948,100.803 c 2.735,3.632 2.015,8.781 -1.607,11.507 -3.623,2.735 -8.772,2.016 -11.508,-1.607 -2.734,-3.623 -2.015,-8.772 1.608,-11.507 3.627,-2.736 8.776,-2.015 11.507,1.607 z"
         id="path6"
         inkscape:connector-curvature="0"
         style="fill:#676867" /><circle
         cx="213.383"
         cy="90.666"
         r="8.217"
         id="circle8"
         style="fill:#676867" /><path
         d="m 241.097,70.621 c 2.737,3.623 2.017,8.781 -1.607,11.507 -3.618,2.735 -8.775,2.024 -11.507,-1.607 -2.734,-3.624 -2.015,-8.772 1.608,-11.507 3.622,-2.731 8.776,-2.015 11.506,1.607 z"
         id="path10"
         inkscape:connector-curvature="0"
         style="fill:#676867" /></g><g
       id="g22"><path
         d="m 152.393,92.96 c 4.149,1.838 6.033,6.698 4.194,10.841 -1.839,4.157 -6.689,6.031 -10.837,4.193 -4.153,-1.839 -6.032,-6.688 -4.198,-10.842 1.839,-4.147 6.69,-6.021 10.841,-4.192 z"
         id="path14"
         inkscape:connector-curvature="0"
         style="fill:#676867" /><path
         d="m 159.191,69.104 c 4.157,1.839 6.032,6.684 4.198,10.841 -1.839,4.148 -6.688,6.018 -10.842,4.189 -4.147,-1.834 -6.026,-6.684 -4.193,-10.841 1.839,-4.144 6.693,-6.028 10.837,-4.189 z"
         id="path16"
         inkscape:connector-curvature="0"
         style="fill:#676867" /><path
         d="m 165.989,45.248 c 4.157,1.839 6.027,6.684 4.197,10.842 -1.833,4.143 -6.692,6.027 -10.836,4.188 -4.157,-1.838 -6.033,-6.693 -4.198,-10.841 1.838,-4.153 6.688,-6.019 10.837,-4.189 z"
         id="path18"
         inkscape:connector-curvature="0"
         style="fill:#676867" /><path
         d="m 173.017,20.6 c 4.152,1.838 6.027,6.684 4.184,10.841 -1.825,4.143 -6.68,6.027 -10.832,4.188 -4.152,-1.838 -6.022,-6.693 -4.189,-10.841 1.838,-4.153 6.684,-6.028 10.837,-4.188 z"
         id="path20"
         inkscape:connector-curvature="0"
         style="fill:#676867" /></g><g
       id="g32"><path
         d="m 189.337,148.967 c -0.68,-4.482 -4.868,-7.579 -9.356,-6.896 -4.491,0.674 -7.571,4.854 -6.893,9.356 0.676,4.482 4.859,7.575 9.347,6.9 4.488,-0.692 7.576,-4.867 6.902,-9.36 z"
         id="path24"
         inkscape:connector-curvature="0"
         style="fill:#676867" /><path
         d="m 214.14,148.978 c -0.675,-4.493 -4.863,-7.572 -9.352,-6.897 -4.483,0.675 -7.567,4.854 -6.896,9.348 0.684,4.482 4.863,7.575 9.351,6.892 4.488,-0.677 7.581,-4.861 6.897,-9.343 z"
         id="path26"
         inkscape:connector-curvature="0"
         style="fill:#676867" /><path
         d="m 238.947,148.967 c -0.679,-4.491 -4.858,-7.57 -9.352,-6.896 -4.486,0.674 -7.571,4.863 -6.896,9.346 0.684,4.493 4.863,7.586 9.346,6.911 4.497,-0.684 7.581,-4.876 6.902,-9.361 z"
         id="path28"
         inkscape:connector-curvature="0"
         style="fill:#676867" /><path
         d="m 264.579,148.967 c -0.68,-4.491 -4.863,-7.57 -9.352,-6.887 -4.484,0.665 -7.581,4.854 -6.902,9.337 0.68,4.493 4.873,7.577 9.356,6.902 4.485,-0.675 7.571,-4.867 6.898,-9.352 z"
         id="path30"
         inkscape:connector-curvature="0"
         style="fill:#676867" /></g></g></svg>