<?xml version="1.0" encoding="UTF-8" standalone="no"?>
<!-- Generator: Adobe Illustrator 16.0.0, SVG Export Plug-In . SVG Version: 6.00 Build 0)  -->

<svg
   xmlns:dc="http://purl.org/dc/elements/1.1/"
   xmlns:cc="http://creativecommons.org/ns#"
   xmlns:rdf="http://www.w3.org/1999/02/22-rdf-syntax-ns#"
   xmlns:svg="http://www.w3.org/2000/svg"
   xmlns="http://www.w3.org/2000/svg"
   xmlns:sodipodi="http://sodipodi.sourceforge.net/DTD/sodipodi-0.dtd"
   xmlns:inkscape="http://www.inkscape.org/namespaces/inkscape"
   version="1.1"
   id="Capa_1"
   x="0px"
   y="0px"
   width="20"
   height="20"
   viewBox="0 0 20.000001 20.000001"
   enable-background="new 0 0 283.46 283.46"
   xml:space="preserve"
   sodipodi:docname="lighting.svg"
   inkscape:version="0.92.2 5c3e80d, 2017-08-06"
   inkscape:export-filename="/Users/realor/Desktop/lighting.png"
   inkscape:export-xdpi="96"
   inkscape:export-ydpi="96"><metadata
     id="metadata17"><rdf:RDF><cc:Work
         rdf:about=""><dc:format>image/svg+xml</dc:format><dc:type
           rdf:resource="http://purl.org/dc/dcmitype/StillImage" /><dc:title></dc:title></cc:Work></rdf:RDF></metadata><defs
     id="defs15" /><sodipodi:namedview
     pagecolor="#ffffff"
     bordercolor="#666666"
     borderopacity="1"
     objecttolerance="10"
     gridtolerance="10"
     guidetolerance="10"
     inkscape:pageopacity="0"
     inkscape:pageshadow="2"
     inkscape:window-width="640"
     inkscape:window-height="480"
     id="namedview13"
     showgrid="true"
     inkscape:snap-global="false"
     inkscape:zoom="19.557318"
     inkscape:cx="8.3146429"
     inkscape:cy="10.602203"
     inkscape:current-layer="Capa_1"><inkscape:grid
       type="xygrid"
       id="grid824" /></sodipodi:namedview><g
     id="g10"
     transform="matrix(0.07729023,0,0,0.07729023,-0.94216479,-0.91720931)"><g
       id="g4"><path
         stroke-miterlimit="10"
         d="m 175.844,206.812 0.049,-19.5 c 0,-18.148 5.996,-34.758 17.482,-46.502 12.562,-12.814 19.119,-29.375 19.119,-46.495 -0.049,-37.986 -32.297,-68.439 -71.052,-68.439 v 0 c -38.036,0 -65.516,28.348 -69.871,58.803 -2.719,20.301 3.845,40.087 17.476,55.059 12,12.816 18.561,29.937 18.561,47.574 l -0.048,19.5 m 78.174,-73.48 c -13.635,13.889 -20.762,33.114 -20.762,53.981 v 4.816 h -46.397 v -4.816 c 0,-19.789 -8.2,-39.525 -21.839,-54.491 C 84.74,120 79.819,103.439 81.972,86.319 c 3.845,-25.635 27.683,-49.726 59.519,-49.726 33.324,0 60.085,26.195 60.085,57.723 0,14.408 -5.48,28.299 -15.842,39.016 z m 0,0"
         id="path2"
         inkscape:connector-curvature="0"
         style="fill:#676867;stroke:#676867;stroke-width:1.5;stroke-miterlimit:10" /></g><path
       d="m 104.313,224.924 v 0 c 0,-4.699 3.845,-8.543 8.547,-8.543 h 57.356 c 4.699,0 8.547,3.844 8.547,8.543 v 0 c 0,4.699 -3.848,8.543 -8.547,8.543 H 112.86 c -4.702,0 -8.547,-3.844 -8.547,-8.543 z"
       id="path6"
       inkscape:connector-curvature="0"
       style="fill:#676867" /><path
       d="m 104.313,249.789 v 0 c 0,-4.697 3.845,-8.543 8.547,-8.543 h 57.356 c 4.699,0 8.547,3.846 8.547,8.543 v 0 c 0,4.699 -3.848,8.545 -8.547,8.545 H 112.86 c -4.702,0 -8.547,-3.846 -8.547,-8.545 z"
       id="path8"
       inkscape:connector-curvature="0"
       style="fill:#676867" /></g></svg>