<?xml version="1.0" encoding="UTF-8" standalone="no"?>
<!-- Generator: Adobe Illustrator 16.0.0, SVG Export Plug-In . SVG Version: 6.00 Build 0)  -->

<svg
   xmlns:dc="http://purl.org/dc/elements/1.1/"
   xmlns:cc="http://creativecommons.org/ns#"
   xmlns:rdf="http://www.w3.org/1999/02/22-rdf-syntax-ns#"
   xmlns:svg="http://www.w3.org/2000/svg"
   xmlns="http://www.w3.org/2000/svg"
   xmlns:sodipodi="http://sodipodi.sourceforge.net/DTD/sodipodi-0.dtd"
   xmlns:inkscape="http://www.inkscape.org/namespaces/inkscape"
   version="1.1"
   id="Capa_1"
   x="0px"
   y="0px"
   width="20"
   height="20"
   viewBox="0 0 20.000001 20.000001"
   enable-background="new 0 0 283.46 283.46"
   xml:space="preserve"
   sodipodi:docname="mobility.svg"
   inkscape:version="0.92.2 5c3e80d, 2017-08-06"><metadata
     id="metadata13"><rdf:RDF><cc:Work
         rdf:about=""><dc:format>image/svg+xml</dc:format><dc:type
           rdf:resource="http://purl.org/dc/dcmitype/StillImage" /><dc:title></dc:title></cc:Work></rdf:RDF></metadata><defs
     id="defs11" /><sodipodi:namedview
     pagecolor="#ffffff"
     bordercolor="#666666"
     borderopacity="1"
     objecttolerance="10"
     gridtolerance="10"
     guidetolerance="10"
     inkscape:pageopacity="0"
     inkscape:pageshadow="2"
     inkscape:window-width="640"
     inkscape:window-height="480"
     id="namedview9"
     showgrid="true"
     showguides="false"
     inkscape:snap-global="false"
     inkscape:zoom="19.557318"
     inkscape:cx="9.548003"
     inkscape:cy="7.5041937"
     inkscape:current-layer="g6"><inkscape:grid
       type="xygrid"
       id="grid820" /></sodipodi:namedview><g
     id="g6"
     transform="matrix(0.06949106,0,0,0.06949106,0.13258108,0.63119047)"><path
       d="m 258.34761,119.796 -53.354,-8.893 -15.462,-23.193 c -4.009,-6.01 -10.712,-9.598 -17.934,-9.598 H 91.902607 c -7.222,0 -13.926,3.588 -17.936,9.598 l -15.598,23.403 -32.923,8.23 c -7.21,1.8 -12.252,8.252 -12.252,15.683 v 27.077 c 0,6.353 2.473,12.326 6.968,16.817 4.432,4.427 10.557,6.971 16.82,6.971 h 14.479 c 2.505,12.28 13.384,21.553 26.399,21.553 13.017,0 23.896003,-9.272 26.401003,-21.553 h 71.145 c 2.502,12.28 13.384,21.553 26.4,21.553 13.014,0 23.894,-9.272 26.398,-21.553 0,0 24.086,0 24.158,0 7.483,-0.003 11.991,-3.488 15.105,-12.062 4.386,-12.074 4.392,-25.492 4.392,-38.088 0.002,-7.941 -5.682,-14.645 -13.511,-15.945 z M 77.860607,196.668 c -8.914,0 -16.166,-7.252 -16.166,-16.168 0,-8.915 7.252,-16.167 16.166,-16.167 8.916,0 16.167,7.252 16.167,16.167 0,8.916 -7.252,16.168 -16.167,16.168 z m 123.946003,0 c -8.915,0 -16.17,-7.252 -16.17,-16.168 0,-8.915 7.255,-16.167 16.17,-16.167 8.913,0 16.165,7.252 16.165,16.167 0,8.916 -7.252,16.168 -16.165,16.168 z m 58.825,-39.008 c -0.34,3.362 -0.83,6.01 -1.922,9.292 -1.109,3.332 -2.642,8.603 -6.868,8.837 -4.482,0.248 -9.25,0.111 -13.74,0.111 -3.171,0 -6.342,0.123 -9.565,0.012 -0.131,-0.003 -0.217,-0.012 -0.217,-0.012 -2.502,-12.281 -13.499,-22.344 -26.513,-22.344 -13.017,0 -23.898,9.271 -26.4,21.553 h -71.145 c -2.505,-12.281 -13.384003,-21.553 -26.401003,-21.553 -13.015,0 -23.895,9.271 -26.399,21.553 h -14.48 c -3.42,0 -6.779,-1.388 -9.198,-3.809 -2.452,-2.457 -3.81,-5.726 -3.81,-9.197 v -27.077 c 0,-2.479 1.683,-4.625 4.083,-5.231 l 34.944,-8.736 c 1.305,-0.32 2.431,-1.122 3.179,-2.237 l 16.755,-25.133 c 2,-3.006 5.358,-4.801 8.969,-4.801 h 79.695003 c 3.61,0 6.968,1.794 8.969,4.801 l 16.755,25.133 c 0.822,1.243 2.126,2.084 3.6,2.327 l 55.657,9.279 c 2.61,0.431 4.505,2.667 4.505,5.314 0,5.402 0.111,6.287 0.111,11.688 -10e-4,1.716 -0.394,8.561 -0.564,10.23 z"
       id="path2"
       inkscape:connector-curvature="0"
       style="fill:#676867" /><path
       d="m 87.465,113.80779 v 0 c 0,-3.235 2.647,-5.881 5.883,-5.881 h 72.282 c 3.235,0 5.882,2.646 5.882,5.881 v 0 c 0,3.236 -2.646,5.883 -5.882,5.883 H 93.348 c -3.236,0 -5.883,-2.647 -5.883,-5.883 z"
       id="path4"
       inkscape:connector-curvature="0"
       style="fill:#676867" /></g></svg>