<?xml version="1.0" encoding="UTF-8" standalone="no"?>
<!-- Generator: Adobe Illustrator 16.0.0, SVG Export Plug-In . SVG Version: 6.00 Build 0)  -->

<svg
   xmlns:dc="http://purl.org/dc/elements/1.1/"
   xmlns:cc="http://creativecommons.org/ns#"
   xmlns:rdf="http://www.w3.org/1999/02/22-rdf-syntax-ns#"
   xmlns:svg="http://www.w3.org/2000/svg"
   xmlns="http://www.w3.org/2000/svg"
   xmlns:sodipodi="http://sodipodi.sourceforge.net/DTD/sodipodi-0.dtd"
   xmlns:inkscape="http://www.inkscape.org/namespaces/inkscape"
   version="1.1"
   id="Capa_1"
   x="0px"
   y="0px"
   width="20"
   height="20"
   viewBox="0 0 20.000001 20.000001"
   enable-background="new 0 0 283.46 283.46"
   xml:space="preserve"
   sodipodi:docname="public_lighting.svg"
   inkscape:version="0.92.2 5c3e80d, 2017-08-06"
   inkscape:export-filename="/Users/realor/Desktop/public_lighting.png"
   inkscape:export-xdpi="96"
   inkscape:export-ydpi="96"><metadata
     id="metadata9"><rdf:RDF><cc:Work
         rdf:about=""><dc:format>image/svg+xml</dc:format><dc:type
           rdf:resource="http://purl.org/dc/dcmitype/StillImage" /><dc:title></dc:title></cc:Work></rdf:RDF></metadata><defs
     id="defs7" /><sodipodi:namedview
     pagecolor="#ffffff"
     bordercolor="#666666"
     borderopacity="1"
     objecttolerance="10"
     gridtolerance="10"
     guidetolerance="10"
     inkscape:pageopacity="0"
     inkscape:pageshadow="2"
     inkscape:window-width="640"
     inkscape:window-height="480"
     id="namedview5"
     showgrid="true"
     inkscape:snap-global="false"
     inkscape:zoom="19.557318"
     inkscape:cx="9.9772283"
     inkscape:cy="10.978054"
     inkscape:current-layer="Capa_1"><inkscape:grid
       type="xygrid"
       id="grid819" /></sodipodi:namedview><path
     d="m 16.563055,0.91304345 h -1.646194 c -0.55902,0 -1.055498,0.26789925 -1.371397,0.68069125 h -1.344245 c -0.651756,0 -1.236595,0.2867422 -1.639892,0.7389293 C 10.158329,1.8804031 9.5734927,1.5937347 8.9215124,1.5937347 H 7.2951251 C 6.9790776,1.1809427 6.4828216,0.91304345 5.9237278,0.91304345 H 4.2776047 c -0.9530415,0 -1.7283978,0.77535625 -1.7283978,1.72854665 0,0.2347354 0.1902218,0.4251071 0.4251073,0.4251071 h 0.9133501 c 0.00631,0.2914909 0.5080509,0.52697 1.1275345,0.52697 0.6194863,0 1.1209345,-0.2354791 1.1275372,-0.52697 h 1.0844312 c 0.2053577,0 0.3766613,-0.1454865 0.4165767,-0.3392704 h 1.2778423 c 0.5875093,0 1.0657353,0.4779311 1.0657353,1.0655142 v 14.156144 h -1.492548 c -0.3262861,0 -0.5933702,0.26738 -0.5933702,0.593444 0,0.326509 0.2670841,0.593888 0.5933702,0.593888 h 3.9847315 c 0.326657,0 0.593741,-0.267379 0.593741,-0.593888 0,-0.326139 -0.267084,-0.593444 -0.593741,-0.593444 H 11.135706 V 3.793015 c 0,-0.587583 0.477856,-1.065513 1.065513,-1.065513 h 0.995923 c 0.03977,0.1937087 0.210995,0.339269 0.416575,0.339269 h 1.157656 c 0,0.00138 -9.01e-4,0.00275 -9.01e-4,0.00445 0,0.2939402 0.505084,0.5326089 1.128871,0.5326089 0.623416,0 1.128351,-0.2386687 1.128351,-0.5326089 0,-0.0016 -7.42e-4,-0.00307 -7.42e-4,-0.00445 h 0.839457 c 0.234589,0 0.425035,-0.1903704 0.425035,-0.4251073 0,-0.953264 -0.775211,-1.72862025 -1.7284,-1.72862025 z M 3.5092225,2.2164828 C 3.6592339,1.946358 3.9473126,1.7631829 4.277531,1.7631829 h 1.6461968 c 0.3301433,0 0.6182972,0.1832488 0.7683098,0.4532999 z m 10.6392545,0 C 14.298563,1.946358 14.586493,1.7631829 14.916786,1.7631829 h 1.646196 c 0.330071,0 0.618224,0.1832488 0.768235,0.4532999 z"
     id="path2"
     inkscape:connector-curvature="0"
     style="fill:#676968;stroke-width:0.07418975" /></svg>