<?xml version="1.0" encoding="UTF-8" standalone="no"?>
<!-- Generator: Adobe Illustrator 16.0.0, SVG Export Plug-In . SVG Version: 6.00 Build 0)  -->

<svg
   xmlns:dc="http://purl.org/dc/elements/1.1/"
   xmlns:cc="http://creativecommons.org/ns#"
   xmlns:rdf="http://www.w3.org/1999/02/22-rdf-syntax-ns#"
   xmlns:svg="http://www.w3.org/2000/svg"
   xmlns="http://www.w3.org/2000/svg"
   xmlns:sodipodi="http://sodipodi.sourceforge.net/DTD/sodipodi-0.dtd"
   xmlns:inkscape="http://www.inkscape.org/namespaces/inkscape"
   version="1.1"
   id="Capa_1"
   x="0px"
   y="0px"
   width="20"
   height="20"
   viewBox="0 0 20.000001 20.000001"
   enable-background="new 0 0 283.46 283.46"
   xml:space="preserve"
   sodipodi:docname="robotics1.svg"
   inkscape:version="0.92.2 5c3e80d, 2017-08-06"
   inkscape:export-filename="/Users/realor/Desktop/robotics1.png"
   inkscape:export-xdpi="96"
   inkscape:export-ydpi="96"><metadata
     id="metadata9"><rdf:RDF><cc:Work
         rdf:about=""><dc:format>image/svg+xml</dc:format><dc:type
           rdf:resource="http://purl.org/dc/dcmitype/StillImage" /><dc:title></dc:title></cc:Work></rdf:RDF></metadata><defs
     id="defs7" /><sodipodi:namedview
     pagecolor="#ffffff"
     bordercolor="#666666"
     borderopacity="1"
     objecttolerance="10"
     gridtolerance="10"
     guidetolerance="10"
     inkscape:pageopacity="0"
     inkscape:pageshadow="2"
     inkscape:window-width="640"
     inkscape:window-height="480"
     id="namedview5"
     showgrid="true"
     inkscape:snap-global="false"
     inkscape:zoom="19.557318"
     inkscape:cx="7.1092471"
     inkscape:cy="10.782824"
     inkscape:current-layer="Capa_1"><inkscape:grid
       type="xygrid"
       id="grid819" /></sodipodi:namedview><path
     d="m 16.376679,16.806711 h -2.26003 L 9.0465974,11.736953 c -0.00628,-0.0065 -0.013856,-0.01094 -0.020533,-0.01694 0.04781,-0.839211 -0.2248373,-1.696613 -0.8295359,-2.3702446 -0.0018,-0.00179 -0.0037,-0.00339 -0.00517,-0.00528 l 2.6286635,-2.6284388 2.309969,0.5244729 c 0.229456,0.051997 0.453926,0.00274 0.620465,-0.1123444 0.04539,-0.026918 0.08895,-0.057857 0.12767,-0.096506 l 1.547092,-1.5470925 c 0.252339,-0.2523363 0.252339,-0.6664441 0,-0.9181943 -0.252115,-0.25241 -0.665123,-0.25241 -0.9179,0 l -1.349096,1.3490917 -1.959,-0.4448338 c -0.0084,-0.00909 -0.01606,-0.018184 -0.02508,-0.02728 -0.02911,-0.029039 -0.05881,-0.055957 -0.08845,-0.081472 L 10.733095,3.4652834 12.085856,2.1125218 c 0.252704,-0.25241 0.252704,-0.665785 3.67e-4,-0.918195 -0.252116,-0.25233621 -0.665565,-0.25182321 -0.917974,6.606e-4 L 9.6211564,2.7420062 C 9.5518556,2.811307 9.5034582,2.8929974 9.4723652,2.9798963 9.4063634,3.1224549 9.3800397,3.2913388 9.4123799,3.4652834 L 9.8551607,5.844918 7.1326979,8.5673817 C 6.7068569,8.3709974 6.2402429,8.2641519 5.7620429,8.2641519 c -0.8070964,0 -1.5826589,0.2972164 -2.1834711,0.8367951 -0.6502376,0.5835066 -1.0340591,1.385543 -1.0808455,2.257978 -0.046931,0.872214 0.2487435,1.710476 0.832249,2.360274 0.5592325,0.622812 1.337215,1.002599 2.1656505,1.070946 0.011365,0.01343 0.02024,0.02794 0.032777,0.04034 l 1.9762333,1.976233 h -3.852222 c -0.3568346,0 -0.6489911,0.292229 -0.6489911,0.648771 0,0.357128 0.2921565,0.649431 0.6489911,0.649431 H 16.376749 c 0.357056,0 0.649432,-0.292303 0.649432,-0.649431 0,-0.356542 -0.292376,-0.648771 -0.649505,-0.648771 z M 4.2524958,12.89113 C 3.8901605,12.487437 3.7066098,11.966849 3.7356487,11.425509 3.7646879,10.883803 4.0030186,10.385658 4.4068598,10.023396 4.7799746,9.6884137 5.2613284,9.5037619 5.7621881,9.5037619 c 0.5760256,0 1.1273382,0.245811 1.5119664,0.6739241 0.7481368,0.833422 0.6787645,2.119598 -0.1543641,2.867736 -0.3733356,0.334981 -0.8547624,0.519339 -1.355769,0.519339 -0.5760986,7.4e-5 -1.1269715,-0.245443 -1.5115256,-0.673631 z m 2.8125155,1.640004 c 0.3195821,-0.138964 0.6186316,-0.325888 0.8827748,-0.563191 0.2733095,-0.24515 0.4926463,-0.527406 0.6630705,-0.831369 l 3.6703574,3.670137 h -2.9407 z"
     id="path2"
     inkscape:connector-curvature="0"
     style="fill:#676867;stroke-width:0.07333235" /></svg>