<?xml version="1.0" encoding="UTF-8" standalone="no"?>
<!-- Generator: Adobe Illustrator 16.0.0, SVG Export Plug-In . SVG Version: 6.00 Build 0)  -->

<svg
   xmlns:dc="http://purl.org/dc/elements/1.1/"
   xmlns:cc="http://creativecommons.org/ns#"
   xmlns:rdf="http://www.w3.org/1999/02/22-rdf-syntax-ns#"
   xmlns:svg="http://www.w3.org/2000/svg"
   xmlns="http://www.w3.org/2000/svg"
   xmlns:sodipodi="http://sodipodi.sourceforge.net/DTD/sodipodi-0.dtd"
   xmlns:inkscape="http://www.inkscape.org/namespaces/inkscape"
   version="1.1"
   id="Capa_1"
   x="0px"
   y="0px"
   width="20"
   height="20"
   viewBox="0 0 20.000001 20.000001"
   enable-background="new 0 0 283.46 283.46"
   xml:space="preserve"
   sodipodi:docname="robotics2.svg"
   inkscape:version="0.92.2 5c3e80d, 2017-08-06"
   inkscape:export-filename="/Users/realor/Desktop/robotics2.png"
   inkscape:export-xdpi="96"
   inkscape:export-ydpi="96"><metadata
     id="metadata17"><rdf:RDF><cc:Work
         rdf:about=""><dc:format>image/svg+xml</dc:format><dc:type
           rdf:resource="http://purl.org/dc/dcmitype/StillImage" /><dc:title></dc:title></cc:Work></rdf:RDF></metadata><defs
     id="defs15" /><sodipodi:namedview
     pagecolor="#ffffff"
     bordercolor="#666666"
     borderopacity="1"
     objecttolerance="10"
     gridtolerance="10"
     guidetolerance="10"
     inkscape:pageopacity="0"
     inkscape:pageshadow="2"
     inkscape:window-width="640"
     inkscape:window-height="480"
     id="namedview13"
     showgrid="true"
     inkscape:snap-global="false"
     inkscape:zoom="13.829112"
     inkscape:cx="8.6156787"
     inkscape:cy="10.722617"
     inkscape:current-layer="g10"><inkscape:grid
       type="xygrid"
       id="grid824" /></sodipodi:namedview><g
     id="g10"
     transform="matrix(0.08019428,0,0,0.08019428,-1.5832237,-1.8224039)"><path
       d="m 165.948,195.90599 h -44.006 c -4.201,0 -7.639,3.442 -7.639,7.641 0,4.203 3.438,7.646 7.639,7.646 h 44.006 c 4.205,0 7.647,-3.443 7.647,-7.646 0,-4.198 -3.442,-7.641 -7.647,-7.641 z"
       id="path2"
       inkscape:connector-curvature="0"
       style="fill:#676867" /><path
       d="m 134.831,153.387 c 0,-10.352 -8.42,-18.772 -18.768,-18.772 -10.347,0 -18.765,8.42 -18.765,18.772 0,10.348 8.418,18.764 18.765,18.764 10.347,0 18.768,-8.416 18.768,-18.764 z m -22.938,0 c 0,-2.303 1.871,-4.177 4.17,-4.177 2.301,0 4.172,1.874 4.172,4.177 0,2.297 -1.871,4.168 -4.172,4.168 -2.299,0 -4.17,-1.871 -4.17,-4.168 z"
       id="path4"
       inkscape:connector-curvature="0"
       style="fill:#676867" /><path
       d="m 173.08029,134.615 c -10.349,0 -18.765,8.42 -18.765,18.772 0,10.348 8.416,18.764 18.765,18.764 10.349,0 18.768,-8.416 18.768,-18.764 0,-10.351 -8.419,-18.772 -18.768,-18.772 z m 0,22.94 c -2.299,0 -4.169,-1.871 -4.169,-4.168 0,-2.303 1.87,-4.177 4.169,-4.177 2.302,0 4.173,1.874 4.173,4.177 0,2.297 -1.871,4.168 -4.173,4.168 z"
       id="path6"
       inkscape:connector-curvature="0"
       style="fill:#676867" /><path
       d="m 257.212,169.592 c 0,-17.192 -12.056,-31.6 -28.15,-35.28 v -8.71879 c 0,-15.433 -12.55432,-28.186648 -27.983,-27.984998 H 152.2948 L 152.322,81.77 c 0.004,-0.249 -0.042,-0.484 -0.06,-0.73 8.545,-3.168 14.662,-11.374 14.662,-21.005 0,-12.37 -10.059,-22.428 -22.427,-22.428 -12.362,0 -22.421,10.059 -22.421,22.428 0,9.759 6.282,18.062 15.008,21.133 -0.006,0.122 -0.039,0.232 -0.042,0.353 l -0.0302,15.449612 -47.1298,0.6376 C 74.452412,97.816952 61.898,110.16121 61.898,125.59321 v 6.61979 c -16.97,2.996 -29.916,17.815 -29.916,35.634 0,17.816 12.946,32.636 29.916,35.633 v 15.35018 c 0,15.429 12.553,27.979 27.984,27.979 h 111.197 c 15.431,0 27.983,-12.551 27.983,-27.979 V 204.866 c 16.095,-3.681 28.15,-18.084 28.15,-35.274 z M 144.498,52.202 c 4.319,0 7.832,3.514 7.832,7.833 0,4.315 -3.513,7.824 -7.832,7.824 -4.315,0 -7.826,-3.509 -7.826,-7.824 0,-4.319 3.511,-7.833 7.826,-7.833 z M 46.577,167.847 c 0,-9.732 6.464,-17.979 15.321,-20.683 v 41.363 c -8.856,-2.702 -15.321,-10.949 -15.321,-20.68 z m 167.89,50.98318 c 0,7.38 -6.005,13.385 -13.389,13.385 H 89.882 c -7.383,0 -13.389,-6.005 -13.389,-13.385 v -93.23597 c 0,-7.383 6.006,-13.391 13.389,-13.391 h 111.197 c 7.384,0 13.389,6.007 13.389,13.391 v 93.23597 z M 229.062,189.632 v -40.087 c 7.936,3.207 13.555,10.978 13.555,20.047 0,9.069 -5.619,16.833 -13.555,20.04 z"
       id="path8"
       inkscape:connector-curvature="0"
       style="fill:#676867"
       sodipodi:nodetypes="scsscccssscccsscscsssscsssssssccscsssssssccccsc" /></g></svg>