<?xml version="1.0" encoding="UTF-8" standalone="no"?>
<!-- Generator: Adobe Illustrator 16.0.0, SVG Export Plug-In . SVG Version: 6.00 Build 0)  -->

<svg
   xmlns:dc="http://purl.org/dc/elements/1.1/"
   xmlns:cc="http://creativecommons.org/ns#"
   xmlns:rdf="http://www.w3.org/1999/02/22-rdf-syntax-ns#"
   xmlns:svg="http://www.w3.org/2000/svg"
   xmlns="http://www.w3.org/2000/svg"
   xmlns:sodipodi="http://sodipodi.sourceforge.net/DTD/sodipodi-0.dtd"
   xmlns:inkscape="http://www.inkscape.org/namespaces/inkscape"
   version="1.1"
   id="Capa_1"
   x="0px"
   y="0px"
   width="20"
   height="20"
   viewBox="0 0 20.000001 20.000001"
   enable-background="new 0 0 283.46 283.46"
   xml:space="preserve"
   sodipodi:docname="sensors.svg"
   inkscape:version="0.92.2 5c3e80d, 2017-08-06"
   inkscape:export-filename="/Users/realor/Desktop/sensors.png"
   inkscape:export-xdpi="96"
   inkscape:export-ydpi="96"><metadata
     id="metadata27"><rdf:RDF><cc:Work
         rdf:about=""><dc:format>image/svg+xml</dc:format><dc:type
           rdf:resource="http://purl.org/dc/dcmitype/StillImage" /><dc:title></dc:title></cc:Work></rdf:RDF></metadata><defs
     id="defs25" /><sodipodi:namedview
     pagecolor="#ffffff"
     bordercolor="#666666"
     borderopacity="1"
     objecttolerance="10"
     gridtolerance="10"
     guidetolerance="10"
     inkscape:pageopacity="0"
     inkscape:pageshadow="2"
     inkscape:window-width="640"
     inkscape:window-height="480"
     id="namedview23"
     showgrid="true"
     inkscape:snap-global="false"
     inkscape:zoom="19.557318"
     inkscape:cx="8.4206327"
     inkscape:cy="6.3413707"
     inkscape:current-layer="g869"><inkscape:grid
       type="xygrid"
       id="grid837" /></sodipodi:namedview><g
     id="g869"
     transform="matrix(0.0688425,0,0,0.0688425,-0.01472029,0.26539351)"><path
       id="path2"
       d="m 95.189,141.75146 c 0,-13.40338 -8.133,-25.21888 -20.524,-32.28897 V 47.056918 c 0,-3.915044 -3.87,-7.120594 -8.601,-7.120594 -4.729,0 -8.599,3.20555 -8.599,7.120594 V 236.44433 c 0,3.91836 3.87,7.12308 8.599,7.12308 4.731,0 8.601,-3.20389 8.601,-7.12308 v -62.40225 c 12.392,-7.07175 20.524,-18.8856 20.524,-32.29062 z"
       inkscape:connector-curvature="0"
       style="fill:#676867;stroke-width:0.90987897" /><g
       id="g832"
       transform="matrix(-1,0,0,1,345.29102,0)"><g
         id="g8"
         transform="matrix(-1,0,0,1,345.29102,0)"><path
           style="fill:#676867"
           inkscape:connector-curvature="0"
           d="m 160.335,236.509 c 1.817,1.809 4.742,1.809 6.571,0 1.812,-1.817 1.812,-4.758 0,-6.57 -23.625,-23.603 -36.65,-55.066 -36.65,-88.567 0,-33.506 13.025,-64.948 36.65,-88.572 1.812,-1.809 1.812,-4.731 0,-6.546 -0.905,-0.904 -2.106,-1.356 -3.279,-1.356 -1.206,0 -2.388,0.452 -3.292,1.356 -25.37,25.37 -39.344,59.141 -39.344,95.118 0,35.993 13.974,69.767 39.344,95.137 z m 0,0"
           id="path4" /><path
           style="fill:#676867"
           inkscape:connector-curvature="0"
           d="m 163.614,240.578 c -1.959,0 -3.801,-0.766 -5.193,-2.146 -25.885,-25.888 -40.141,-60.357 -40.141,-97.06 0,-36.69 14.255,-71.152 40.136,-97.035 2.754,-2.748 7.646,-2.76 10.408,0 1.39,1.391 2.151,3.234 2.151,5.192 0,1.959 -0.767,3.803 -2.155,5.189 -23.117,23.12 -35.853,53.895 -35.853,86.654 0,32.776 12.732,63.551 35.853,86.648 2.868,2.867 2.868,7.532 0.004,10.403 -1.409,1.393 -3.255,2.155 -5.21,2.155 z m 0.013,-192.971 c -0.371,0 -0.909,0.098 -1.373,0.562 -24.861,24.86 -38.552,57.96 -38.552,93.202 0,35.256 13.691,68.362 38.552,93.218 0.729,0.733 2.004,0.721 2.745,-0.008 0.741,-0.746 0.741,-1.972 -0.012,-2.726 -24.144,-24.123 -37.442,-56.259 -37.442,-90.485 0,-34.207 13.298,-66.343 37.442,-90.489 0.366,-0.365 0.566,-0.845 0.566,-1.354 0,-0.511 -0.2,-0.994 -0.566,-1.358 -0.354,-0.356 -0.851,-0.562 -1.36,-0.562 z"
           id="path6" /></g><g
         id="g14"
         transform="matrix(-1,0,0,1,345.29102,0)"><path
           style="fill:#676867"
           inkscape:connector-curvature="0"
           d="m 188.369,216.821 c 1.809,1.812 4.729,1.812 6.542,0 1.809,-1.809 1.809,-4.729 0,-6.546 -37.985,-37.981 -37.985,-99.805 0,-137.787 1.809,-1.817 1.809,-4.738 0,-6.548 -0.908,-0.904 -2.086,-1.362 -3.263,-1.362 -1.202,0 -2.375,0.458 -3.279,1.362 -41.615,41.591 -41.615,109.294 0,150.881 z m 0,0"
           id="path10" /><path
           style="fill:#676867"
           inkscape:connector-curvature="0"
           d="m 191.64,220.891 c -1.959,0 -3.804,-0.766 -5.189,-2.154 -20.636,-20.62 -32.005,-48.097 -32.005,-77.354 0,-29.257 11.369,-56.731 32.005,-77.36 2.774,-2.764 7.569,-2.791 10.376,-0.002 2.859,2.861 2.859,7.518 0.008,10.381 -17.866,17.862 -27.7,41.647 -27.7,66.98 0,25.331 9.834,49.12 27.696,66.975 2.855,2.872 2.855,7.528 0,10.384 -1.391,1.388 -3.235,2.15 -5.191,2.15 z m 0.008,-153.602 c -0.362,0 -0.893,0.1 -1.36,0.568 -19.618,19.604 -30.417,45.715 -30.417,73.525 0,27.812 10.799,53.919 30.412,73.521 0.733,0.733 1.984,0.733 2.709,0 0.746,-0.745 0.746,-1.963 -0.004,-2.713 -18.877,-18.881 -29.276,-44.026 -29.276,-70.808 0,-26.782 10.399,-51.929 29.28,-70.81 0.746,-0.748 0.746,-1.968 0,-2.715 -0.366,-0.364 -0.843,-0.568 -1.344,-0.568 z"
           id="path12" /></g><g
         id="g20"
         transform="matrix(-1,0,0,1,345.29102,0)"><path
           style="fill:#676867"
           inkscape:connector-curvature="0"
           d="m 216.391,197.138 c 1.812,1.813 4.737,1.813 6.546,0 1.817,-1.812 1.817,-4.737 0,-6.546 -27.129,-27.138 -27.129,-71.284 0,-98.424 1.817,-1.809 1.817,-4.731 0,-6.546 -0.904,-0.904 -2.081,-1.356 -3.283,-1.356 -1.173,0 -2.374,0.452 -3.263,1.356 -14.881,14.862 -23.08,34.66 -23.08,55.769 0,21.086 8.199,40.882 23.08,55.747 z m 0,0"
           id="path16" /><path
           style="fill:#676867"
           inkscape:connector-curvature="0"
           d="m 219.666,201.208 c -1.96,0 -3.805,-0.762 -5.194,-2.151 -15.394,-15.382 -23.874,-35.859 -23.874,-57.667 0,-21.822 8.48,-42.31 23.879,-57.687 2.676,-2.728 7.613,-2.76 10.379,0.002 1.389,1.389 2.159,3.236 2.155,5.198 0,1.959 -0.771,3.801 -2.159,5.186 -26.066,26.077 -26.066,68.51 0.004,94.585 1.385,1.385 2.155,3.226 2.155,5.186 0,1.963 -0.767,3.809 -2.159,5.197 -1.381,1.384 -3.227,2.151 -5.186,2.151 z M 219.653,86.976 c -0.505,0 -0.989,0.2 -1.327,0.546 -14.393,14.372 -22.303,33.497 -22.303,53.868 0,20.357 7.915,39.474 22.282,53.83 0.732,0.733 1.987,0.729 2.713,0.004 0.37,-0.371 0.57,-0.852 0.57,-1.36 0,-0.51 -0.2,-0.986 -0.566,-1.349 -28.185,-28.196 -28.185,-74.071 -0.004,-102.264 0.37,-0.366 0.57,-0.845 0.57,-1.352 0,-0.511 -0.2,-0.994 -0.566,-1.359 -0.468,-0.466 -1.001,-0.564 -1.369,-0.564 z"
           id="path18" /></g></g></g></svg>