<?xml version="1.0" encoding="UTF-8" standalone="no"?>
<svg
   xmlns:dc="http://purl.org/dc/elements/1.1/"
   xmlns:cc="http://creativecommons.org/ns#"
   xmlns:rdf="http://www.w3.org/1999/02/22-rdf-syntax-ns#"
   xmlns:svg="http://www.w3.org/2000/svg"
   xmlns="http://www.w3.org/2000/svg"
   xmlns:sodipodi="http://sodipodi.sourceforge.net/DTD/sodipodi-0.dtd"
   xmlns:inkscape="http://www.inkscape.org/namespaces/inkscape"
   data-name="图层 1"
   id="图层_1"
   viewBox="0 0 20 20"
   version="1.1"
   sodipodi:docname="weather_module.svg"
   width="20"
   height="20"
   inkscape:version="0.92.2 5c3e80d, 2017-08-06"
   inkscape:export-filename="/Users/realor/Desktop/weather_module128.png"
   inkscape:export-xdpi="691.20001"
   inkscape:export-ydpi="691.20001">
  <metadata
     id="metadata37">
    <rdf:RDF>
      <cc:Work
         rdf:about="">
        <dc:format>image/svg+xml</dc:format>
        <dc:type
           rdf:resource="http://purl.org/dc/dcmitype/StillImage" />
        <dc:title></dc:title>
      </cc:Work>
    </rdf:RDF>
  </metadata>
  <sodipodi:namedview
     pagecolor="#ffffff"
     bordercolor="#666666"
     borderopacity="1"
     objecttolerance="10"
     gridtolerance="10"
     guidetolerance="10"
     inkscape:pageopacity="0"
     inkscape:pageshadow="2"
     inkscape:window-width="640"
     inkscape:window-height="480"
     id="namedview35"
     showgrid="true"
     inkscape:snap-global="false"
     inkscape:zoom="22.355888"
     inkscape:cx="11.095243"
     inkscape:cy="9.0450484"
     inkscape:current-layer="g859">
    <inkscape:grid
       type="xygrid"
       id="grid844" />
  </sodipodi:namedview>
  <defs
     id="defs4">
    <style
       id="style2">.cls-1{fill:#231815;}.cls-2{fill:#fff;}</style>
  </defs>
  <g
     id="g859"
     transform="matrix(0.06718094,0,0,0.06718094,-6.731307,25.154549)">
    <path
       style="fill:#666666;fill-opacity:1"
       inkscape:connector-curvature="0"
       id="path8"
       d="m 325.57,-161.28 a 59.9,59.9 0 0 0 58.79,-52.34 c 3.7,-30 -17,-58.47 -46.46,-64.86 l 5.24,5.24 c -9.07,-28.39 -33.17,-50.81 -62.81,-56 A 82.4,82.4 0 0 0 197.62,-294 l 8.47,-3.45 c -31.4,-9.69 -66.35,3.77 -82.26,32.77 -15.16,27.65 -9.62,63.37 13.66,84.79 a 70.91,70.91 0 0 0 47.42,18.61 c 9.66,0.11 9.66,-14.89 0,-15 -24.5,-0.27 -46.36,-16.6 -52.84,-40.4 a 55.22,55.22 0 0 1 25.59,-61.82 c 13.58,-7.83 29.54,-9.09 44.43,-4.49 3.34,1 6.63,-0.74 8.47,-3.45 14.64,-21.54 41.42,-33.14 67.15,-28.1 a 67.05,67.05 0 0 1 50.95,45.29 7.54,7.54 0 0 0 5.24,5.24 c 22.53,4.89 38.5,25.75 35.61,49 -2.74,22.09 -22,38.41 -44,38.7 -9.64,0.13 -9.67,15.13 0,15 z"
       class="cls-1" />
    <line
       style="fill:#ffffff"
       id="line10"
       y2="-198.94"
       y1="-179.73999"
       x2="205.60001"
       x1="212.97"
       class="cls-2" />
    <path
       style="fill:#666666;fill-opacity:1"
       inkscape:connector-curvature="0"
       id="path12"
       d="m 220.2,-181.73 -7.37,-19.2 c -1.45,-3.78 -5,-6.39 -9.23,-5.24 -3.61,1 -6.7,5.42 -5.24,9.23 l 7.37,19.2 c 1.45,3.78 5,6.39 9.23,5.24 3.61,-1 6.7,-5.42 5.24,-9.23 z"
       class="cls-1" />
    <line
       style="fill:#ffffff"
       id="line14"
       y2="-156.06"
       y1="-136.85999"
       x2="222.06"
       x1="229.44"
       class="cls-2" />
    <path
       style="fill:#666666;fill-opacity:1"
       inkscape:connector-curvature="0"
       id="path16"
       d="m 236.67,-138.85 -7.37,-19.2 c -1.45,-3.78 -5,-6.39 -9.23,-5.24 -3.61,1 -6.7,5.42 -5.24,9.23 l 7.37,19.2 c 1.45,3.78 5,6.39 9.23,5.24 3.61,-1 6.7,-5.42 5.24,-9.23 z"
       class="cls-1" />
    <line
       style="fill:#ffffff"
       id="line18"
       y2="-198.94"
       y1="-179.73999"
       x2="243.56"
       x1="250.92999"
       class="cls-2" />
    <path
       style="fill:#666666;fill-opacity:1"
       inkscape:connector-curvature="0"
       id="path20"
       d="m 258.16,-181.73 -7.37,-19.2 c -1.45,-3.78 -5,-6.39 -9.23,-5.24 -3.61,1 -6.7,5.42 -5.24,9.23 l 7.37,19.2 c 1.45,3.78 5,6.39 9.23,5.24 3.61,-1 6.7,-5.42 5.24,-9.23 z"
       class="cls-1" />
    <line
       style="fill:#ffffff"
       id="line22"
       y2="-156.06"
       y1="-136.85999"
       x2="260.01999"
       x1="267.39999"
       class="cls-2" />
    <path
       style="fill:#666666;fill-opacity:1"
       inkscape:connector-curvature="0"
       id="path24"
       d="m 274.63,-138.85 -7.37,-19.2 c -1.45,-3.78 -5,-6.39 -9.23,-5.24 -3.61,1 -6.7,5.42 -5.24,9.23 l 7.37,19.2 c 1.45,3.78 5,6.39 9.23,5.24 3.61,-1 6.7,-5.42 5.24,-9.23 z"
       class="cls-1" />
    <line
       style="fill:#ffffff"
       id="line26"
       y2="-198.94"
       y1="-179.73999"
       x2="281.51999"
       x1="288.89001"
       class="cls-2" />
    <path
       style="fill:#666666;fill-opacity:1"
       inkscape:connector-curvature="0"
       id="path28"
       d="m 296.12,-181.73 -7.37,-19.2 c -1.45,-3.78 -5,-6.39 -9.23,-5.24 -3.61,1 -6.7,5.42 -5.24,9.23 l 7.37,19.2 c 1.45,3.78 5,6.39 9.23,5.24 3.61,-1 6.7,-5.42 5.24,-9.23 z"
       class="cls-1" />
    <line
       style="fill:#ffffff"
       id="line30"
       y2="-156.06"
       y1="-136.85999"
       x2="297.98999"
       x1="305.35999"
       class="cls-2" />
    <path
       style="fill:#666666;fill-opacity:1"
       inkscape:connector-curvature="0"
       id="path32"
       d="m 312.59,-138.85 -7.37,-19.2 c -1.45,-3.78 -5,-6.39 -9.23,-5.24 -3.61,1 -6.7,5.42 -5.24,9.23 l 7.37,19.2 c 1.45,3.78 5,6.39 9.23,5.24 3.61,-1 6.7,-5.42 5.24,-9.23 z"
       class="cls-1" />
  </g>
</svg>
